<svg width="323" height="163" fill="none" xmlns="http://www.w3.org/2000/svg"><path d="m160.718 2.95.65 1.352 1.355-.652-.655-1.353-1.35.653Zm-.104.05-.65-1.352.65 2.852V3ZM161 3h1.5V1.5H161V3Zm0 75h-1.5v1.5h1.5V78Zm160 0h1.5v-1.5H321V78Zm0 1v1.5h1.5V79H321Zm-160 0v-1.5h-1.5V79h1.5Zm0 82v1.5h1.5V161H161Zm-1 0h-1.5v1.5h1.5V161Zm0-82h1.5v-1.5H160V79ZM5 79H3.5v1.5H5V79Zm0-.91h1.5V75.7l-2.152 1.04L5 78.089Zm-1.782.86-1.35.653.652 1.35 1.35-.652-.652-1.35Zm-.436-.9-.652-1.351-1.352.652.654 1.352 1.35-.653Zm157.5-76 1.351-.653-.653-1.35-1.35.652.652 1.35ZM5.187 78l-.652-1.35.652 2.85V78ZM160 78v1.5h1.5V78H160Zm0-74.704h1.5V.906l-2.152 1.039.652 1.35Zm.718-.346-.651-1.351-.103.05.65 1.351.651 1.352.103-.05-.65-1.352Zm-.104.05v1.5H161v-3h-.386V3ZM161 3h-1.5v75h3V3H161Zm0 75v1.5h160v-3H161V78Zm160 0h-1.5v1h3v-1H321Zm0 1v-1.5H161v3h160V79Zm-160 0h-1.5v82h3V79H161Zm0 82v-1.5h-1v3h1V161Zm-1 0h1.5V79h-3v82h1.5Zm0-82v-1.5H5v3h155V79ZM5 79h1.5v-.91h-3V79H5Zm0-.91-.652-1.351-1.782.86.652 1.351.652 1.351 1.782-.86L5 78.09Zm-1.782.86 1.35-.653-.435-.9-1.35.653-1.351.653.435.9 1.35-.653Zm-.436-.9.652 1.35 157.5-76-.652-1.35-.652-1.351-157.5 76 .652 1.35Zm157.5-76-1.35.653.435.9 1.351-.653 1.35-.653-.435-.9-1.351.653ZM5.187 78v1.5H160v-3H5.187V78ZM160 78h1.5V3.296h-3V78h1.5Zm0-74.704-.652-1.351L4.535 76.649 5.187 78l.651 1.35L160.652 4.648 160 3.296Z" fill="#000"/></svg>