<svg fill="none" height="112" width="112" xmlns="http://www.w3.org/2000/svg"><g fill="#000"><path d="m96.14 71.26-.08-.08c-.11-.1-.23-.26-.34-.44-.27-.44-.49-1.03-.49-1.41V25c0-2.21-1.79-4-4-4h-70.2c-2.21 0-4 1.79-4 4v44.34c0 .53-.43 1.49-.82 1.85l-.08.08C7 80.41 7 81.53 7 82.34v5.04c0 2.21 1.79 4 4 4h90.27c2.21 0 4-1.79 4-4v-5.04c0-.81 0-1.93-9.13-11.08zm-30.1 13.48c0 1.1-.9 2-2 2h-15.8c-1.1 0-2-.9-2-2v-.86c0-1.1.9-2 2-2h15.8c1.1 0 2 .9 2 2zm25.2-20.99H21.03V25h70.2v38.75z"/><path d="M46.12 53.65s.04.02.06.02.03 0 .05-.01c.03-.02.06-.06.06-.1v-3.25s-.02-.07-.05-.09l-7.71-5.26 7.71-5.26s.05-.05.05-.09v-3.24s-.02-.08-.06-.09c-.02-.01-.03-.01-.05-.01s-.04 0-.06.02l-11.1 7.58s-.05.05-.05.09V46s.02.07.05.09l11.1 7.58zm19.62.02s.04 0 .06-.02l11.1-7.58s.05-.05.05-.09v-2.04s-.02-.07-.05-.09l-11.1-7.58s-.04-.02-.06-.02-.03 0-.05.01c-.03.02-.06.05-.06.09v3.25s.02.07.05.09l7.71 5.26-7.71 5.26s-.05.06-.05.09v3.24s.02.08.06.1c.02 0 .03.01.05.01zm-14.85 1.46h3.1s.09-.03.1-.07l7.04-20.43s0-.07-.01-.1a.105.105 0 0 0-.09-.05h-3.1s-.09.03-.1.07l-7.05 20.43s0 .07.01.09c.02.03.05.05.09.05z"/></g></svg>