<svg fill="none" height="112" width="112" xmlns="http://www.w3.org/2000/svg"><g fill="#000"><path d="M102.33 33.79 87.22 18.97c-1.17-1.14-3.2-1.97-4.83-1.97H49.16c-2.21 0-4 1.8-4 4v69.47c0 2.21 1.79 4 4 4h51.2c2.21 0 4-1.79 4-4V38.61c0-1.65-.85-3.68-2.03-4.83zM86.13 23.5l12.25 12.02H86.13zm14.22 66.96h-51.2V20.99h32.97v14.53c0 2.21 1.79 4 4 4h14.22v50.94z"/><path d="M55.06 45.25c0 1.1.9 2 2 2h35.42c1.1 0 2-.9 2-2s-.9-2-2-2H57.06c-1.1 0-2 .9-2 2zm37.41 8.48H57.05c-1.1 0-2 .9-2 2s.9 2 2 2h35.42c1.1 0 2-.9 2-2s-.9-2-2-2zm0 10.47H57.05c-1.1 0-2 .9-2 2s.9 2 2 2h35.42c1.1 0 2-.9 2-2s-.9-2-2-2zM40.05 53.7H20.66c-.85-2.6-3.29-4.49-6.17-4.49-3.58 0-6.49 2.91-6.49 6.49s2.91 6.49 6.49 6.49c2.88 0 5.32-1.89 6.17-4.49h19.39c1.1 0 2-.9 2-2s-.9-2-2-2zm-25.56 4.49c-1.37 0-2.49-1.12-2.49-2.49s1.12-2.49 2.49-2.49 2.49 1.12 2.49 2.49-1.12 2.49-2.49 2.49zm25.56-12.97h-7.59l-5.54-6.52c-.38-.45-.94-.71-1.52-.71h-4.71c-.83-2.64-3.29-4.55-6.19-4.55-3.58 0-6.49 2.91-6.49 6.49s2.91 6.49 6.49 6.49c2.86 0 5.28-1.86 6.15-4.42h3.83l5.54 6.52c.38.45.94.71 1.52.71h8.52c1.1 0 2-.9 2-2s-.9-2-2-2zm-25.56-2.8c-1.37 0-2.49-1.12-2.49-2.49s1.12-2.49 2.49-2.49 2.49 1.12 2.49 2.49-1.12 2.49-2.49 2.49zm25.56-5.68h-4.66l.06-4.78c2.56-.87 4.4-3.29 4.4-6.14 0-3.58-2.91-6.49-6.49-6.49s-6.49 2.91-6.49 6.49c0 2.91 1.93 5.38 4.57 6.2l-.08 6.69c0 .54.2 1.05.58 1.43s.89.59 1.42.59h6.69c1.1 0 2-.9 2-2s-.9-2-2-2zm-6.69-8.43c-1.37 0-2.49-1.12-2.49-2.49s1.12-2.49 2.49-2.49 2.49 1.12 2.49 2.49-1.12 2.49-2.49 2.49zm6.69 33.87h-8.52c-.59 0-1.14.26-1.52.71l-5.54 6.52h-3.83a6.485 6.485 0 0 0-6.15-4.42C10.91 64.99 8 67.9 8 71.48s2.91 6.49 6.49 6.49c2.9 0 5.37-1.92 6.19-4.55h4.71c.59 0 1.14-.26 1.52-.71l5.54-6.52h7.59c1.1 0 2-.9 2-2s-.9-2-2-2zM14.49 73.96c-1.37 0-2.49-1.12-2.49-2.49s1.12-2.49 2.49-2.49 2.49 1.12 2.49 2.49-1.12 2.49-2.49 2.49zm25.56-3.3h-6.69c-.54 0-1.05.21-1.42.59s-.58.9-.58 1.43l.08 6.69a6.494 6.494 0 0 0-4.57 6.2c0 3.58 2.91 6.49 6.49 6.49s6.49-2.91 6.49-6.49c0-2.85-1.85-5.27-4.4-6.14l-.06-4.78h4.66c1.1 0 2-.9 2-2s-.9-2-2-2zm-4.2 14.92c0 1.37-1.12 2.49-2.49 2.49s-2.49-1.12-2.49-2.49 1.12-2.49 2.49-2.49 2.49 1.12 2.49 2.49z"/></g></svg>