<svg fill="none" height="112" width="112" xmlns="http://www.w3.org/2000/svg"><g fill="#000"><path d="M87.79 32.38H69.43V28.2c0-.47-.16-.92-.46-1.28l-.91-1.09c-.08-.09-.16-.18-.25-.26C61.19 20.04 52.42 17 43.11 17 23.75 17 8 30.31 8 46.67c0 8.7 4.44 16.85 12.21 22.5l-6.04 7.41c-.52.63-.6 1.52-.2 2.23.4.72 1.19 1.12 2 1.02 10.81-1.35 27.09-3.38 28.27-3.51 3.93-.1 7.76-.78 11.36-1.93v19.98h47.55V47.45zm.98 6.56L96.99 47h-8.22zM44.06 72.32c-.12 0-.4 0-23.65 2.92l4.27-5.23c.36-.44.51-1.01.43-1.58-.09-.56-.41-1.06-.89-1.37 0 0-.63-.4-.93-.61C16.11 61.55 12 54.34 12 46.67 12 32.52 25.96 21 43.11 21c8.31 0 16.11 2.67 21.99 7.53l.33.4v35.45c-.25.17-.45.4-.61.66-5.6 4.51-12.94 7.1-20.75 7.3zm55.09 18.04H61.03l4.76-13.24H91.9c1.1 0 2-.9 2-2s-.9-2-2-2H67.23l1.83-5.09H91.9c1.1 0 2-.9 2-2s-.9-2-2-2H69.43v-5.09H91.9c1.1 0 2-.9 2-2s-.9-2-2-2H69.43V36.38h15.34V47c0 2.21 1.79 4 4 4h10.38z"/><path d="M29.15 41.9a4.02 4.02 0 1 0 0 8.04 4.02 4.02 0 0 0 0-8.04zm13.88 0a4.02 4.02 0 1 0 0 8.04 4.02 4.02 0 0 0 0-8.04zm13.88 0a4.02 4.02 0 1 0 0 8.04 4.02 4.02 0 0 0 0-8.04z"/></g></svg>