<svg fill="none" height="112" width="112" xmlns="http://www.w3.org/2000/svg"><g fill="#000"><path d="M81.05 45.6c0-16.32-15.71-29.6-35.02-29.6S11 29.28 11 45.6c0 8.68 4.42 16.81 12.18 22.45l-6.03 7.39c-.52.63-.6 1.52-.2 2.23a2.01 2.01 0 0 0 1.75 1.03c.08 0 .17 0 .25-.02 10.78-1.35 27.02-3.37 28.2-3.5 19.01-.51 33.9-13.49 33.9-29.59zM46.98 71.19c-.12 0-.4 0-23.57 2.91l4.25-5.21c.36-.44.51-1.01.43-1.58-.09-.56-.41-1.06-.89-1.37 0 0-.63-.4-.93-.61-7.16-4.89-11.26-12.08-11.26-19.73 0-14.12 13.92-25.6 31.03-25.6s31.02 11.48 31.02 25.6-13.21 25.17-30.07 25.59z"/><path d="M92.92 87.84c5.46-4.16 8.56-10.04 8.56-16.31 0-9.35-6.99-17.68-17.38-20.74a2 2 0 0 0-1.12 3.84c8.68 2.55 14.51 9.34 14.51 16.9 0 5.34-2.88 10.36-7.9 13.79-.21.15-.65.43-.66.43-.48.31-.8.81-.89 1.37s.07 1.14.43 1.58l2.2 2.69c-15.41-1.92-15.59-1.93-15.71-1.93-9.19-.23-17.27-5.21-20.12-12.4a1.994 1.994 0 0 0-2.6-1.12 1.998 1.998 0 0 0-1.12 2.6c3.42 8.64 12.92 14.63 23.66 14.92 1 .11 12.62 1.56 20.34 2.52.08.01.17.02.25.02.72 0 1.39-.39 1.75-1.03.4-.71.32-1.6-.2-2.23l-3.99-4.89zM37.48 34.98l-6.72 19.58h2.78l1.95-5.78h6.57l2.06 5.78h5.83l-7.17-19.58zm-1.14 11.3 2.3-7.01 2.53 7.01zm21.43-11.3h-5.49v19.58h5.49z"/></g></svg>