<svg fill="none" height="112" width="112" xmlns="http://www.w3.org/2000/svg"><g fill="#000"><path d="M56.49 27.093c-15.98 0-28.93 12.95-28.93 28.93s12.95 28.93 28.93 28.93 28.93-12.95 28.93-28.93-12.95-28.93-28.93-28.93zm-7.43 15.08c0-4.1 3.33-7.43 7.43-7.43s7.43 3.33 7.43 7.43v14.33c0 4.1-3.33 7.43-7.43 7.43s-7.43-3.33-7.43-7.43zm9.56 29.1v6.58h-4.25v-6.58c-7.22-1.03-12.79-7.26-12.79-14.77 0-1.17.95-2.13 2.13-2.13s2.13.95 2.13 2.13c0 5.88 4.79 10.67 10.67 10.67s10.67-4.79 10.67-10.67c0-1.17.95-2.13 2.13-2.13s2.13.95 2.13 2.13c0 7.5-5.57 13.73-12.79 14.77zm42.67-44.37c-.6-.92-1.84-1.18-2.77-.58-.92.6-1.18 1.84-.58 2.77 5.25 8.02 8.03 17.33 8.03 26.93s-2.78 18.91-8.03 26.93c-.61.92-.35 2.16.58 2.77.34.22.72.33 1.09.33.65 0 1.29-.32 1.67-.9 5.68-8.67 8.68-18.74 8.68-29.12s-3-20.45-8.68-29.12z"/><path d="M95.93 32.363c-.57-.94-1.8-1.25-2.75-.68s-1.25 1.8-.68 2.75c3.93 6.5 6.01 13.97 6.01 21.6s-2.08 15.1-6.01 21.6c-.57.95-.27 2.17.68 2.75.32.2.68.29 1.03.29.68 0 1.34-.34 1.71-.96 4.31-7.12 6.59-15.31 6.59-23.67s-2.28-16.55-6.59-23.67z"/><path d="M90.56 37.873a1.996 1.996 0 0 0-2.71-.81c-.97.52-1.34 1.74-.81 2.71 2.67 4.97 4.09 10.59 4.09 16.27s-1.41 11.3-4.09 16.27c-.52.97-.16 2.19.81 2.71a1.996 1.996 0 0 0 2.71-.81c2.98-5.55 4.56-11.83 4.56-18.16s-1.58-12.61-4.56-18.16zM7 56.363c0-9.6 2.78-18.91 8.03-26.93.61-.92.35-2.16-.58-2.77-.92-.61-2.16-.35-2.77.58C6 35.913 3 45.983 3 56.363s3 20.45 8.68 29.12c.38.59 1.02.9 1.67.9a2.008 2.008 0 0 0 1.67-3.1 49.041 49.041 0 0 1-8.03-26.93z"/><path d="M14.45 56.363c0-7.63 2.08-15.1 6.01-21.6a2.003 2.003 0 0 0-3.43-2.07c-4.31 7.12-6.59 15.31-6.59 23.67s2.28 16.55 6.59 23.67c.38.62 1.04.96 1.71.96.35 0 .71-.09 1.03-.29.94-.57 1.25-1.8.68-2.75a41.744 41.744 0 0 1-6.01-21.6z"/><path d="M25.12 37.393c-.97-.52-2.18-.16-2.71.81-2.99 5.55-4.56 11.83-4.56 18.16s1.58 12.61 4.56 18.16a1.996 1.996 0 0 0 2.71.81c.97-.52 1.34-1.74.81-2.71-2.67-4.97-4.09-10.59-4.09-16.26s1.41-11.3 4.09-16.26c.52-.97.16-2.19-.81-2.71z"/></g></svg>