<svg xmlns="http://www.w3.org/2000/svg" width="159.121" height="16"><path data-name="パス 4" d="M16.176.29h3.246l-4.308 15.285H12.07l-1.846-8.939-.539-2.955-.539 2.955L7.3 15.575H4.334L0 .29h3.391l2.023 8.752.436 2.437.446-2.385 1.721-8.8h3.37l1.815 8.752.467 2.437.467-2.343Zm17.938 8.607h-7.425v3.93h8.461v2.748H23.568V.29h11.209v2.706h-8.088v3.246h7.425Zm12.628 6.678h-6.928V.29h7.424a4.722 4.722 0 0 1 3.982 1.628 3.873 3.873 0 0 1 .705 2.333 3.412 3.412 0 0 1-.705 2.25 3.639 3.639 0 0 1-1.161.871 3.408 3.408 0 0 1 1.768 1.348 4.04 4.04 0 0 1 .6 2.24 4.451 4.451 0 0 1-.684 2.437 4.224 4.224 0 0 1-1.089 1.2 4.25 4.25 0 0 1-1.737.767 10.707 10.707 0 0 1-2.176.211Zm-.073-6.73h-3.806v4.075h3.751a3.685 3.685 0 0 0 1.566-.27 1.92 1.92 0 0 0 1.016-1.908 1.639 1.639 0 0 0-.985-1.638 3.947 3.947 0 0 0-1.542-.259Zm1.586-2.909a1.43 1.43 0 0 0 .622-1.338 1.367 1.367 0 0 0-.83-1.41 5.871 5.871 0 0 0-1.825-.238h-3.36v3.37h3.752a3.124 3.124 0 0 0 1.641-.384Zm27.776 8.5a6.23 6.23 0 0 1-4.376 1.566 6.593 6.593 0 0 1-5.185-2.115 8.467 8.467 0 0 1-1.887-5.828 8.394 8.394 0 0 1 2.146-6.17A6.4 6.4 0 0 1 71.478.002q3.857 0 5.641 2.53a5.477 5.477 0 0 1 1.058 2.852h-3.194a4.314 4.314 0 0 0-.8-1.659 3.248 3.248 0 0 0-2.582-1 3.2 3.2 0 0 0-2.746 1.411 6.754 6.754 0 0 0-1.006 3.977 5.928 5.928 0 0 0 1.065 3.848 3.359 3.359 0 0 0 2.7 1.281 3.089 3.089 0 0 0 2.561-1.1 4.774 4.774 0 0 0 .809-1.773h3.163a6.873 6.873 0 0 1-2.116 4.067Zm13.167-4.853h-3.3v5.994h-3.119V.29h7.5a6.985 6.985 0 0 1 2.473.394 3.864 3.864 0 0 1 1.462 1.068 4.733 4.733 0 0 1 .79 1.284 4.191 4.191 0 0 1 .29 1.607 4.579 4.579 0 0 1-.55 2.141 3.071 3.071 0 0 1-1.815 1.488 2.854 2.854 0 0 1 1.5 1.208 5.029 5.029 0 0 1 .441 2.39v1.027a7.852 7.852 0 0 0 .083 1.421 1.276 1.276 0 0 0 .581.871v.384h-3.52q-.145-.508-.207-.819a7.525 7.525 0 0 1-.135-1.317l-.021-1.421a2.776 2.776 0 0 0-.534-1.949 2.833 2.833 0 0 0-1.919-.486Zm1.939-2.779a1.7 1.7 0 0 0 .954-1.721 1.9 1.9 0 0 0-.923-1.866 3.488 3.488 0 0 0-1.555-.27H85.9v4.106h3.619a4.033 4.033 0 0 0 1.618-.251Zm19.669 2.095h-7.424v3.93h8.461v2.748H100.26V.29h11.209v2.706h-8.088v3.246h7.424Zm14.6 3.536h-5.631l-1.061 3.14h-3.339L120.829.29h3.609l5.413 15.285h-3.463Zm-.892-2.634-1.908-6.014-1.97 6.014ZM143.457.292v2.706h-4.573v12.578h-3.215V2.997h-4.594V.291Zm14.629 8.607h-7.424v3.93h8.461v2.748h-11.585V.29h11.209v2.706h-8.088v3.246h7.424Z" fill="#333"/></svg>