<svg fill="none" height="84" width="84" xmlns="http://www.w3.org/2000/svg"><circle cx="42" cy="42" fill="#ffa426" r="42"/><path d="M26.248 31.248V19.824h2v.6c.448-.528 1.048-.792 1.8-.792.699 0 1.301.173 1.808.52.507.341.896.832 1.168 1.472s.408 1.403.408 2.288c0 .859-.141 1.61-.424 2.256-.283.64-.68 1.139-1.192 1.496-.512.352-1.11.528-1.792.528-.373 0-.71-.067-1.008-.2a2.114 2.114 0 0 1-.768-.608v2.96zm3.48-4.968c.544 0 .963-.205 1.256-.616.293-.416.44-1 .44-1.752s-.15-1.336-.448-1.752-.715-.624-1.248-.624c-.325 0-.61.059-.856.176-.24.117-.448.296-.624.536v3.304c.144.23.347.408.608.536.267.128.557.192.872.192zm6.65 1.72V17.352l2-.904V28zm7.792.192c-.89 0-1.597-.24-2.12-.72-.517-.485-.776-1.141-.776-1.968 0-.533.134-1 .4-1.4a2.642 2.642 0 0 1 1.128-.936c.486-.224 1.05-.336 1.696-.336.358 0 .702.035 1.032.104.336.064.63.157.88.28v-.512c0-.459-.13-.803-.392-1.032-.256-.235-.634-.352-1.136-.352-.4 0-.81.072-1.232.216a5.736 5.736 0 0 0-1.28.64l-.6-1.576c.47-.31.992-.547 1.568-.712a6.108 6.108 0 0 1 1.744-.256c1.099 0 1.92.261 2.464.784.544.517.816 1.29.816 2.32V28H46.41v-.656a2.749 2.749 0 0 1-.992.632 3.485 3.485 0 0 1-1.248.216zm.464-1.688c.33 0 .648-.064.952-.192.31-.133.584-.32.824-.56v-.968a3.251 3.251 0 0 0-.768-.256 3.69 3.69 0 0 0-.832-.096c-.496 0-.888.096-1.176.288a.888.888 0 0 0-.424.784c0 .315.126.56.376.736.25.176.6.264 1.048.264zM51.554 28v-8.176h2v.784c.262-.325.574-.568.936-.728a3.035 3.035 0 0 1 1.256-.248c.912 0 1.616.283 2.112.848.496.56.744 1.368.744 2.424V28H56.61v-4.48c0-.688-.12-1.19-.36-1.504-.234-.32-.602-.48-1.104-.48-.544 0-.946.16-1.208.48-.256.315-.384.805-.384 1.472V28zM31 68V40h12.08c2.28 0 4.08.367 5.4 1.1 1.32.72 2.26 1.66 2.82 2.82.56 1.147.84 2.347.84 3.6s-.273 2.4-.82 3.44c-.547 1.027-1.44 1.82-2.68 2.38 1.013.36 1.847.88 2.5 1.56a6.126 6.126 0 0 1 1.46 2.28c.32.84.48 1.693.48 2.56a9.2 9.2 0 0 1-.5 2.96c-.32.973-.847 1.86-1.58 2.66s-1.707 1.44-2.92 1.92c-1.2.48-2.68.72-4.44.72zm5.18-4.86h7.8c1 0 1.78-.173 2.34-.52.573-.347.973-.78 1.2-1.3.24-.533.36-1.06.36-1.58 0-.64-.14-1.247-.42-1.82-.267-.587-.767-1.067-1.5-1.44-.72-.373-1.767-.56-3.14-.56h-6.64zm0-11.88h6.26c1.52 0 2.64-.293 3.36-.88.733-.6 1.1-1.393 1.1-2.38 0-.507-.093-1-.28-1.48-.187-.493-.547-.9-1.08-1.22s-1.32-.48-2.36-.48h-7z" fill="#fff"/></svg>