<svg fill="none" height="150" width="150" xmlns="http://www.w3.org/2000/svg"><clipPath id="a"><path d="M26 42h98v70H26z"/></clipPath><clipPath id="b"><path d="M56.915 47.968h34.904v34.81H56.915z"/></clipPath><clipPath id="c"><path d="M59.907 54.93h29.918v24.865H59.907z"/></clipPath><circle cx="75" cy="75" fill="#fff" r="75"/><g clip-path="url(#a)"><path d="m114.895 91.989-.08-.08a2.124 2.124 0 0 1-.339-.438c-.269-.437-.488-1.024-.488-1.402V45.978A3.983 3.983 0 0 0 109.999 42H39.992a3.983 3.983 0 0 0-3.99 3.978V90.08c0 .527-.428 1.482-.817 1.84l-.08.08C26 101.089 26 102.203 26 103.009v5.013A3.982 3.982 0 0 0 29.989 112h90.022a3.982 3.982 0 0 0 3.989-3.978v-5.013c0-.806 0-1.92-9.105-11.02zm-30.017 13.407a1.998 1.998 0 0 1-1.995 1.989H67.127a1.998 1.998 0 0 1-1.995-1.989v-.856c0-1.094.898-1.989 1.995-1.989h15.756c1.097 0 1.995.895 1.995 1.989zm25.131-20.877H39.991V45.98H110v38.54z" fill="#ffa426"/><g clip-path="url(#b)"><path clip-rule="evenodd" d="M58.179 64.653a.72.72 0 0 1 .722.72c0 8.764 6.97 15.845 15.528 15.845 8.557 0 15.524-7.077 15.524-15.845a.721.721 0 0 1 1.445 0c0 9.533-7.584 17.286-16.97 17.286s-16.971-7.756-16.971-17.286a.72.72 0 0 1 .722-.72z" fill="#000" fill-rule="evenodd"/><g clip-path="url(#c)"><path d="M87.04 65.515h-8.193c-1.534 0-1.903.874-.816 1.947l1.505 1.486 6.26 6.18c2.568-2.69 3.925-5.918 4.034-9.613h-2.784z" fill="#99b901"/><path d="m71.71 62.597-5.793-5.72s-.024-.024-.04-.034L63.94 54.93c-2.567 2.69-3.925 5.919-4.033 9.614h10.987c1.535 0 1.904-.874.817-1.947z" fill="#ffa426"/><path d="M70.894 65.515H59.907c.108 3.695 1.466 6.924 4.033 9.614l1.938-1.913s.024-.025.04-.034l5.793-5.72c1.082-1.068.718-1.947-.817-1.947z" fill="#105f00"/><path d="M74.376 68.953c0-1.515-.885-1.88-1.972-.807l-1.628 1.608-6.138 6.06c2.725 2.534 5.996 3.874 9.738 3.98v-2.751z" fill="#e10048"/><path d="M83.165 73.905s-.024-.024-.034-.039l-5.794-5.72c-1.082-1.068-1.972-.709-1.972.806v10.843c3.743-.107 7.013-1.447 9.738-3.982l-1.933-1.908z" fill="#e28301"/></g><path d="M84.83 62.523c-1.61 1.028-7.875 2.531-7.875 2.531s4.017-5.059 5.628-6.087c1.61-1.028 3.42-1.066 4.037-.082.618.985-.182 2.613-1.792 3.641z" fill="#ffa426"/><path d="M72.57 54.929c.715 1.778 1.063 8.242 1.063 8.242s-4.23-4.88-4.95-6.658-.428-3.57.646-4.007c1.073-.438 2.522.648 3.24 2.426z" fill="#e10048"/><path d="M80.665 56.55c-.773 1.755-5.155 6.499-5.155 6.499s.547-6.45 1.32-8.205 2.256-2.793 3.316-2.321 1.29 2.273.52 4.028z" fill="#99b901"/><path d="M89.201 61.014c.781 0 1.415-.636 1.415-1.421s-.634-1.422-1.415-1.422-1.414.637-1.414 1.422.633 1.421 1.414 1.421z" fill="#e28301"/><path d="M74.758 53.092c.782 0 1.415-.637 1.415-1.422s-.633-1.422-1.415-1.422c-.781 0-1.414.637-1.414 1.422s.633 1.422 1.414 1.422z" fill="#99b901"/><path d="M86.585 65.153c.534 0 .966-.434.966-.97s-.432-.97-.966-.97c-.533 0-.965.434-.965.97s.432.97.965.97zm2.235-9.967a.968.968 0 0 0 .965-.97.968.968 0 0 0-.965-.97.968.968 0 0 0-.966.97c0 .536.433.97.966.97z" fill="#e10048"/><path d="M82.427 51.192c.533 0 .965-.434.965-.97s-.432-.97-.965-.97c-.534 0-.966.434-.966.97s.432.97.966.97z" fill="#ffa426"/><path d="M68.532 68.755c.533 0 .965-.435.965-.97s-.432-.971-.965-.971c-.534 0-.966.434-.966.97s.432.97.966.97zm3.297 2.97a.654.654 0 0 0 0-1.31c-.36 0-.651.293-.651.655s.291.655.651.655zm-5.056-1.441c.36 0 .652-.293.652-.655s-.292-.655-.652-.655c-.36 0-.651.294-.651.655s.291.655.651.655zm2.889-6.482c.36 0 .652-.293.652-.655s-.292-.655-.652-.655a.654.654 0 0 0 0 1.31zm6.5 10.804a.654.654 0 0 0 0-1.31c-.36 0-.652.293-.652.655s.292.655.652.655zm2.888-6.483c.36 0 .651-.293.651-.655a.652.652 0 1 0-1.303.001c0 .362.292.654.652.654zm-6.907 6.393c.533 0 .966-.434.966-.97s-.433-.97-.966-.97-.966.434-.966.97.433.97.966.97zm5.055-2.16c.533 0 .965-.435.965-.97s-.432-.971-.965-.971c-.533 0-.966.434-.966.97s.433.97.966.97zm4.332-2.881c.534 0 .966-.435.966-.97s-.432-.971-.965-.971-.966.434-.966.97.432.97.966.97zm-14.443-5.762a.968.968 0 0 0 .966-.97.968.968 0 0 0-.966-.971.968.968 0 0 0-.965.97c0 .536.432.97.965.97z" fill="#fff"/><path d="M71.05 50.029c.533 0 .965-.435.965-.97s-.432-.971-.966-.971c-.533 0-.965.434-.965.97s.432.97.965.97z" fill="#e28301"/><path d="M84.098 56.069c.781 0 1.414-.637 1.414-1.422 0-.785-.633-1.422-1.414-1.422-.781 0-1.415.637-1.415 1.422 0 .785.634 1.422 1.415 1.422z" fill="#105f00"/></g></g></svg>