<svg fill="none" height="150" width="150" xmlns="http://www.w3.org/2000/svg"><clipPath id="a"><path d="M26 26h98v99H26z"/></clipPath><circle cx="75" cy="75" fill="#fff" r="75"/><g clip-path="url(#a)" fill="#ffa426"><path d="M72.78 66.645c8.034 0 14.548-6.487 14.548-14.49s-6.514-14.488-14.549-14.488-14.548 6.487-14.548 14.489 6.514 14.489 14.548 14.489z"/><path d="M116.957 87.918a46.162 46.162 0 0 0 2.602-15.33C119.559 46.903 98.571 26 72.779 26 46.99 26 26 46.903 26 72.588c0 25.686 20.988 46.588 46.78 46.588 4.631 0 9.102-.68 13.322-1.931C90.031 121.978 95.968 125 102.6 125c11.805 0 21.4-9.566 21.4-21.313 0-6.244-2.733-11.857-7.043-15.76zm-86.938-15.33c0-23.484 19.18-42.586 42.76-42.586s42.761 19.102 42.761 42.586a42.29 42.29 0 0 1-1.979 12.818 21.286 21.286 0 0 0-10.961-3.042 21.4 21.4 0 0 0-7.234 1.28C90.232 75.22 82.033 69.767 72.78 69.767c-15.543 0-28.142 15.409-28.142 34.41v.451c-8.952-7.815-14.63-19.272-14.63-32.03zm51.18 31.089zm.17 2.542c.051.46.131.92.212 1.37-.08-.45-.15-.91-.211-1.37zm.322 1.961a25.5 25.5 0 0 0 .452 1.751c-.18-.57-.321-1.161-.452-1.751zm.613 2.221zm.774 1.981c.15.321.301.641.462.951-.16-.31-.321-.63-.462-.951zm6.661-25.705-.12.09.12-.09zm12.84 34.321c-9.585 0-17.381-7.765-17.381-17.311s7.796-17.31 17.381-17.31 17.382 7.764 17.382 17.31-7.797 17.311-17.382 17.311z"/><path d="M116.485 97.233a2.013 2.013 0 0 0-2.834-.21L99.425 109.21l-7.757-7.724a2.018 2.018 0 0 0-2.843 0 1.998 1.998 0 0 0 0 2.831l9.072 9.036a2.007 2.007 0 0 0 2.723.11l15.644-13.398c.844-.72.934-1.981.211-2.822z"/></g></svg>