<svg fill="none" height="150" width="150" xmlns="http://www.w3.org/2000/svg"><clipPath id="a"><path d="M23 59h105v56H23z"/></clipPath><circle cx="75" cy="75" fill="#fff" r="75"/><g clip-path="url(#a)"><path d="M125.998 59H25.002A2.008 2.008 0 0 0 23 61.002v26.584c0 1.101.901 2.002 2.002 2.002H84.08l2.563 3.054c-1.992.04-3.785.721-4.816 1.872-.83.921-1.161 2.093-.92 3.304.54 2.804 2.332 3.385 3.764 3.845.21.07.43.141.67.231 1.572.56 2.633 1.001 4.095 2.503 6.698 6.838 11.833 7.97 15.267 7.429l2.083 2.483c.34.411.831.661 1.361.711h.171c.47 0 .921-.16 1.291-.471l12.284-10.312a2.002 2.002 0 0 0 .25-2.824l-2.473-2.954c-.07-1.592-.47-5.276-2.522-8.65-.03-.08-.08-.15-.121-.22h8.961a2.008 2.008 0 0 0 2.002-2.003V61.003A2.008 2.008 0 0 0 125.988 59zm-8.2 43.444-9.22 7.74-1.582-1.882a2 2 0 0 0-1.532-.711c-.2 0-.4.03-.6.09-2.293.731-6.328.26-12.545-6.088-2.052-2.092-3.754-2.813-5.616-3.474-.27-.1-.53-.18-.771-.26-.35-.12-.841-.27-.931-.35 0 0-.06-.091-.12-.361.26-.22 1.181-.591 2.463-.48.83.07 2.713 1.28 3.714 1.941.64.411 1.191.772 1.662 1.012.85.44 1.882.22 2.483-.53.6-.742.58-1.803-.03-2.534L80.986 79.646c-.24-.29-.21-.751.09-.991.29-.24.741-.2.992.09l7.608 9.061c.64.771 1.762.941 2.613.4a2 2 0 0 0 .741-2.533c-.11-.25-.09-.61.18-.84a.7.7 0 0 1 .991.09l1.262 1.501a2 2 0 0 0 2.613.4 2 2 0 0 0 .74-2.532c-.11-.25-.09-.611.18-.841.291-.24.752-.2.992.09l1.322 1.572c.64.77 1.762.94 2.612.4a2.001 2.001 0 0 0 .741-2.533.724.724 0 0 1 .181-.841c.29-.25.74-.2.991.09l7.628 9.091c.04.05.08.11.111.18.04.1.09.2.15.301 2.072 3.334 2.012 7.32 2.012 7.35-.01.49.15.97.471 1.341l1.641 1.952zm6.197-16.86h-10.161l-4.976-5.928c-1.672-1.993-4.645-2.253-6.627-.58-.261.22-.491.46-.691.71a4.734 4.734 0 0 0-5.156.59c-.27.221-.51.471-.711.742a4.726 4.726 0 0 0-5.506 1.051l-5.056-6.028a4.713 4.713 0 0 0-6.638-.58c-1.982 1.672-2.252 4.645-.58 6.628l2.823 3.364H27.005V63.005h96.99z" fill="#ffa426"/></g></svg>