<svg fill="none" height="150" width="150" xmlns="http://www.w3.org/2000/svg"><clipPath id="a"><path d="M31 33h87v84H31z"/></clipPath><circle cx="75" cy="75" fill="#fff" r="75"/><g clip-path="url(#a)" fill="#ffa426"><path d="m116.182 60.005-13.048-8.697v-8.895a2 2 0 0 0-1.999-1.99H86.799l-10.26-6.836c-1.18-.786-2.898-.786-4.077 0l-10.26 6.836H47.864a2 2 0 0 0-1.999 1.99v8.896l-13.048 8.696c-1.069.707-1.818 2.1-1.818 3.383v50.498a3.115 3.115 0 0 0 3.117 3.104h80.766a3.115 3.115 0 0 0 3.117-3.104V63.398c0-1.284-.749-2.677-1.818-3.383zm-13.048-3.91 9.721 6.477-9.721 9.035zM74.5 37.02l5.115 3.403h-10.23zm-24.647 7.383h49.284v30.916L86.94 86.651H62.09L49.853 75.259zm-3.997 11.701v15.443l-9.67-8.995zm-10.87 10.777 23.369 21.74-23.359 21.692V66.881zm2.948 46.139 24.108-22.378h24.887l24.087 22.378H37.944zm76.06-2.677L90.645 88.652l23.349-21.682z"/><path d="M72.272 75.925a8.74 8.74 0 0 0 2.598 6.25c1.678 1.66 4.006 2.586 6.274 2.586s4.546-.865 6.274-2.587c3.467-3.443 3.467-9.055 0-12.507-3.037-3.025-7.743-3.393-11.19-1.115l-5.984-5.96 5.365-5.343c.78-.776.78-2.04 0-2.816s-2.048-.776-2.827 0l-5.365 5.343L62.6 54.98l5.365-5.343c.78-.776.78-2.04 0-2.816a2.008 2.008 0 0 0-2.827 0l-6.774 6.746c-.38.378-.59.876-.59 1.403s.21 1.035.59 1.403L73.49 71.438a8.773 8.773 0 0 0-1.219 4.467zm5.425-3.443c.95-.945 2.198-1.422 3.457-1.422s2.498.477 3.457 1.422a4.845 4.845 0 0 1 0 6.876c-1.909 1.89-5.006 1.89-6.904 0-.92-.915-1.429-2.14-1.429-3.443s.51-2.517 1.43-3.442z"/></g></svg>