<svg fill="none" height="150" width="150" xmlns="http://www.w3.org/2000/svg"><clipPath id="a"><path d="M31 33h87v84H31z"/></clipPath><circle cx="75" cy="75" fill="#fff" r="75"/><g clip-path="url(#a)" fill="#ffa426"><path d="M56.916 55.527h35.158a2 2 0 0 0 1.998-1.99 2 2 0 0 0-1.998-1.99H56.916a2 2 0 0 0-1.998 1.99 2 2 0 0 0 1.998 1.99zm0 7.732h35.158a2 2 0 0 0 1.998-1.99 2 2 0 0 0-1.998-1.99H56.916a2 2 0 0 0-1.998 1.99 2 2 0 0 0 1.998 1.99zm37.166 5.731A2 2 0 0 0 92.084 67H56.916a2 2 0 0 0-1.998 1.99 2 2 0 0 0 1.998 1.99h35.158a2 2 0 0 0 1.998-1.99z"/><path d="m116.182 60.008-13.048-8.697v-8.896a2 2 0 0 0-1.999-1.99H86.799l-10.26-6.835c-1.18-.786-2.898-.786-4.077 0l-10.26 6.835H47.864a2 2 0 0 0-1.999 1.99v8.896l-13.048 8.697C31.75 60.714 31 62.107 31 63.39v50.497a3.115 3.115 0 0 0 3.117 3.105h80.766a3.115 3.115 0 0 0 3.117-3.105V63.401c0-1.284-.749-2.677-1.818-3.384zm-13.048-3.911 9.721 6.478-9.721 9.035zM74.5 37.022l5.115 3.403h-10.23zm-24.647 7.384h49.284V75.32L86.94 86.654H62.09L49.853 75.261zm-3.997 11.701V71.55l-9.67-8.995zm-10.87 10.776 23.369 21.741-23.359 21.692V66.883zm2.948 46.139 24.108-22.378h24.887l24.087 22.378H37.944zm76.06-2.676L90.645 88.654l23.349-21.681z"/></g></svg>