<svg xmlns="http://www.w3.org/2000/svg" width="500" viewBox="0 0 375 375" height="500" version="1.0"><defs><clipPath id="a"><path d="M50.836 114.586H144v49.984H50.836Zm0 0"/></clipPath></defs><path d="M180.517 116.76c.07-.207.11-.375.11-.5 0-.25-.11-.379-.329-.39h1.391c-.086.011-.2.078-.344.203-.148.117-.277.351-.39.703l-1.953 5.5-1.735-4.984-1.781 4.984-1.781-5.531c-.157-.5-.387-.79-.688-.875h1.5c-.168.03-.25.132-.25.297 0 .085.035.234.11.453l.093.312 1.141 3.75 1.828-4.984 1.734 4.953Zm7.269 5.297c0 .02.035.008.11-.031.07-.05.132-.145.187-.281.062-.133.094-.332.094-.594v-4.406c0-.25-.032-.438-.094-.563-.055-.133-.117-.223-.188-.265-.074-.051-.109-.067-.109-.047h3.25v.89c-.105-.351-.43-.531-.969-.531h-1.25v2.547h1.547a.908.908 0 0 0 .313-.047.677.677 0 0 0 .187-.125l.078-.078v.875a.79.79 0 0 0-.078-.094.593.593 0 0 0-.187-.11.706.706 0 0 0-.297-.062h-1.563v2.563h1.407c.27 0 .5-.051.687-.156.195-.114.336-.258.422-.438l-.156.953Zm13.019-.157c-.157.056-.34.095-.547.126a7.85 7.85 0 0 1-.828.031h-1.485c.07-.02.157-.086.25-.203.094-.113.14-.336.14-.672v-4.469c0-.312-.042-.523-.124-.64-.086-.114-.168-.18-.25-.203h1.469c.383 0 .675.015.875.047.195.03.375.078.53.14.259.125.462.305.61.531.145.23.22.48.22.75 0 .399-.126.743-.376 1.032-.242.293-.559.48-.953.562.27.031.523.11.766.235.25.125.445.296.593.515.157.219.235.465.235.735 0 .386-.106.703-.313.953a1.704 1.704 0 0 1-.812.53Zm-.266-5.405a1.131 1.131 0 0 0-.39-.203 2.042 2.042 0 0 0-.547-.063h-.625v2.547h.734c.219 0 .394-.031.531-.094a1.21 1.21 0 0 0 .656-.672 1.4 1.4 0 0 0 .094-.5c0-.195-.039-.383-.11-.562a1.02 1.02 0 0 0-.343-.453Zm.203 2.906a1.107 1.107 0 0 0-.437-.203 3.037 3.037 0 0 0-.672-.063h-.656v2.563h.859c.426 0 .758-.098 1-.297.25-.207.375-.535.375-.984 0-.415-.156-.754-.469-1.016Zm21.07 2.375c-.156.262-.351.39-.578.39-.18 0-.398-.078-.656-.234a8.49 8.49 0 0 1-.922-.687c-.605.617-1.199.922-1.781.922-.555 0-.984-.145-1.297-.438-.305-.3-.453-.687-.453-1.156 0-.375.11-.692.328-.953.219-.258.547-.524.984-.797-.492-.614-.734-1.156-.734-1.625 0-.313.066-.57.203-.781a1.32 1.32 0 0 1 .563-.485c.226-.113.472-.172.734-.172.238 0 .461.047.672.14.219.095.39.235.516.423.125.18.187.386.187.625 0 .355-.125.668-.375.937-.242.262-.59.543-1.047.844a14.9 14.9 0 0 0 1.64 1.766c.24-.375.427-.703.563-.985.133-.289.203-.55.203-.781a.751.751 0 0 0-.218-.547h1.172c-.137.149-.34.524-.61 1.125-.187.43-.469.902-.844 1.422.032.023.082.063.157.125.3.242.562.43.78.563.227.136.446.203.657.203.063 0 .164-.04.313-.125a1.182 1.182 0 0 1-.157.28Zm-3.671-5.734c-.305 0-.528.09-.672.265a.966.966 0 0 0-.22.64c0 .22.071.47.22.75.144.282.316.548.515.798.375-.227.64-.453.797-.672a1.35 1.35 0 0 0 .235-.781c0-.333-.09-.583-.266-.75a.844.844 0 0 0-.61-.25Zm-.516 3.03c-.313.188-.547.387-.703.595a1.136 1.136 0 0 0-.219.703c0 .242.063.464.188.672.125.21.289.375.5.5.207.125.43.187.671.187.258 0 .485-.055.672-.172a3.7 3.7 0 0 0 .657-.547 17.667 17.667 0 0 1-.938-.937c-.312-.352-.59-.688-.828-1Zm23.344 2.438c-.23.188-.528.344-.89.469a3.41 3.41 0 0 1-1.11.188 3.16 3.16 0 0 1-1.547-.391 2.974 2.974 0 0 1-1.156-1.11c-.293-.488-.438-1.062-.438-1.718 0-.602.129-1.149.39-1.64.27-.49.65-.868 1.141-1.141.5-.27 1.082-.407 1.75-.407.696 0 1.317.153 1.86.453v1a1.984 1.984 0 0 0-.813-.78 2.242 2.242 0 0 0-1.125-.298c-.511 0-.953.121-1.328.36-.375.242-.664.57-.86.984a3.245 3.245 0 0 0-.296 1.406c0 .586.11 1.09.328 1.516.227.43.535.762.922 1 .383.23.812.344 1.281.344.77 0 1.399-.223 1.89-.672Zm8.604-2.562c.27 0 .503-.063.703-.188.207-.133.363-.304.468-.515a1.35 1.35 0 0 0 .172-.657 1.5 1.5 0 0 0-.156-.656 1.117 1.117 0 0 0-.453-.5 1.38 1.38 0 0 0-.75-.203h-.766v5c0 .242.032.422.094.547.063.125.129.21.203.25.07.031.11.039.11.031h-1.438c0 .008.035-.004.11-.047a.496.496 0 0 0 .187-.234c.062-.125.094-.305.094-.547v-4.5c0-.25-.032-.437-.094-.562a.53.53 0 0 0-.188-.25c-.074-.051-.109-.067-.109-.047h1.781c.469 0 .852.078 1.157.234.3.148.52.344.656.594a1.596 1.596 0 0 1 .031 1.5 1.85 1.85 0 0 1-.5.61c-.21.167-.453.28-.734.343l-.141.031 1.578 2.016c.207.23.38.406.516.531.144.125.25.211.312.25.063.043.098.07.11.078h-1.047l-2.453-3.11Zm9.175 3.109c0 .02.035.008.11-.031.07-.05.132-.145.187-.281.062-.133.094-.332.094-.594v-4.406c0-.25-.032-.438-.094-.563-.055-.133-.117-.223-.188-.265-.074-.051-.11-.067-.11-.047h3.25v.89c-.105-.351-.429-.531-.968-.531h-1.25v2.547h1.547a.908.908 0 0 0 .313-.047.677.677 0 0 0 .187-.125l.078-.078v.875a.79.79 0 0 0-.078-.094.593.593 0 0 0-.187-.11.706.706 0 0 0-.297-.062h-1.563v2.563h1.406c.27 0 .5-.051.688-.156.195-.114.336-.258.422-.438l-.156.953Zm11.3-2.407-.578 1.438c-.094.22-.14.403-.14.547 0 .2.085.34.265.422h-1.282c.063 0 .149-.055.266-.172.113-.125.242-.363.39-.718l2.344-5.594 2.344 5.625c.125.324.25.547.375.672.125.117.223.18.297.187h-1.5c.145-.07.219-.18.219-.328 0-.125-.047-.305-.14-.547l-.626-1.531Zm2.094-.358-.985-2.407-.969 2.407Zm8.928-3.063a1.3 1.3 0 0 0-.656.156.793.793 0 0 0-.375.375l.125-.89h4.265l.125.89a.829.829 0 0 0-.375-.375 1.315 1.315 0 0 0-.656-.156h-.906v4.984c0 .243.031.43.094.563.062.125.129.21.203.25.07.039.11.05.11.031h-1.438c0 .02.035.008.109-.031.07-.04.133-.125.188-.25.062-.125.093-.313.093-.563v-4.984Zm9.813 5.828c0 .02.035.008.11-.031.07-.05.132-.145.187-.281.062-.133.094-.332.094-.594v-4.406c0-.25-.032-.438-.094-.563-.055-.133-.117-.223-.188-.265-.074-.051-.109-.067-.109-.047h3.25v.89c-.106-.351-.43-.531-.969-.531h-1.25v2.547h1.547a.908.908 0 0 0 .313-.047.677.677 0 0 0 .187-.125l.078-.078v.875a.79.79 0 0 0-.078-.094.593.593 0 0 0-.187-.11.706.706 0 0 0-.297-.062h-1.563v2.563h1.406c.27 0 .5-.051.688-.156.195-.114.336-.258.422-.438l-.156.953Zm-90.304 36.362c0 .273-.07.516-.203.734-.125.22-.313.391-.563.516-.25.125-.539.187-.86.187-.21 0-.429-.02-.656-.062v1.578c0 .188.02.328.063.422a.6.6 0 0 0 .156.203c.063.031.094.04.094.031h-1.14c0 .008.023 0 .077-.03a.454.454 0 0 0 .157-.204c.05-.094.078-.234.078-.422v-3.61c0-.195-.027-.343-.078-.437-.043-.101-.094-.172-.157-.203-.054-.039-.078-.055-.078-.047h1.422c.239 0 .438.016.594.047.156.031.297.078.422.14.219.106.383.266.5.485.113.211.172.434.172.672Zm-.563.094c0-.344-.105-.617-.312-.828-.211-.22-.492-.329-.844-.329h-.563v2.157c.208.043.426.062.657.062.332 0 .593-.097.781-.297.187-.195.281-.453.281-.765Zm5.584 1.093c0-.507.102-.96.313-1.359.219-.394.523-.703.922-.922a2.773 2.773 0 0 1 1.375-.344c.437 0 .843.102 1.218.297a2.2 2.2 0 0 1 .907.86c.226.375.343.828.343 1.36 0 .51-.109.964-.328 1.358a2.39 2.39 0 0 1-.922.938c-.398.219-.855.328-1.375.328-.43 0-.836-.094-1.218-.281a2.28 2.28 0 0 1-.907-.86c-.218-.382-.328-.843-.328-1.375Zm4.5 0c0-.437-.09-.832-.265-1.187a2.053 2.053 0 0 0-.75-.828 1.969 1.969 0 0 0-1.063-.297 1.68 1.68 0 0 0-.953.281c-.281.18-.508.434-.672.766a2.704 2.704 0 0 0-.234 1.156c0 .438.086.836.265 1.188.188.355.438.632.75.828a1.93 1.93 0 0 0 1.063.297c.363 0 .687-.086.969-.266.28-.188.5-.445.656-.781.156-.332.234-.719.234-1.157Zm7.311-.078c.219 0 .406-.047.563-.14a1.02 1.02 0 0 0 .375-.407 1.094 1.094 0 0 0 .016-1.047 1.09 1.09 0 0 0-.376-.406.99.99 0 0 0-.594-.172h-.609v4.016c0 .188.02.336.063.438.05.093.101.156.156.187.062.031.094.04.094.031h-1.141c0 .008.023 0 .078-.03a.454.454 0 0 0 .156-.204c.051-.094.078-.234.078-.422v-3.61c0-.195-.027-.347-.078-.452-.043-.102-.093-.172-.156-.204-.055-.039-.078-.05-.078-.03h1.422c.375 0 .68.062.922.187.25.117.425.273.53.468.114.2.173.415.173.641 0 .188-.047.375-.14.563a1.396 1.396 0 0 1-.407.484c-.168.137-.36.23-.578.281l-.125.016 1.281 1.625c.164.187.3.336.406.437.114.094.196.164.25.203a.31.31 0 0 0 .094.047h-.844l-1.968-2.5Zm7.79-2.172c-.21 0-.386.043-.53.125a.781.781 0 0 0-.298.313l.11-.719h3.406l.11.719a.774.774 0 0 0-.313-.313.988.988 0 0 0-.516-.125h-.719v4c0 .2.02.352.063.454.05.093.101.156.156.187.063.031.094.04.094.031h-1.14c0 .008.023 0 .077-.03.063-.032.114-.095.157-.188a1.32 1.32 0 0 0 .062-.454v-4Zm8.676 0v2.047h1.25c.176 0 .297-.023.36-.078.062-.05.093-.094.093-.125v.703c0-.007-.016-.03-.047-.062a.344.344 0 0 0-.125-.094.653.653 0 0 0-.281-.047h-1.25v1.656c0 .188.02.336.062.438a.6.6 0 0 0 .156.203c.063.031.094.04.094.031h-1.14c0 .008.023 0 .078-.03a.454.454 0 0 0 .156-.204c.05-.094.078-.238.078-.438v-3.578c0-.195-.027-.347-.078-.453a.487.487 0 0 0-.156-.219c-.055-.039-.078-.05-.078-.03h2.609v.734a.553.553 0 0 0-.203-.313c-.106-.094-.262-.14-.469-.14Zm6.928 2.25c0-.507.101-.96.312-1.359.22-.394.524-.703.922-.922a2.773 2.773 0 0 1 1.375-.344c.438 0 .844.102 1.219.297a2.2 2.2 0 0 1 .906.86c.227.375.344.828.344 1.36 0 .51-.11.964-.328 1.358a2.39 2.39 0 0 1-.922.938c-.398.219-.855.328-1.375.328-.43 0-.836-.094-1.219-.281a2.28 2.28 0 0 1-.906-.86c-.219-.382-.328-.843-.328-1.375Zm4.5 0c0-.437-.09-.832-.266-1.187a2.053 2.053 0 0 0-.75-.828 1.969 1.969 0 0 0-1.062-.297c-.356 0-.672.094-.953.281-.282.18-.508.434-.672.766a2.704 2.704 0 0 0-.235 1.156c0 .438.086.836.266 1.188.188.355.438.632.75.828a1.93 1.93 0 0 0 1.063.297c.363 0 .687-.086.968-.266.282-.188.5-.445.657-.781.156-.332.234-.719.234-1.157Zm6.17-1.859c0-.195-.027-.344-.078-.437-.043-.102-.094-.172-.156-.204-.055-.03-.079-.039-.079-.03h1.141c0-.009-.031 0-.094.03a.486.486 0 0 0-.156.204c-.043.093-.062.242-.062.437v4h1.187c.219 0 .406-.039.563-.125a.763.763 0 0 0 .328-.36l-.125.766h-2.782c0 .008.024 0 .079-.03a.446.446 0 0 0 .156-.22c.05-.101.078-.257.078-.468Zm7.656 4.281c0 .008.024 0 .079-.03a.454.454 0 0 0 .156-.204c.05-.094.078-.238.078-.438v-3.609c0-.195-.027-.344-.078-.437-.043-.102-.094-.172-.156-.204-.055-.03-.079-.039-.079-.03h1.141c0-.009-.031 0-.094.03a.486.486 0 0 0-.156.204c-.043.093-.062.242-.062.437v3.61c0 .199.02.343.062.437a.6.6 0 0 0 .156.203c.063.031.094.04.094.031Zm6.431-2.422c0-.507.102-.96.312-1.359.22-.394.524-.703.922-.922a2.773 2.773 0 0 1 1.375-.344c.438 0 .844.102 1.22.297a2.2 2.2 0 0 1 .905.86c.227.375.344.828.344 1.36 0 .51-.11.964-.328 1.358a2.39 2.39 0 0 1-.922.938c-.398.219-.855.328-1.375.328-.43 0-.836-.094-1.219-.281a2.28 2.28 0 0 1-.906-.86c-.219-.382-.328-.843-.328-1.375Zm4.5 0c0-.437-.09-.832-.266-1.187a2.053 2.053 0 0 0-.75-.828 1.969 1.969 0 0 0-1.062-.297c-.356 0-.672.094-.953.281-.282.18-.508.434-.672.766a2.704 2.704 0 0 0-.235 1.156c0 .438.086.836.266 1.188.188.355.438.632.75.828a1.93 1.93 0 0 0 1.063.297c.363 0 .687-.086.968-.266.282-.188.5-.445.657-.781.156-.332.234-.719.234-1.157ZM169.755 144.61l-4.532-5.047v3.718c0 .48.067.82.203 1.016.133.188.258.293.375.313h-2.218c.113-.02.242-.125.39-.313.145-.187.22-.523.22-1.016v-7.25c0-.488-.071-.82-.204-1-.137-.187-.273-.296-.406-.328h2.218c-.117.024-.242.125-.375.313-.136.18-.203.515-.203 1.015v3.5l3.422-3.406c.54-.55.813-.926.813-1.125 0-.176-.063-.273-.188-.297h2.25c-.148.024-.387.125-.719.313-.335.18-.761.527-1.28 1.047l-3.22 3.203 3.641 3.953c.438.512.781.86 1.031 1.047.258.187.442.305.547.344Zm13.855-3.844-.922 2.281c-.148.367-.219.664-.219.89 0 .313.14.54.422.673h-2.047c.094 0 .227-.094.407-.282.187-.195.398-.578.64-1.14l3.75-8.953 3.735 8.984c.218.523.421.883.609 1.078.195.188.351.293.469.313h-2.391c.238-.114.36-.29.36-.532 0-.195-.075-.484-.22-.859l-1.015-2.453Zm3.344-.594-1.563-3.844-1.547 3.844Zm22.67-5.469c-.137.024-.274.125-.407.313-.125.187-.187.523-.187 1v9l-7.375-8.61v6.907c0 .46.082.781.25.968.164.188.32.297.469.329h-2.032c.133-.032.27-.141.407-.329.144-.187.218-.515.218-.984v-7.203c0-.32-.11-.617-.328-.89-.219-.27-.5-.438-.844-.5h1.797l6.75 7.874v-6.562c0-.738-.25-1.176-.75-1.313Zm12.721 6.063-.922 2.281c-.148.367-.219.664-.219.89 0 .313.14.54.422.673h-2.047c.094 0 .227-.094.407-.282.187-.195.398-.578.64-1.14l3.75-8.953 3.735 8.984c.218.523.421.883.609 1.078.195.188.351.293.469.313h-2.39c.237-.114.358-.29.358-.532 0-.195-.074-.484-.218-.859l-1.016-2.453Zm3.344-.594-1.563-3.844-1.547 3.844Zm14.013-4.141c0-.375-.047-.66-.14-.859-.094-.195-.2-.328-.313-.39-.117-.07-.172-.098-.172-.079h2.297c0-.02-.058.008-.172.078-.117.063-.226.196-.328.391-.094.2-.14.484-.14.86v8h2.375c.425 0 .796-.086 1.109-.266a1.58 1.58 0 0 0 .672-.688l-.266 1.532h-5.547c0 .03.055.007.172-.063.114-.07.219-.219.313-.437.093-.22.14-.532.14-.938Zm15.016 3.735c0-1.02.22-1.926.657-2.719a4.593 4.593 0 0 1 1.843-1.86c.79-.437 1.707-.656 2.75-.656.864 0 1.672.188 2.422.563.75.375 1.352.945 1.813 1.703.457.762.687 1.672.687 2.734 0 1.024-.219 1.934-.656 2.735a4.715 4.715 0 0 1-1.844 1.86c-.793.437-1.71.655-2.75.655a5.333 5.333 0 0 1-2.422-.562 4.491 4.491 0 0 1-1.812-1.703c-.461-.758-.688-1.676-.688-2.75Zm9.016-.016c0-.875-.184-1.66-.547-2.36a4.074 4.074 0 0 0-1.484-1.655 3.786 3.786 0 0 0-2.11-.61c-.73 0-1.375.184-1.937.547-.555.367-.992.887-1.313 1.563-.312.668-.468 1.437-.468 2.312 0 .875.175 1.668.53 2.375.364.711.86 1.262 1.485 1.656a3.909 3.909 0 0 0 2.125.594c.719 0 1.36-.18 1.922-.547.563-.363 1-.879 1.313-1.547.32-.664.484-1.441.484-2.328Zm16.528 5.016c-.907 0-1.75-.192-2.532-.578a4.489 4.489 0 0 1-1.875-1.719c-.468-.77-.703-1.707-.703-2.813 0-.976.223-1.859.672-2.64a4.683 4.683 0 0 1 1.89-1.828c.813-.438 1.743-.657 2.798-.657.675 0 1.285.079 1.828.235.539.148.968.312 1.28.5v1.594c-.292-.52-.733-.938-1.327-1.25-.594-.32-1.2-.485-1.813-.485-.855 0-1.601.184-2.234.547a3.54 3.54 0 0 0-1.438 1.531c-.335.668-.5 1.446-.5 2.328 0 .98.192 1.813.579 2.5.382.688.898 1.211 1.546 1.563a4.412 4.412 0 0 0 2.11.516c.344 0 .695-.04 1.062-.125a4.4 4.4 0 0 0 1.032-.36v-2.375c0-.289-.047-.52-.141-.687a.998.998 0 0 0-.313-.375c-.117-.07-.171-.098-.171-.078h2.296c0-.02-.058 0-.171.062a.848.848 0 0 0-.313.328c-.094.156-.14.383-.14.672v2.61a6.124 6.124 0 0 1-1.657.734 6.512 6.512 0 0 1-1.765.25Zm14.373-5c0-1.02.219-1.926.656-2.719a4.593 4.593 0 0 1 1.844-1.86c.79-.437 1.707-.656 2.75-.656.863 0 1.672.188 2.422.563.75.375 1.351.945 1.812 1.703.457.762.688 1.672.688 2.734 0 1.024-.219 1.934-.656 2.735a4.715 4.715 0 0 1-1.844 1.86c-.793.437-1.711.655-2.75.655a5.333 5.333 0 0 1-2.422-.562 4.491 4.491 0 0 1-1.813-1.703c-.46-.758-.687-1.676-.687-2.75Zm9.016-.016c0-.875-.184-1.66-.547-2.36a4.074 4.074 0 0 0-1.485-1.655 3.786 3.786 0 0 0-2.109-.61c-.73 0-1.375.184-1.938.547-.554.367-.992.887-1.312 1.563-.313.668-.469 1.437-.469 2.312 0 .875.176 1.668.531 2.375.364.711.86 1.262 1.485 1.656a3.909 3.909 0 0 0 2.125.594c.719 0 1.36-.18 1.922-.547.562-.363 1-.879 1.312-1.547.32-.664.485-1.441.485-2.328Zm0 0"/><g clip-path="url(#a)"><path d="M130.438 129.488c-.223.524-.563.864-.887 1.192-1.875 1.906-3.754 3.812-5.68 5.668-1.933 1.87-3.762 3.851-5.672 5.742-2.191 2.172-3.992 4.695-6.258 6.793-.203.191-.43.586-.718.316-.266-.25.054-.562.246-.765 1.347-1.438 2.691-2.88 4.078-4.282 2.148-2.18 4.289-4.367 6.367-6.617 1.344-1.46 2.813-2.808 4.238-4.191 1.16-1.13 2.344-2.235 3.52-3.348.2-.187.379-.418.766-.508Zm-67.149 2.383c1.07 1.121 2.145 2.238 3.211 3.36 3.863 4.062 8.04 7.8 11.973 11.789a19.52 19.52 0 0 0 2.351 2.039c.137.097.309.246.473.086.191-.188.02-.372-.106-.504-.343-.371-.687-.758-1.074-1.086-4.562-3.813-8.457-8.32-12.836-12.328-1.36-1.25-2.652-2.57-4.176-3.743-.007.23.102.305.184.387Zm80.285 31.691c-2.562-.078-5.125-.183-7.691-.23-2.531-.047-5.059.102-7.582.297-2.317.18-4.637.11-6.957.148-1.16.02-2.32.07-3.477.121-.195.008-.52-.054-.531.2-.02.316.344.238.535.265.664.086 1.336.051 2-.011 2.98-.27 5.961-.332 8.953-.274 4.848.094 9.7-.133 14.547-.219.207-.004.426.02.621-.148-.133-.149-.277-.14-.418-.149Zm-47.492-48.406a103.51 103.51 0 0 0-.16 6.031c.008 4.02.312 8.032.351 12.051.028 2.875-.101 5.746-.21 8.617-.012.317-.051.637.093.938.047.098.102.195.227.187.125-.007.176-.109.195-.214.031-.137.055-.282.055-.418.039-1.657.09-3.313.097-4.97.012-2.733-.125-5.464-.207-8.194-.09-3.067-.062-6.133-.101-9.2-.024-1.777.023-3.558-.172-5.398-.164.219-.156.398-.168.57Zm40.273 32.79c-5.261 1.992-10.523 3.972-15.777 5.98-1.41.543-2.789 1.176-4.176 1.773-.199.086-.496.176-.379.473.11.281.364.105.551.05.707-.214 1.41-.44 2.09-.73 5.531-2.36 11.125-4.558 16.711-6.785.71-.285 1.41-.602 2.05-1.027-.394-.024-.73.136-1.07.265Zm-85.164 15.929c3.075.086 6.149.21 9.22.293 3.987.105 7.98.027 11.96.344a8.974 8.974 0 0 0 2.418-.117c.195-.036.48-.043.469-.325-.012-.28-.297-.285-.492-.28-1.266.026-2.528-.095-3.793-.017-1.95.125-3.907.172-5.852.043-4.07-.27-8.144-.34-12.223-.23-.668.02-1.351.016-2.007.258.101.011.199.027.3.031Zm28.047-38.266c1.469 3.149 2.785 6.36 4.125 9.559 1.16 2.781 2.258 5.586 3.395 8.375.144.36.344.695.523 1.039.067.129.164.25.328.195.184-.062.22-.226.184-.39a2.015 2.015 0 0 0-.129-.403c-.297-.68-.578-1.363-.898-2.03a108.751 108.751 0 0 1-4.407-10.466c-.765-2.12-1.59-4.222-2.777-6.156-.144-.234-.262-.5-.57-.633-.067.356.097.633.226.91Zm-21.742 23.438c3.164 1.168 6.34 2.316 9.5 3.5 2.633.988 5.168 2.215 7.77 3.285.507.207 1.02.383 1.55.512.16.039.336.035.407-.145.086-.215-.055-.328-.227-.406-.098-.047-.2-.078-.297-.11-3.12-1.038-6.18-2.23-9.21-3.519-3.509-1.488-7.044-2.93-10.716-3.988-.265-.078-.527-.2-.949-.113.762.46 1.469.726 2.172.984Zm54.715-25.477c-.52 1.118-.945 2.278-1.371 3.434-1.313 3.59-2.606 7.187-3.93 10.773-.77 2.078-1.59 4.141-2.367 6.22-.09.241-.34.644.082.776.387.122.445-.316.535-.582.48-1.453.903-2.93 1.426-4.367 1.664-4.566 3.367-9.12 5.043-13.683.371-1.02.785-2.028 1.012-3.149-.278.149-.336.375-.43.578ZM117 135.875c-1.766 2.352-3.355 4.832-5.21 7.121-.9 1.106-1.696 2.293-2.528 3.453-.168.23-.52.559-.188.82.356.274.543-.175.723-.402.336-.426.648-.879.937-1.34.989-1.562 1.961-3.14 3.125-4.578 1.477-1.824 2.825-3.738 4.16-5.66.305-.441.645-.875.723-1.45-.683.599-1.207 1.325-1.742 2.036Zm-56.719 24.066c4.227.43 8.45.875 12.645 1.575.652.109 1.312.273 1.984.207.192-.02.477-.02.461-.317-.012-.246-.262-.254-.45-.281-.831-.121-1.663-.262-2.503-.336-3.059-.277-6.102-.695-9.152-1.043-1.52-.176-3.04-.113-4.555 0 .527.07 1.05.14 1.57.195Zm66.133-19.968c-.117.078-.238.148-.348.234-1.718 1.371-3.441 2.742-5.152 4.125-1.039.84-2.05 1.715-3.102 2.547-1.226.973-2.48 1.914-3.714 2.875a5.47 5.47 0 0 0-1.016 1c-.098.133-.187.273-.047.426.14.144.293.078.434-.004.09-.055.172-.125.25-.196.644-.574 1.273-1.164 1.93-1.718 1.601-1.356 3.167-2.75 4.835-4.016a73.893 73.893 0 0 0 5.118-4.246c.32-.293.671-.555 1.011-.828l-.199-.2Zm-59.719 2.34c3.875 2.98 7.97 5.656 11.805 8.687.164.129.36.223.547.309.144.07.324.113.418-.067.101-.191-.059-.285-.192-.375-.503-.355-1.003-.71-1.515-1.054-2.824-1.91-5.442-4.114-8.274-6.012-1.015-.684-1.976-1.45-3.199-1.95.113.274.278.356.41.462Zm6.723-5.586c1.77 2.324 3.809 4.425 5.633 6.703a186.421 186.421 0 0 0 3.148 3.832c.168.203.418.605.715.324.273-.258-.121-.496-.285-.688-1.77-2.05-3.668-4-5.258-6.195a23.482 23.482 0 0 0-4.266-4.488c.055.281.211.379.313.512Zm27.105-6.848c-.078.469-.183.937-.214 1.41-.254 3.625-.758 7.215-1.348 10.797-.035.207-.04.418-.031.629.004.144.058.289.23.308.172.016.258-.109.29-.253.081-.34.179-.684.218-1.032.383-3.36.766-6.718 1.031-10.09a9.24 9.24 0 0 0-.043-1.933c-.078.094-.125.125-.133.164Zm-9.445 1.305c.2 1.68.586 3.328.832 5 .278 1.898.508 3.8.766 5.703.035.261.082.523.152.773.055.2.102.461.383.426.289-.035.246-.297.238-.504-.004-.176-.035-.348-.066-.523-.516-2.946-1.024-5.895-1.555-8.836-.152-.836-.254-1.696-.664-2.524-.168.211-.105.352-.086.485Zm-22.183 18.308a93.963 93.963 0 0 0 3.425 1.742c1.528.73 2.875 1.774 4.414 2.47.258.116.504.253.797.25.125 0 .258-.009.301-.157.04-.133-.02-.246-.129-.317-.285-.18-.558-.37-.855-.52a1569.945 1569.945 0 0 0-7.676-3.847c-.336-.164-.676-.363-1.117-.34.164.418.527.555.84.72Zm35.32-15.629c-.309 1.117-.668 2.23-.903 3.364-.39 1.882-1.07 3.695-1.308 5.609-.04.305-.25.781.16.879.488.113.496-.438.531-.742.27-2.34.97-4.586 1.477-6.871a9.92 9.92 0 0 0 .226-2.707c-.062.156-.14.308-.183.468Zm28.398 25.79c-.785.085-1.574.136-2.351.261-2.832.445-5.672.79-8.528 1.012-1.296.101-2.597.191-3.87.469-.216.046-.555.066-.52.335.039.329.375.165.57.141 1.586-.207 3.164-.46 4.754-.644 2.723-.313 5.441-.641 8.148-1.07.614-.095 1.211-.266 1.817-.403-.008-.035-.016-.066-.02-.102Zm-21.293-23.016c-.941 1.629-1.699 3.36-2.668 4.976-.597.992-1.093 2.051-1.632 3.078-.114.22-.215.446-.23.7-.009.136-.02.297.147.351.145.047.235-.066.297-.168.215-.363.434-.726.618-1.105.968-2.035 1.902-4.082 3.066-6.02.398-.656.793-1.332 1.004-2.086.031-.117.148-.277-.11-.324-.234.137-.359.371-.492.598Zm-24.34-1.332a3673.65 3673.65 0 0 0 2.25 7.64c.079.27.16.543.332.774.106.136.243.219.41.136.15-.07.173-.218.15-.363a4.689 4.689 0 0 0-.153-.613c-.801-2.55-1.758-5.047-2.668-7.559-.07-.187-.098-.418-.332-.515-.125.18-.035.34.011.5Zm-6.671 3.246c1.289 1.957 2.316 4.074 3.593 6.039.285.441.61.86.926 1.281.098.129.242.246.406.137.164-.106.125-.281.051-.43a3.798 3.798 0 0 0-.293-.5c-1.418-2.082-2.734-4.23-4.043-6.379-.277-.457-.625-.84-1.133-1.297.121.52.29.848.493 1.149Zm-13.403 17.898c-.054.207.176.238.305.29.277.116.559.222.848.284 1.703.368 3.375.844 5.039 1.36.703.219 1.43.363 2.152.52.21.042.496.1.57-.208.082-.324-.191-.422-.425-.5a4.557 4.557 0 0 0-.72-.164 38.455 38.455 0 0 1-5.136-1.16c-.742-.223-1.488-.426-2.289-.52-.094.06-.3-.074-.344.098Zm58.66.57c-.101 0-.21-.011-.312.004-2.117.32-4.234.645-6.352.973-.625.098-1.257.168-1.843.43-.184.082-.454.164-.375.43.078.269.351.187.546.152 1.942-.32 3.875-.684 5.782-1.184.86-.222 1.715-.469 2.57-.703a.912.912 0 0 0-.016-.101Zm-3.683-7.246c-1.992.997-3.985 1.989-5.969 3-.344.176-.652.418-.969.637-.132.09-.27.211-.183.39.101.212.293.141.457.083.101-.031.195-.082.289-.13 2.242-1.058 4.328-2.39 6.445-3.675.172-.101.371-.2.422-.441-.195-.067-.34.058-.492.136Zm-57.828 6.079c-.004.335.207.511.535.52.285.007.472-.138.472-.438 0-.34-.226-.489-.523-.543-.297.023-.48.172-.484.46Zm2.203-8.579c-.285.008-.469.188-.461.473.012.305.207.484.516.484.296 0 .433-.187.457-.488-.036-.293-.207-.476-.512-.469Zm38.812-16.539c-.277.004-.433.22-.457.485-.023.3.13.52.442.527.289.008.425-.191.457-.488-.035-.254-.106-.528-.442-.524Zm25.446 24.645c-.297.02-.504.176-.496.492.011.3.218.43.496.414.297-.015.484-.176.5-.512-.047-.27-.22-.414-.5-.394Zm-24.586-27.316c-.325.023-.493.246-.493.566.004.266.172.422.434.418.328-.008.434-.238.45-.559-.028-.21-.098-.445-.391-.425Zm18.71 20.445c0-.27-.171-.422-.437-.418-.281.004-.48.156-.465.453.016.266.211.383.469.398.254-.035.434-.164.434-.433Zm-39.238-17.7c-.004.262.125.45.395.47.285.019.465-.137.488-.43.02-.293-.14-.453-.441-.508-.258.035-.434.176-.442.469Zm-7.074 5.106c.012.293.188.45.473.445.246 0 .386-.16.379-.406-.008-.289-.188-.433-.465-.457-.242.04-.395.168-.387.418Zm49.129 20.566c0 .243.148.395.395.399.261.004.43-.145.445-.406.02-.262-.164-.356-.399-.391-.253.012-.437.121-.441.398Zm-65.46-1.617c-.247.02-.388.168-.368.418.02.25.195.36.434.36.246-.004.386-.137.402-.387-.043-.27-.2-.414-.469-.39Zm64.366-7.906c-.265.004-.433.152-.422.43.012.226.176.343.395.336.25-.008.375-.16.402-.399-.027-.23-.148-.37-.375-.367Zm-39.972-14.414c-.246.008-.38.164-.375.41.004.227.14.356.363.36.246 0 .383-.141.418-.407-.035-.21-.152-.375-.406-.363Zm26.18 1.55c-.223 0-.368.118-.383.348-.016.23.109.38.332.395.246.016.378-.14.421-.399-.027-.203-.14-.347-.37-.343Zm0 0"/><path d="M130.438 129.488c-.223.524-.563.864-.887 1.192-1.875 1.906-3.754 3.812-5.68 5.668-1.933 1.87-3.762 3.851-5.672 5.742-2.191 2.172-3.992 4.695-6.258 6.793-.203.191-.43.586-.718.316-.266-.25.054-.562.246-.765 1.347-1.438 2.691-2.88 4.078-4.282 2.148-2.18 4.289-4.367 6.367-6.617 1.344-1.46 2.813-2.808 4.238-4.191 1.16-1.13 2.344-2.235 3.52-3.348.2-.187.379-.418.766-.508Zm-67.149 2.383c1.07 1.121 2.145 2.238 3.211 3.36 3.863 4.062 8.04 7.8 11.973 11.789a19.52 19.52 0 0 0 2.351 2.039c.137.097.309.246.473.086.191-.188.02-.372-.106-.504-.343-.371-.687-.758-1.074-1.086-4.562-3.813-8.457-8.32-12.836-12.328-1.36-1.25-2.652-2.57-4.176-3.743-.007.23.102.305.184.387Zm80.285 31.691c-2.562-.078-5.125-.183-7.691-.23-2.531-.047-5.059.102-7.582.297-2.317.18-4.637.11-6.957.148-1.16.02-2.32.07-3.477.121-.195.008-.52-.054-.531.2-.02.316.344.238.535.265.664.086 1.336.051 2-.011 2.98-.27 5.961-.332 8.953-.274 4.848.094 9.7-.133 14.547-.219.207-.004.426.02.621-.148-.133-.149-.277-.14-.418-.149Zm-47.492-48.406a103.51 103.51 0 0 0-.16 6.031c.008 4.02.312 8.032.351 12.051.028 2.875-.101 5.746-.21 8.617-.012.317-.051.637.093.938.047.098.102.195.227.187.125-.007.176-.109.195-.214.031-.137.055-.282.055-.418.039-1.657.09-3.313.097-4.97.012-2.733-.125-5.464-.207-8.194-.09-3.067-.062-6.133-.101-9.2-.024-1.777.023-3.558-.172-5.398-.164.219-.156.398-.168.57Zm40.273 32.79c-5.261 1.992-10.523 3.972-15.777 5.98-1.41.543-2.789 1.176-4.176 1.773-.199.086-.496.176-.379.473.11.281.364.105.551.05.707-.214 1.41-.44 2.09-.73 5.531-2.36 11.125-4.558 16.711-6.785.71-.285 1.41-.602 2.05-1.027-.394-.024-.73.136-1.07.265Zm-85.164 15.929c3.075.086 6.149.21 9.22.293 3.987.105 7.98.027 11.96.344a8.974 8.974 0 0 0 2.418-.117c.195-.036.48-.043.469-.325-.012-.28-.297-.285-.492-.28-1.266.026-2.528-.095-3.793-.017-1.95.125-3.907.172-5.852.043-4.07-.27-8.144-.34-12.223-.23-.668.02-1.351.016-2.007.258.101.011.199.027.3.031Zm28.047-38.266c1.469 3.149 2.785 6.36 4.125 9.559 1.16 2.781 2.258 5.586 3.395 8.375.144.36.344.695.523 1.039.067.129.164.25.328.195.184-.062.22-.226.184-.39a2.015 2.015 0 0 0-.129-.403c-.297-.68-.578-1.363-.898-2.03a108.751 108.751 0 0 1-4.407-10.466c-.765-2.12-1.59-4.222-2.777-6.156-.144-.234-.262-.5-.57-.633-.067.356.097.633.226.91Zm-21.742 23.438c3.164 1.168 6.34 2.316 9.5 3.5 2.633.988 5.168 2.215 7.77 3.285.507.207 1.02.383 1.55.512.16.039.336.035.407-.145.086-.215-.055-.328-.227-.406-.098-.047-.2-.078-.297-.11-3.12-1.038-6.18-2.23-9.21-3.519-3.509-1.488-7.044-2.93-10.716-3.988-.265-.078-.527-.2-.949-.113.762.46 1.469.726 2.172.984Zm54.715-25.477c-.52 1.118-.945 2.278-1.371 3.434-1.313 3.59-2.606 7.187-3.93 10.773-.77 2.078-1.59 4.141-2.367 6.22-.09.241-.34.644.082.776.387.122.445-.316.535-.582.48-1.453.903-2.93 1.426-4.367 1.664-4.566 3.367-9.12 5.043-13.683.371-1.02.785-2.028 1.012-3.149-.278.149-.336.375-.43.578ZM117 135.875c-1.766 2.352-3.355 4.832-5.21 7.121-.9 1.106-1.696 2.293-2.528 3.453-.168.23-.52.559-.188.82.356.274.543-.175.723-.402.336-.426.648-.879.937-1.34.989-1.562 1.961-3.14 3.125-4.578 1.477-1.824 2.825-3.738 4.16-5.66.305-.441.645-.875.723-1.45-.683.599-1.207 1.325-1.742 2.036Zm-56.719 24.066c4.227.43 8.45.875 12.645 1.575.652.109 1.312.273 1.984.207.192-.02.477-.02.461-.317-.012-.246-.262-.254-.45-.281-.831-.121-1.663-.262-2.503-.336-3.059-.277-6.102-.695-9.152-1.043-1.52-.176-3.04-.113-4.555 0 .527.07 1.05.14 1.57.195Zm66.133-19.968c-.117.078-.238.148-.348.234-1.718 1.371-3.441 2.742-5.152 4.125-1.039.84-2.05 1.715-3.102 2.547-1.226.973-2.48 1.914-3.714 2.875a5.47 5.47 0 0 0-1.016 1c-.098.133-.187.273-.047.426.14.144.293.078.434-.004.09-.055.172-.125.25-.196.644-.574 1.273-1.164 1.93-1.718 1.601-1.356 3.167-2.75 4.835-4.016a73.893 73.893 0 0 0 5.118-4.246c.32-.293.671-.555 1.011-.828l-.199-.2Zm-59.719 2.34c3.875 2.98 7.97 5.656 11.805 8.687.164.129.36.223.547.309.144.07.324.113.418-.067.101-.191-.059-.285-.192-.375-.503-.355-1.003-.71-1.515-1.054-2.824-1.91-5.442-4.114-8.274-6.012-1.015-.684-1.976-1.45-3.199-1.95.113.274.278.356.41.462Zm6.723-5.586c1.77 2.324 3.809 4.425 5.633 6.703a186.421 186.421 0 0 0 3.148 3.832c.168.203.418.605.715.324.273-.258-.121-.496-.285-.688-1.77-2.05-3.668-4-5.258-6.195a23.482 23.482 0 0 0-4.266-4.488c.055.281.211.379.313.512Zm27.105-6.848c-.078.469-.183.937-.214 1.41-.254 3.625-.758 7.215-1.348 10.797-.035.207-.04.418-.031.629.004.144.058.289.23.308.172.016.258-.109.29-.253.081-.34.179-.684.218-1.032.383-3.36.766-6.718 1.031-10.09a9.24 9.24 0 0 0-.043-1.933c-.078.094-.125.125-.133.164Zm-9.445 1.305c.2 1.68.586 3.328.832 5 .278 1.898.508 3.8.766 5.703.035.261.082.523.152.773.055.2.102.461.383.426.289-.035.246-.297.238-.504-.004-.176-.035-.348-.066-.523-.516-2.946-1.024-5.895-1.555-8.836-.152-.836-.254-1.696-.664-2.524-.168.211-.105.352-.086.485Zm-22.183 18.308a93.963 93.963 0 0 0 3.425 1.742c1.528.73 2.875 1.774 4.414 2.47.258.116.504.253.797.25.125 0 .258-.009.301-.157.04-.133-.02-.246-.129-.317-.285-.18-.558-.37-.855-.52a1569.945 1569.945 0 0 0-7.676-3.847c-.336-.164-.676-.363-1.117-.34.164.418.527.555.84.72Zm35.32-15.629c-.309 1.117-.668 2.23-.903 3.364-.39 1.882-1.07 3.695-1.308 5.609-.04.305-.25.781.16.879.488.113.496-.438.531-.742.27-2.34.97-4.586 1.477-6.871a9.92 9.92 0 0 0 .226-2.707c-.062.156-.14.308-.183.468Zm28.398 25.79c-.785.085-1.574.136-2.351.261-2.832.445-5.672.79-8.528 1.012-1.296.101-2.597.191-3.87.469-.216.046-.555.066-.52.335.039.329.375.165.57.141 1.586-.207 3.164-.46 4.754-.644 2.723-.313 5.441-.641 8.148-1.07.614-.095 1.211-.266 1.817-.403-.008-.035-.016-.066-.02-.102Zm-21.293-23.016c-.941 1.629-1.699 3.36-2.668 4.976-.597.992-1.093 2.051-1.632 3.078-.114.22-.215.446-.23.7-.009.136-.02.297.147.351.145.047.235-.066.297-.168.215-.363.434-.726.618-1.105.968-2.035 1.902-4.082 3.066-6.02.398-.656.793-1.332 1.004-2.086.031-.117.148-.277-.11-.324-.234.137-.359.371-.492.598Zm-24.34-1.332a3673.65 3673.65 0 0 0 2.25 7.64c.079.27.16.543.332.774.106.136.243.219.41.136.15-.07.173-.218.15-.363a4.689 4.689 0 0 0-.153-.613c-.801-2.55-1.758-5.047-2.668-7.559-.07-.187-.098-.418-.332-.515-.125.18-.035.34.011.5Zm-6.671 3.246c1.289 1.957 2.316 4.074 3.593 6.039.285.441.61.86.926 1.281.098.129.242.246.406.137.164-.106.125-.281.051-.43a3.798 3.798 0 0 0-.293-.5c-1.418-2.082-2.734-4.23-4.043-6.379-.277-.457-.625-.84-1.133-1.297.121.52.29.848.493 1.149Zm-13.403 17.898c-.054.207.176.238.305.29.277.116.559.222.848.284 1.703.368 3.375.844 5.039 1.36.703.219 1.43.363 2.152.52.21.042.496.1.57-.208.082-.324-.191-.422-.425-.5a4.557 4.557 0 0 0-.72-.164 38.455 38.455 0 0 1-5.136-1.16c-.742-.223-1.488-.426-2.289-.52-.094.06-.3-.074-.344.098Zm58.66.57c-.101 0-.21-.011-.312.004-2.117.32-4.234.645-6.352.973-.625.098-1.257.168-1.843.43-.184.082-.454.164-.375.43.078.269.351.187.546.152 1.942-.32 3.875-.684 5.782-1.184.86-.222 1.715-.469 2.57-.703a.912.912 0 0 0-.016-.101Zm-3.683-7.246c-1.992.997-3.985 1.989-5.969 3-.344.176-.652.418-.969.637-.132.09-.27.211-.183.39.101.212.293.141.457.083.101-.031.195-.082.289-.13 2.242-1.058 4.328-2.39 6.445-3.675.172-.101.371-.2.422-.441-.195-.067-.34.058-.492.136Zm-57.828 6.079c-.004.335.207.511.535.52.285.007.472-.138.472-.438 0-.34-.226-.489-.523-.543-.297.023-.48.172-.484.46Zm2.203-8.579c-.285.008-.469.188-.461.473.012.305.207.484.516.484.296 0 .433-.187.457-.488-.036-.293-.207-.476-.512-.469Zm38.812-16.539c-.277.004-.433.22-.457.485-.023.3.13.52.442.527.289.008.425-.191.457-.488-.035-.254-.106-.528-.442-.524Zm25.446 24.645c-.297.02-.504.176-.496.492.011.3.218.43.496.414.297-.015.484-.176.5-.512-.047-.27-.22-.414-.5-.394Zm-24.586-27.316c-.325.023-.493.246-.493.566.004.266.172.422.434.418.328-.008.434-.238.45-.559-.028-.21-.098-.445-.391-.425Zm18.71 20.445c0-.27-.171-.422-.437-.418-.281.004-.48.156-.465.453.016.266.211.383.469.398.254-.035.434-.164.434-.433Zm-39.238-17.7c-.004.262.125.45.395.47.285.019.465-.137.488-.43.02-.293-.14-.453-.441-.508-.258.035-.434.176-.442.469Zm-7.074 5.106c.012.293.188.45.473.445.246 0 .386-.16.379-.406-.008-.289-.188-.433-.465-.457-.242.04-.395.168-.387.418Zm49.129 20.566c0 .243.148.395.395.399.261.004.43-.145.445-.406.02-.262-.164-.356-.399-.391-.253.012-.437.121-.441.398Zm-65.46-1.617c-.247.02-.388.168-.368.418.02.25.195.36.434.36.246-.004.386-.137.402-.387-.043-.27-.2-.414-.469-.39Zm64.366-7.906c-.265.004-.433.152-.422.43.012.226.176.343.395.336.25-.008.375-.16.402-.399-.027-.23-.148-.37-.375-.367Zm-39.972-14.414c-.246.008-.38.164-.375.41.004.227.14.356.363.36.246 0 .383-.141.418-.407-.035-.21-.152-.375-.406-.363Zm26.18 1.55c-.223 0-.368.118-.383.348-.016.23.109.38.332.395.246.016.378-.14.421-.399-.027-.203-.14-.347-.37-.343Zm0 0"/></g></svg>