<svg xmlns="http://www.w3.org/2000/svg" width="500" viewBox="0 0 375 375" height="500" version="1.0"><defs><clipPath id="a"><path d="M0 91.426h135.473v72.644H0Zm0 0"/></clipPath></defs><path d="M188.465 94.584c.102-.312.156-.555.156-.734 0-.352-.156-.547-.468-.578h2.03c-.136.03-.308.136-.515.312-.2.168-.387.508-.562 1.016l-2.828 8-2.516-7.25-2.61 7.25-2.578-8.032c-.23-.738-.562-1.171-1-1.296h2.172c-.242.054-.36.199-.36.437 0 .125.052.344.157.656l.14.453 1.657 5.47 2.656-7.25 2.516 7.187Zm10.56 7.703c0 .031.05.016.156-.047.102-.07.195-.207.281-.406.082-.195.125-.484.125-.86v-6.421c0-.363-.043-.64-.125-.828-.086-.188-.18-.313-.281-.375-.106-.07-.156-.098-.156-.078h4.75v1.312c-.157-.52-.633-.781-1.422-.781h-1.813v3.719h2.25c.164 0 .313-.024.438-.079a1.09 1.09 0 0 0 .281-.187l.11-.11v1.266a.662.662 0 0 0-.11-.11.918.918 0 0 0-.281-.171.885.885 0 0 0-.422-.094h-2.266v3.719h2.032c.394 0 .734-.078 1.015-.234a1.42 1.42 0 0 0 .61-.625l-.235 1.39Zm18.921-.219c-.23.075-.493.133-.782.172-.293.032-.699.047-1.218.047h-2.157c.114-.031.235-.129.36-.297.132-.164.203-.492.203-.984v-6.484c0-.457-.063-.77-.188-.938-.117-.164-.234-.27-.36-.312h2.142c.562 0 .988.027 1.28.078.29.054.548.125.766.218.383.18.68.434.891.766.207.336.313.695.313 1.078 0 .586-.18 1.09-.532 1.516-.355.418-.82.687-1.39.812.394.043.77.157 1.125.344.351.188.64.438.859.75.219.313.328.668.328 1.063 0 .562-.152 1.023-.453 1.375-.293.355-.687.62-1.187.796Zm-.375-7.875a1.81 1.81 0 0 0-.563-.28c-.2-.071-.469-.11-.812-.11h-.891v3.719h1.047c.32 0 .586-.047.797-.141.207-.094.39-.223.547-.39.164-.157.296-.352.39-.594.094-.239.14-.477.14-.72 0-.3-.058-.581-.171-.843a1.515 1.515 0 0 0-.484-.64Zm.28 4.235a1.632 1.632 0 0 0-.624-.297c-.242-.063-.57-.094-.985-.094h-.937v3.719h1.234c.633 0 1.125-.145 1.469-.438.352-.3.531-.773.531-1.421 0-.594-.23-1.082-.687-1.47Zm30.651 3.453c-.23.375-.516.562-.86.562-.25 0-.562-.117-.937-.343-.367-.227-.82-.563-1.36-1-.874.898-1.741 1.343-2.593 1.343-.805 0-1.43-.21-1.875-.64-.437-.426-.656-.985-.656-1.672 0-.55.156-1.016.469-1.39.32-.376.796-.766 1.421-1.173-.699-.882-1.046-1.671-1.046-2.359 0-.445.097-.828.296-1.14.208-.313.477-.547.813-.704.332-.164.687-.25 1.062-.25.344 0 .672.075.985.22a1.8 1.8 0 0 1 .75.593c.187.262.281.574.281.937 0 .5-.183.95-.547 1.344-.355.387-.867.797-1.531 1.234.8 1 1.594 1.86 2.375 2.579a13.81 13.81 0 0 0 .828-1.454c.195-.414.297-.789.297-1.125 0-.32-.105-.582-.313-.78h1.704c-.2.198-.496.741-.891 1.624-.273.617-.684 1.305-1.234 2.063.05.031.129.093.234.187.437.344.816.621 1.14.828.333.2.645.297.938.297.094 0 .242-.066.453-.203-.054.149-.12.29-.203.422Zm-5.36-8.36c-.437 0-.761.137-.968.407a1.43 1.43 0 0 0-.313.922c0 .324.102.687.313 1.093.219.407.469.793.75 1.157.54-.332.926-.66 1.156-.985a1.9 1.9 0 0 0 .344-1.125c0-.476-.133-.843-.39-1.093a1.217 1.217 0 0 0-.891-.375Zm-.75 4.422c-.448.282-.78.575-1 .875a1.654 1.654 0 0 0-.327 1.016c0 .344.086.672.265.984.176.305.414.547.719.735.312.18.64.265.984.265.375 0 .696-.082.97-.25.269-.175.593-.445.968-.812-.45-.406-.902-.86-1.36-1.36-.46-.507-.867-.992-1.218-1.453Zm33.944 3.547c-.336.274-.766.5-1.297.688a5.109 5.109 0 0 1-1.61.265c-.812 0-1.57-.187-2.265-.562a4.319 4.319 0 0 1-1.687-1.625c-.418-.707-.625-1.535-.625-2.484 0-.895.19-1.692.578-2.391a4.098 4.098 0 0 1 1.656-1.656c.719-.407 1.562-.61 2.531-.61 1.02 0 1.926.227 2.719.672v1.453a2.96 2.96 0 0 0-1.188-1.14 3.354 3.354 0 0 0-1.64-.422c-.742 0-1.387.18-1.938.531-.543.344-.96.82-1.25 1.422-.281.605-.422 1.281-.422 2.031 0 .844.16 1.586.485 2.219.332.625.773 1.11 1.328 1.453.562.336 1.187.5 1.875.5 1.101 0 2.02-.32 2.75-.969Zm12.49-3.734c.395 0 .738-.094 1.031-.281.301-.188.532-.43.688-.735.156-.3.234-.617.234-.953a2.19 2.19 0 0 0-.219-.953 1.784 1.784 0 0 0-.671-.734c-.293-.196-.653-.297-1.079-.297h-1.109v7.281c0 .344.04.61.125.797.082.18.176.297.281.36.102.05.157.066.157.046h-2.079c0 .02.051 0 .157-.062.101-.063.195-.18.28-.36.083-.175.126-.437.126-.78v-6.548c0-.351-.043-.625-.125-.812-.086-.188-.18-.313-.281-.375-.106-.07-.157-.098-.157-.078h2.594c.688 0 1.25.117 1.688.343.437.22.754.508.953.86.195.355.297.742.297 1.156 0 .355-.086.7-.25 1.031a2.602 2.602 0 0 1-.72.875 2.56 2.56 0 0 1-1.077.516l-.203.047 2.297 2.937c.312.336.566.594.765.781.195.18.344.297.438.36.093.062.144.101.156.11h-1.531l-3.563-4.532Zm13.328 4.531c0 .031.05.016.156-.047.102-.07.196-.207.282-.406.082-.195.125-.484.125-.86v-6.421c0-.363-.043-.64-.125-.828-.086-.188-.18-.313-.282-.375-.105-.07-.156-.098-.156-.078h4.75v1.312c-.156-.52-.633-.781-1.422-.781h-1.812v3.719h2.25c.164 0 .312-.024.437-.079a1.09 1.09 0 0 0 .282-.187l.109-.11v1.266a.662.662 0 0 0-.11-.11.918.918 0 0 0-.28-.171.885.885 0 0 0-.423-.094h-2.265v3.719h2.031c.395 0 .734-.078 1.016-.234.289-.164.492-.375.609-.625l-.234 1.39Zm16.421-3.5-.844 2.078c-.125.336-.187.606-.187.813 0 .281.129.484.39.61h-1.875c.082 0 .207-.087.375-.266.164-.176.36-.52.578-1.032l3.422-8.125 3.391 8.172c.187.469.367.793.547.969.187.168.332.262.437.281h-2.172c.22-.101.329-.265.329-.484 0-.188-.075-.445-.22-.781l-.921-2.235Zm3.047-.531-1.422-3.5-1.406 3.5Zm12.984-4.453c-.387 0-.703.074-.953.219a1.37 1.37 0 0 0-.547.562l.172-1.312h6.218l.172 1.312a1.397 1.397 0 0 0-.547-.562c-.25-.145-.57-.22-.953-.22h-1.312v7.266c0 .356.039.625.125.813.093.18.191.297.297.36.101.062.156.077.156.046h-2.078c0 .031.05.016.156-.047.101-.062.195-.18.281-.359.082-.188.125-.457.125-.813v-7.265Zm14.25 8.484c0 .031.051.016.157-.047.101-.07.195-.207.28-.406.083-.195.126-.484.126-.86v-6.421c0-.363-.043-.64-.125-.828-.086-.188-.18-.313-.281-.375-.106-.07-.157-.098-.157-.078h4.75v1.312c-.156-.52-.633-.781-1.422-.781h-1.812v3.719h2.25c.164 0 .312-.024.437-.079a1.09 1.09 0 0 0 .282-.187l.109-.11v1.266a.662.662 0 0 0-.11-.11.918.918 0 0 0-.28-.171.885.885 0 0 0-.422-.094h-2.266v3.719h2.031c.395 0 .735-.078 1.016-.234.289-.164.492-.375.61-.625l-.235 1.39Zm-131.234 52.841c0 .406-.102.765-.297 1.078a2.052 2.052 0 0 1-.813.75c-.355.18-.777.265-1.265.265a5.08 5.08 0 0 1-.938-.093v2.28c0 .274.031.481.094.626.07.148.148.246.234.297.082.043.125.054.125.047h-1.656c0 .007.039-.004.125-.047a.625.625 0 0 0 .219-.281c.07-.145.109-.36.109-.641v-5.234c0-.282-.039-.493-.11-.641a.66.66 0 0 0-.218-.297c-.086-.05-.125-.07-.125-.062h2.047c.351 0 .644.027.875.078.238.043.441.105.61.187.32.168.566.403.734.703.164.305.25.633.25.985Zm-.813.125c0-.489-.156-.883-.469-1.188-.304-.312-.71-.469-1.218-.469h-.813v3.125c.3.063.613.094.938.094.488 0 .867-.14 1.14-.422.281-.289.422-.672.422-1.14Zm8.099 1.609c0-.738.157-1.394.469-1.969a3.44 3.44 0 0 1 1.344-1.36c.57-.32 1.238-.483 2-.483.625 0 1.207.14 1.75.421.55.274.992.684 1.328 1.235.332.554.5 1.215.5 1.984 0 .742-.164 1.403-.484 1.985a3.322 3.322 0 0 1-1.344 1.343c-.574.325-1.235.485-1.985.485a3.918 3.918 0 0 1-1.765-.407 3.252 3.252 0 0 1-1.313-1.25c-.336-.55-.5-1.21-.5-1.984Zm6.547-.016c0-.632-.133-1.207-.39-1.718a3.066 3.066 0 0 0-1.079-1.203 2.855 2.855 0 0 0-1.546-.438c-.524 0-.985.137-1.391.406-.406.262-.73.637-.969 1.125-.23.48-.344 1.043-.344 1.688 0 .637.13 1.21.391 1.719.27.511.629.914 1.078 1.203.457.293.973.437 1.547.437.531 0 1-.129 1.406-.39.407-.27.723-.645.953-1.125.227-.489.344-1.055.344-1.704Zm10.63-.093c.312 0 .586-.07.828-.22.238-.155.414-.35.531-.593.125-.238.188-.488.188-.75 0-.27-.059-.523-.172-.765a1.37 1.37 0 0 0-.531-.594c-.23-.156-.516-.235-.86-.235h-.89v5.813c0 .281.03.496.093.64.07.149.149.243.235.282.082.043.125.054.125.047h-1.657c0 .007.04-.004.125-.047a.625.625 0 0 0 .22-.281c.07-.145.109-.36.109-.641v-5.234c0-.282-.04-.493-.11-.641-.062-.156-.137-.258-.219-.313-.085-.05-.125-.066-.125-.046h2.079c.539 0 .988.09 1.343.265.352.18.61.406.766.688.156.28.234.593.234.937 0 .274-.07.543-.203.813a2.04 2.04 0 0 1-.578.703c-.242.199-.527.34-.86.422l-.171.03 1.844 2.345c.25.273.453.48.609.625.164.148.285.246.36.297l.124.078h-1.218l-2.86-3.625Zm11.322-3.157c-.305 0-.559.063-.766.188a1.12 1.12 0 0 0-.437.437l.14-1.046h4.969l.14 1.046a1.025 1.025 0 0 0-.437-.437c-.2-.125-.453-.188-.765-.188h-1.047v5.813c0 .273.035.484.109.64.07.149.148.247.234.297.082.04.125.051.125.032h-1.671c0 .02.039.007.125-.032.082-.05.156-.148.218-.296.07-.145.11-.36.11-.641v-5.813Zm12.61 0v2.97h1.812c.258 0 .43-.036.516-.11.082-.082.125-.145.125-.188v1.016c0-.02-.016-.05-.047-.094a.528.528 0 0 0-.188-.125.871.871 0 0 0-.406-.078h-1.812v2.422c0 .273.03.48.093.625a.67.67 0 0 0 .235.281c.082.055.125.07.125.063h-1.656c0 .007.039-.004.125-.047.082-.051.156-.149.218-.297.07-.145.11-.352.11-.625v-5.203c0-.29-.04-.508-.11-.656-.062-.157-.136-.258-.218-.313-.086-.062-.125-.082-.125-.062h3.78v1.062c-.03-.164-.132-.312-.296-.437-.156-.133-.383-.204-.672-.204Zm10.054 3.266c0-.738.157-1.394.47-1.969a3.438 3.438 0 0 1 1.343-1.36c.57-.32 1.238-.483 2-.483.625 0 1.207.14 1.75.421.55.274.992.684 1.328 1.235.332.554.5 1.215.5 1.984 0 .742-.164 1.403-.484 1.985a3.322 3.322 0 0 1-1.344 1.343c-.574.325-1.234.485-1.984.485a3.918 3.918 0 0 1-1.766-.407 3.252 3.252 0 0 1-1.313-1.25c-.336-.55-.5-1.21-.5-1.984Zm6.547-.016c0-.632-.133-1.207-.39-1.718a3.066 3.066 0 0 0-1.078-1.203 2.855 2.855 0 0 0-1.547-.438c-.524 0-.985.137-1.391.406-.406.262-.73.637-.969 1.125-.23.48-.343 1.043-.343 1.688 0 .637.128 1.21.39 1.719.27.511.63.914 1.078 1.203.457.293.973.437 1.547.437.531 0 1-.129 1.406-.39.407-.27.723-.645.954-1.125.226-.489.343-1.055.343-1.704Zm8.974-2.703c0-.27-.04-.476-.11-.625-.062-.144-.136-.238-.218-.281-.086-.05-.125-.07-.125-.062h1.656c0-.008-.043.011-.125.062-.086.043-.164.137-.235.281-.062.149-.093.356-.093.625v5.813h1.718c.313 0 .582-.063.813-.188.226-.133.39-.3.484-.5l-.187 1.11h-4.031c0 .02.039.004.125-.047.082-.051.156-.156.218-.313.07-.156.11-.383.11-.687Zm11.112 6.235c0 .02.04.004.125-.047.082-.051.16-.149.235-.297.07-.145.109-.352.109-.625v-5.266c0-.27-.04-.476-.11-.625-.062-.144-.136-.238-.218-.281-.086-.05-.125-.07-.125-.062h1.656c0-.008-.043.011-.125.062-.086.043-.164.137-.234.281-.063.149-.094.356-.094.625v5.266c0 .273.031.48.094.625.07.148.148.246.234.297.082.043.125.054.125.047Zm9.347-3.516c0-.738.156-1.394.469-1.969a3.44 3.44 0 0 1 1.344-1.36c.57-.32 1.238-.483 2-.483.625 0 1.207.14 1.75.421.55.274.992.684 1.328 1.235.332.554.5 1.215.5 1.984 0 .742-.164 1.403-.485 1.985a3.322 3.322 0 0 1-1.343 1.343c-.575.325-1.235.485-1.985.485a3.918 3.918 0 0 1-1.765-.407 3.252 3.252 0 0 1-1.313-1.25c-.336-.55-.5-1.21-.5-1.984Zm6.547-.016c0-.632-.133-1.207-.39-1.718a3.066 3.066 0 0 0-1.079-1.203 2.855 2.855 0 0 0-1.547-.438c-.523 0-.984.137-1.39.406-.407.262-.73.637-.97 1.125-.23.48-.343 1.043-.343 1.688 0 .637.13 1.21.39 1.719.27.511.63.914 1.079 1.203.457.293.973.437 1.547.437.531 0 1-.129 1.406-.39.406-.27.723-.645.953-1.125.227-.489.344-1.055.344-1.704Zm-145.773-21.783-6.578-7.328v5.406c0 .7.097 1.187.297 1.469.195.273.379.422.546.453h-3.234c.164-.031.352-.18.563-.453.218-.27.328-.758.328-1.469V122.61c0-.719-.102-1.207-.297-1.469-.2-.27-.399-.43-.594-.484h3.234c-.167.03-.351.183-.546.453-.2.273-.297.773-.297 1.5v5.062l4.968-4.937c.79-.801 1.188-1.348 1.188-1.64 0-.25-.102-.395-.297-.438h3.297c-.23.03-.586.183-1.063.453-.48.273-1.101.781-1.859 1.531l-4.687 4.656 5.296 5.75c.645.742 1.149 1.25 1.516 1.531.375.274.64.434.797.485Zm20.128-5.593-1.344 3.327c-.211.524-.313.95-.313 1.281 0 .461.207.79.625.985h-3c.145 0 .348-.14.61-.422.27-.281.578-.832.922-1.656l5.468-13 5.422 13.062c.313.762.61 1.281.89 1.563.282.273.509.422.688.453h-3.484c.352-.164.531-.426.531-.781 0-.29-.117-.707-.343-1.25l-1.47-3.563Zm4.875-.86-2.282-5.578-2.234 5.578Zm32.942-7.953c-.199.043-.39.199-.578.468-.187.274-.28.75-.28 1.438v13.094l-10.72-12.5v10.015c0 .68.114 1.153.344 1.422.238.274.473.43.703.469h-2.953c.196-.04.395-.195.594-.469.207-.27.312-.75.312-1.437v-10.47c0-.468-.164-.898-.484-1.296a2.036 2.036 0 0 0-1.219-.734h2.594l9.828 11.453v-9.547c0-1.07-.367-1.707-1.094-1.906Zm18.477 8.813-1.344 3.327c-.211.524-.313.95-.313 1.281 0 .461.207.79.625.985h-3c.145 0 .348-.14.61-.422.27-.281.578-.832.922-1.656l5.468-13 5.422 13.062c.313.762.61 1.281.89 1.563.282.273.509.422.688.453h-3.484c.352-.164.531-.426.531-.781 0-.29-.117-.707-.344-1.25l-1.468-3.563Zm4.875-.86-2.282-5.578-2.234 5.578Zm20.364-6c0-.563-.07-.985-.203-1.266-.136-.289-.289-.484-.453-.578-.168-.102-.25-.14-.25-.11h3.328c0-.03-.086.008-.25.11-.168.094-.324.289-.468.578-.137.281-.204.703-.204 1.266v11.61h3.438c.625 0 1.16-.126 1.61-.376.456-.258.784-.594.984-1l-.375 2.219h-8.063c0 .039.082.008.25-.094.164-.101.317-.312.453-.625.133-.312.203-.77.203-1.375Zm21.819 5.422c0-1.477.317-2.797.953-3.954a6.668 6.668 0 0 1 2.672-2.703c1.156-.644 2.488-.968 4-.968a7.71 7.71 0 0 1 3.516.828c1.094.554 1.972 1.383 2.64 2.484.665 1.106 1 2.43 1 3.969 0 1.48-.32 2.805-.953 3.969a6.778 6.778 0 0 1-2.687 2.703c-1.149.636-2.477.953-3.985.953a7.69 7.69 0 0 1-3.53-.828c-1.095-.551-1.977-1.375-2.641-2.469-.657-1.102-.985-2.43-.985-3.984Zm13.11-.032c0-1.27-.266-2.414-.797-3.437-.524-1.02-1.242-1.82-2.157-2.406-.906-.582-1.933-.875-3.078-.875-1.054 0-1.992.265-2.812.796-.813.532-1.45 1.282-1.906 2.25-.461.97-.688 2.102-.688 3.391 0 1.274.258 2.422.781 3.453.52 1.024 1.239 1.824 2.157 2.406.914.575 1.945.86 3.093.86 1.04 0 1.97-.266 2.782-.797.82-.531 1.46-1.281 1.921-2.25.47-.969.704-2.098.704-3.39Zm24.009 7.297c-1.324 0-2.555-.273-3.688-.828-1.125-.562-2.03-1.398-2.718-2.516-.68-1.125-1.016-2.488-1.016-4.093 0-1.426.32-2.703.969-3.828a6.784 6.784 0 0 1 2.734-2.657c1.188-.644 2.547-.968 4.078-.968.977 0 1.86.117 2.64.343.79.22 1.423.461 1.891.72v2.327c-.437-.75-1.09-1.351-1.953-1.812-.855-.469-1.726-.703-2.61-.703-1.25 0-2.335.265-3.25.796a5.242 5.242 0 0 0-2.093 2.235c-.492.96-.734 2.086-.734 3.375 0 1.418.281 2.633.844 3.64.562 1 1.312 1.75 2.25 2.25a6.4 6.4 0 0 0 3.062.75c.5 0 1.016-.054 1.547-.171a7.688 7.688 0 0 0 1.516-.516v-3.453c0-.438-.075-.774-.22-1.016-.136-.25-.288-.426-.452-.531-.168-.102-.25-.14-.25-.11h3.343c0-.03-.086-.003-.25.079-.168.086-.324.246-.468.484-.137.23-.203.555-.203.969v3.812a9.58 9.58 0 0 1-2.407 1.063c-.855.238-1.71.36-2.562.36Zm20.892-7.265c0-1.477.317-2.797.954-3.954a6.668 6.668 0 0 1 2.671-2.703c1.157-.644 2.489-.968 4-.968a7.71 7.71 0 0 1 3.516.828c1.094.554 1.973 1.383 2.64 2.484.665 1.106 1 2.43 1 3.969 0 1.48-.32 2.805-.952 3.969a6.778 6.778 0 0 1-2.688 2.703c-1.148.636-2.477.953-3.984.953a7.69 7.69 0 0 1-3.532-.828c-1.093-.551-1.976-1.375-2.64-2.469-.656-1.102-.985-2.43-.985-3.984Zm13.11-.032c0-1.27-.266-2.414-.797-3.437-.524-1.02-1.242-1.82-2.156-2.406-.907-.582-1.934-.875-3.078-.875-1.055 0-1.993.265-2.813.796-.812.532-1.45 1.282-1.906 2.25-.461.97-.688 2.102-.688 3.391 0 1.274.258 2.422.782 3.453.52 1.024 1.238 1.824 2.156 2.406.914.575 1.945.86 3.094.86 1.039 0 1.968-.266 2.78-.797.821-.531 1.462-1.281 1.923-2.25.468-.969.703-2.098.703-3.39Zm0 0"/><g clip-path="url(#a)"><path d="M115.68 113.09c-.32.758-.813 1.25-1.285 1.73-2.727 2.77-5.454 5.54-8.25 8.239-2.817 2.714-5.47 5.593-8.25 8.343-3.184 3.153-5.801 6.825-9.094 9.875-.297.274-.621.852-1.043.457-.383-.363.082-.82.355-1.117 1.961-2.09 3.914-4.183 5.926-6.222 3.125-3.165 6.238-6.34 9.254-9.614 1.957-2.12 4.09-4.082 6.16-6.094 1.692-1.636 3.406-3.246 5.113-4.859.293-.277.551-.613 1.114-.738Zm-97.586 3.46c1.554 1.63 3.117 3.25 4.672 4.884 5.609 5.902 11.68 11.332 17.394 17.129a28.788 28.788 0 0 0 3.422 2.964c.195.145.445.36.684.13.28-.274.027-.54-.149-.731-.504-.547-1-1.11-1.566-1.582-6.633-5.54-12.293-12.094-18.653-17.918-1.976-1.813-3.855-3.739-6.07-5.442-.012.34.149.446.266.567Zm116.68 46.06c-3.723-.118-7.45-.27-11.176-.337-3.68-.07-7.352.149-11.02.434-3.367.258-6.742.152-10.11.211-1.687.031-3.37.102-5.054.176-.285.011-.754-.074-.773.289-.024.465.5.351.78.387.966.128 1.938.074 2.907-.012 4.328-.395 8.66-.488 13.008-.403 7.05.141 14.098-.187 21.144-.316.301-.004.618.027.903-.219-.196-.21-.406-.203-.61-.21Zm-69.02-70.348a148.848 148.848 0 0 0-.23 8.758c.007 5.843.453 11.675.507 17.515.04 4.18-.148 8.352-.304 12.528-.02.457-.075.921.136 1.359.067.144.145.281.328.273.18-.011.254-.16.286-.312.043-.2.074-.406.078-.61.054-2.406.129-4.812.14-7.218.016-3.973-.18-7.942-.297-11.91-.136-4.454-.097-8.915-.152-13.368-.031-2.586.04-5.175-.25-7.851-.234.324-.226.582-.242.836Zm58.531 47.648c-7.648 2.895-15.297 5.774-22.93 8.695-2.05.786-4.05 1.704-6.07 2.575-.289.125-.719.254-.55.683.16.41.53.157.8.075 1.028-.31 2.047-.641 3.04-1.063 8.034-3.426 16.167-6.617 24.28-9.86 1.036-.413 2.051-.874 2.985-1.492-.574-.03-1.059.2-1.555.387ZM.512 163.06c4.468.129 8.933.308 13.402.43 5.793.152 11.594.034 17.379.5a13.13 13.13 0 0 0 3.516-.173c.28-.054.695-.066.68-.472-.016-.406-.43-.414-.712-.406-1.84.039-3.68-.137-5.52-.024-2.827.18-5.671.25-8.495.063a188.578 188.578 0 0 0-17.77-.332c-.969.027-1.96.023-2.914.37.145.016.29.04.434.044Zm40.765-55.61c2.13 4.574 4.047 9.239 5.993 13.895 1.687 4.039 3.285 8.117 4.933 12.172.211.52.496 1.007.758 1.507.098.184.238.364.48.282.262-.09.317-.325.266-.57a3.064 3.064 0 0 0-.187-.583c-.43-.984-.84-1.98-1.31-2.949a158.64 158.64 0 0 1-6.401-15.207c-1.114-3.086-2.309-6.14-4.032-8.95-.21-.339-.386-.726-.832-.917-.097.516.145.918.332 1.32ZM9.676 141.512c4.601 1.699 9.215 3.367 13.804 5.086 3.832 1.433 7.516 3.222 11.297 4.773.735.3 1.48.559 2.254.742.23.059.485.055.59-.21.125-.305-.082-.477-.336-.59-.137-.063-.285-.11-.43-.157-4.535-1.508-8.98-3.242-13.382-5.113-5.102-2.168-10.235-4.258-15.57-5.8-.391-.11-.77-.29-1.383-.161 1.109.672 2.132 1.055 3.156 1.43Zm79.52-37.028c-.758 1.63-1.376 3.313-1.993 4.996-1.91 5.211-3.785 10.442-5.71 15.649-1.118 3.027-2.313 6.023-3.438 9.043-.133.351-.496.933.113 1.125.562.18.648-.453.777-.84.7-2.113 1.317-4.258 2.078-6.348 2.415-6.64 4.891-13.257 7.325-19.886.543-1.48 1.144-2.95 1.472-4.578-.406.214-.488.546-.625.84Zm6.956 17.887c-2.562 3.418-4.875 7.024-7.57 10.344-1.309 1.613-2.465 3.336-3.672 5.02-.242.34-.758.816-.273 1.19.515.403.789-.253 1.047-.581.488-.621.941-1.278 1.367-1.946 1.433-2.273 2.851-4.566 4.539-6.656 2.144-2.652 4.105-5.43 6.047-8.226.441-.637.937-1.27 1.047-2.106-.993.867-1.754 1.926-2.532 2.961Zm-82.425 34.973c6.14.625 12.28 1.273 18.375 2.289.949.16 1.906.394 2.882.3.278-.027.692-.027.672-.46-.02-.356-.383-.371-.652-.407-1.211-.175-2.422-.382-3.64-.492-4.446-.402-8.868-1.008-13.305-1.515-2.207-.254-4.41-.164-6.618.004.77.101 1.528.203 2.286.28Zm96.105-29.02c-.168.113-.344.215-.5.34-2.5 1.996-5 3.988-7.488 5.996-1.512 1.223-2.985 2.492-4.508 3.703-1.781 1.414-3.606 2.778-5.402 4.176-.543.426-1.055.895-1.473 1.453-.14.192-.277.399-.066.617.199.211.421.118.625-.007.132-.079.25-.176.367-.278.933-.836 1.847-1.695 2.804-2.504 2.325-1.965 4.606-3.992 7.028-5.832 2.57-1.953 5.05-3.996 7.433-6.172.47-.425.98-.804 1.473-1.203l-.293-.289Zm-86.785 3.403c5.629 4.328 11.582 8.218 17.156 12.625.234.187.52.32.793.449.211.097.469.16.61-.102.148-.277-.09-.414-.278-.547-.734-.511-1.46-1.027-2.203-1.527-4.105-2.777-7.906-5.977-12.023-8.738-1.477-.992-2.88-2.102-4.653-2.832.164.398.403.52.598.672Zm9.765-8.122c2.575 3.38 5.54 6.43 8.188 9.747a298.544 298.544 0 0 0 4.578 5.566c.246.293.606.879 1.035.473.399-.38-.168-.723-.41-1-2.574-2.98-5.328-5.813-7.64-9.004-1.758-2.426-3.778-4.555-6.204-6.52.082.403.309.543.453.738Zm39.395-9.949c-.11.68-.266 1.36-.312 2.047-.368 5.266-1.098 10.484-1.957 15.692a4.75 4.75 0 0 0-.047.914c.007.21.09.421.34.445.246.027.37-.152.417-.363.122-.496.262-.993.317-1.5.558-4.883 1.113-9.766 1.496-14.668.07-.899.07-1.805-.059-2.805-.113.137-.183.184-.195.238Zm-13.727 1.895c.293 2.441.852 4.836 1.208 7.265.406 2.758.742 5.528 1.113 8.29.05.378.125.757.226 1.124.078.286.149.672.551.622.422-.051.36-.438.352-.735-.008-.254-.055-.508-.098-.762-.75-4.28-1.488-8.566-2.262-12.843-.218-1.215-.367-2.461-.965-3.664-.242.304-.148.507-.125.703Zm-32.238 26.605c1.649.871 3.301 1.735 4.98 2.54 2.215 1.058 4.176 2.574 6.415 3.585.37.164.734.367 1.156.364.184-.004.375-.016.437-.227.06-.195-.027-.36-.187-.461-.41-.262-.813-.539-1.242-.758a1785.59 1785.59 0 0 0-11.156-5.59c-.485-.242-.985-.53-1.622-.496.239.61.766.805 1.22 1.043Zm51.332-22.715c-.449 1.63-.969 3.243-1.312 4.895-.57 2.734-1.555 5.367-1.903 8.148-.054.442-.363 1.137.235 1.278.707.164.722-.633.773-1.078.39-3.403 1.406-6.66 2.145-9.985.285-1.281.398-2.586.328-3.933-.09.226-.203.445-.266.675Zm41.27 37.48c-1.14.126-2.285.204-3.418.384a159.073 159.073 0 0 1-12.395 1.468c-1.883.149-3.77.282-5.625.684-.308.07-.804.094-.754.488.059.48.547.239.828.203 2.305-.3 4.602-.671 6.91-.933 3.958-.453 7.91-.934 11.844-1.555.887-.14 1.762-.387 2.641-.586a2.107 2.107 0 0 1-.031-.152Zm-30.946-33.444c-1.367 2.37-2.464 4.882-3.878 7.23-.868 1.445-1.586 2.98-2.372 4.477-.164.316-.308.648-.335 1.011-.012.203-.028.434.218.516.211.066.344-.098.43-.246.312-.531.633-1.055.894-1.61 1.41-2.953 2.766-5.933 4.461-8.742.579-.957 1.153-1.941 1.457-3.039.047-.168.22-.398-.16-.465-.34.196-.523.536-.715.868Zm-35.375-1.938c1.09 3.703 2.176 7.406 3.27 11.106.117.39.238.789.488 1.12.149.204.352.317.598.204.215-.102.25-.32.21-.528a7.858 7.858 0 0 0-.218-.894c-1.168-3.707-2.555-7.336-3.883-10.984-.097-.27-.136-.606-.48-.747-.18.258-.051.493.015.723Zm-9.695 4.723c1.879 2.84 3.367 5.914 5.223 8.77.418.644.886 1.253 1.347 1.866.141.184.352.356.594.2.235-.157.176-.414.074-.625a5.962 5.962 0 0 0-.43-.73c-2.062-3.024-3.972-6.145-5.874-9.27-.403-.664-.91-1.22-1.649-1.883a4.85 4.85 0 0 0 .715 1.672ZM23.352 152.27c-.079.3.257.343.445.421.398.168.812.325 1.234.414 2.473.532 4.903 1.227 7.32 1.973 1.02.317 2.079.527 3.126.754.304.066.722.152.832-.297.117-.472-.282-.617-.621-.726a6.844 6.844 0 0 0-1.043-.243 55.033 55.033 0 0 1-7.47-1.683c-1.073-.324-2.16-.617-3.323-.758-.137.09-.434-.105-.5.145Zm85.253.828c-.152 0-.304-.02-.453.004-3.078.468-6.156.937-9.234 1.418-.906.14-1.828.238-2.676.625-.27.117-.66.238-.547.625.114.386.508.27.797.218 2.82-.465 5.63-.996 8.399-1.718 1.25-.325 2.492-.684 3.738-1.024l-.024-.148Zm-5.351-10.532a1200.566 1200.566 0 0 0-8.68 4.364c-.496.254-.945.605-1.406.922-.195.132-.39.308-.266.566.145.312.422.203.664.125.145-.05.282-.125.418-.191 3.258-1.54 6.293-3.473 9.368-5.34.25-.153.543-.293.617-.64-.29-.099-.5.085-.715.194Zm-84.043 8.836c-.008.489.3.743.773.754.414.012.688-.203.688-.636 0-.497-.328-.708-.758-.786-.43.032-.7.25-.703.668Zm3.195-12.468c-.41.011-.68.273-.664.687.016.445.301.707.746.703.434 0 .633-.273.668-.707-.054-.426-.3-.695-.75-.683Zm56.414-24.036c-.406.008-.636.317-.668.704-.035.437.184.753.641.765.422.012.621-.277.668-.707-.055-.37-.156-.765-.64-.762Zm36.973 35.817c-.43.031-.73.254-.715.715.012.437.313.625.719.601.433-.027.7-.258.73-.742-.07-.394-.32-.605-.734-.574Zm-35.727-39.7c-.468.036-.718.356-.714.82.003.392.25.618.628.61.48-.007.63-.347.657-.812-.047-.309-.145-.649-.57-.617Zm27.192 29.712c-.004-.391-.25-.614-.637-.606-.406.008-.695.227-.672.656.02.387.305.555.68.582.367-.054.633-.242.629-.632Zm-57.024-25.72c-.007.38.184.65.57.68.415.032.676-.199.712-.624.03-.422-.203-.657-.641-.739-.375.051-.633.258-.64.684Zm-10.28 7.419c.01.426.273.652.683.648.36 0 .562-.238.554-.59-.011-.421-.273-.632-.675-.664-.352.055-.575.243-.563.606Zm71.401 29.89c-.003.352.211.57.567.579.387.007.625-.211.652-.59.028-.383-.242-.52-.582-.57-.367.019-.637.18-.637.581Zm-95.136-2.351c-.36.027-.567.242-.535.605.027.364.285.528.629.524.359-.004.562-.2.582-.563-.063-.39-.286-.597-.676-.566Zm93.543-11.492c-.387.004-.633.226-.614.625.02.332.254.5.575.488.363-.008.547-.23.582-.582-.04-.328-.215-.535-.543-.531Zm-58.09-20.95c-.36.016-.555.243-.547.598.004.332.203.52.531.524.356.003.551-.204.606-.594-.055-.305-.227-.543-.59-.528Zm38.043 2.258c-.32 0-.535.168-.555.508-.023.332.156.547.48.57.364.02.555-.207.618-.578-.043-.297-.203-.504-.543-.5Zm0 0"/><path d="M115.68 113.09c-.32.758-.813 1.25-1.285 1.73-2.727 2.77-5.454 5.54-8.25 8.239-2.817 2.714-5.47 5.593-8.25 8.343-3.184 3.153-5.801 6.825-9.094 9.875-.297.274-.621.852-1.043.457-.383-.363.082-.82.355-1.117 1.961-2.09 3.914-4.183 5.926-6.222 3.125-3.165 6.238-6.34 9.254-9.614 1.957-2.12 4.09-4.082 6.16-6.094 1.692-1.636 3.406-3.246 5.113-4.859.293-.277.551-.613 1.114-.738Zm-97.586 3.46c1.554 1.63 3.117 3.25 4.672 4.884 5.609 5.902 11.68 11.332 17.394 17.129a28.788 28.788 0 0 0 3.422 2.964c.195.145.445.36.684.13.28-.274.027-.54-.149-.731-.504-.547-1-1.11-1.566-1.582-6.633-5.54-12.293-12.094-18.653-17.918-1.976-1.813-3.855-3.739-6.07-5.442-.012.34.149.446.266.567Zm116.68 46.06c-3.723-.118-7.45-.27-11.176-.337-3.68-.07-7.352.149-11.02.434-3.367.258-6.742.152-10.11.211-1.687.031-3.37.102-5.054.176-.285.011-.754-.074-.773.289-.024.465.5.351.78.387.966.128 1.938.074 2.907-.012 4.328-.395 8.66-.488 13.008-.403 7.05.141 14.098-.187 21.144-.316.301-.004.618.027.903-.219-.196-.21-.406-.203-.61-.21Zm-69.02-70.348a148.848 148.848 0 0 0-.23 8.758c.007 5.843.453 11.675.507 17.515.04 4.18-.148 8.352-.304 12.528-.02.457-.075.921.136 1.359.067.144.145.281.328.273.18-.011.254-.16.286-.312.043-.2.074-.406.078-.61.054-2.406.129-4.812.14-7.218.016-3.973-.18-7.942-.297-11.91-.136-4.454-.097-8.915-.152-13.368-.031-2.586.04-5.175-.25-7.851-.234.324-.226.582-.242.836Zm58.531 47.648c-7.648 2.895-15.297 5.774-22.93 8.695-2.05.786-4.05 1.704-6.07 2.575-.289.125-.719.254-.55.683.16.41.53.157.8.075 1.028-.31 2.047-.641 3.04-1.063 8.034-3.426 16.167-6.617 24.28-9.86 1.036-.413 2.051-.874 2.985-1.492-.574-.03-1.059.2-1.555.387ZM.512 163.06c4.468.129 8.933.308 13.402.43 5.793.152 11.594.034 17.379.5a13.13 13.13 0 0 0 3.516-.173c.28-.054.695-.066.68-.472-.016-.406-.43-.414-.712-.406-1.84.039-3.68-.137-5.52-.024-2.827.18-5.671.25-8.495.063a188.578 188.578 0 0 0-17.77-.332c-.969.027-1.96.023-2.914.37.145.016.29.04.434.044Zm40.765-55.61c2.13 4.574 4.047 9.239 5.993 13.895 1.687 4.039 3.285 8.117 4.933 12.172.211.52.496 1.007.758 1.507.098.184.238.364.48.282.262-.09.317-.325.266-.57a3.064 3.064 0 0 0-.187-.583c-.43-.984-.84-1.98-1.31-2.949a158.64 158.64 0 0 1-6.401-15.207c-1.114-3.086-2.309-6.14-4.032-8.95-.21-.339-.386-.726-.832-.917-.097.516.145.918.332 1.32ZM9.676 141.512c4.601 1.699 9.215 3.367 13.804 5.086 3.832 1.433 7.516 3.222 11.297 4.773.735.3 1.48.559 2.254.742.23.059.485.055.59-.21.125-.305-.082-.477-.336-.59-.137-.063-.285-.11-.43-.157-4.535-1.508-8.98-3.242-13.382-5.113-5.102-2.168-10.235-4.258-15.57-5.8-.391-.11-.77-.29-1.383-.161 1.109.672 2.132 1.055 3.156 1.43Zm79.52-37.028c-.758 1.63-1.376 3.313-1.993 4.996-1.91 5.211-3.785 10.442-5.71 15.649-1.118 3.027-2.313 6.023-3.438 9.043-.133.351-.496.933.113 1.125.562.18.648-.453.777-.84.7-2.113 1.317-4.258 2.078-6.348 2.415-6.64 4.891-13.257 7.325-19.886.543-1.48 1.144-2.95 1.472-4.578-.406.214-.488.546-.625.84Zm6.956 17.887c-2.562 3.418-4.875 7.024-7.57 10.344-1.309 1.613-2.465 3.336-3.672 5.02-.242.34-.758.816-.273 1.19.515.403.789-.253 1.047-.581.488-.621.941-1.278 1.367-1.946 1.433-2.273 2.851-4.566 4.539-6.656 2.144-2.652 4.105-5.43 6.047-8.226.441-.637.937-1.27 1.047-2.106-.993.867-1.754 1.926-2.532 2.961Zm-82.425 34.973c6.14.625 12.28 1.273 18.375 2.289.949.16 1.906.394 2.882.3.278-.027.692-.027.672-.46-.02-.356-.383-.371-.652-.407-1.211-.175-2.422-.382-3.64-.492-4.446-.402-8.868-1.008-13.305-1.515-2.207-.254-4.41-.164-6.618.004.77.101 1.528.203 2.286.28Zm96.105-29.02c-.168.113-.344.215-.5.34-2.5 1.996-5 3.988-7.488 5.996-1.512 1.223-2.985 2.492-4.508 3.703-1.781 1.414-3.606 2.778-5.402 4.176-.543.426-1.055.895-1.473 1.453-.14.192-.277.399-.066.617.199.211.421.118.625-.007.132-.079.25-.176.367-.278.933-.836 1.847-1.695 2.804-2.504 2.325-1.965 4.606-3.992 7.028-5.832 2.57-1.953 5.05-3.996 7.433-6.172.47-.425.98-.804 1.473-1.203l-.293-.289Zm-86.785 3.403c5.629 4.328 11.582 8.218 17.156 12.625.234.187.52.32.793.449.211.097.469.16.61-.102.148-.277-.09-.414-.278-.547-.734-.511-1.46-1.027-2.203-1.527-4.105-2.777-7.906-5.977-12.023-8.738-1.477-.992-2.88-2.102-4.653-2.832.164.398.403.52.598.672Zm9.765-8.122c2.575 3.38 5.54 6.43 8.188 9.747a298.544 298.544 0 0 0 4.578 5.566c.246.293.606.879 1.035.473.399-.38-.168-.723-.41-1-2.574-2.98-5.328-5.813-7.64-9.004-1.758-2.426-3.778-4.555-6.204-6.52.082.403.309.543.453.738Zm39.395-9.949c-.11.68-.266 1.36-.312 2.047-.368 5.266-1.098 10.484-1.957 15.692a4.75 4.75 0 0 0-.047.914c.007.21.09.421.34.445.246.027.37-.152.417-.363.122-.496.262-.993.317-1.5.558-4.883 1.113-9.766 1.496-14.668.07-.899.07-1.805-.059-2.805-.113.137-.183.184-.195.238Zm-13.727 1.895c.293 2.441.852 4.836 1.208 7.265.406 2.758.742 5.528 1.113 8.29.05.378.125.757.226 1.124.078.286.149.672.551.622.422-.051.36-.438.352-.735-.008-.254-.055-.508-.098-.762-.75-4.28-1.488-8.566-2.262-12.843-.218-1.215-.367-2.461-.965-3.664-.242.304-.148.507-.125.703Zm-32.238 26.605c1.649.871 3.301 1.735 4.98 2.54 2.215 1.058 4.176 2.574 6.415 3.585.37.164.734.367 1.156.364.184-.004.375-.016.437-.227.06-.195-.027-.36-.187-.461-.41-.262-.813-.539-1.242-.758a1785.59 1785.59 0 0 0-11.156-5.59c-.485-.242-.985-.53-1.622-.496.239.61.766.805 1.22 1.043Zm51.332-22.715c-.449 1.63-.969 3.243-1.312 4.895-.57 2.734-1.555 5.367-1.903 8.148-.054.442-.363 1.137.235 1.278.707.164.722-.633.773-1.078.39-3.403 1.406-6.66 2.145-9.985.285-1.281.398-2.586.328-3.933-.09.226-.203.445-.266.675Zm41.27 37.48c-1.14.126-2.285.204-3.418.384a159.073 159.073 0 0 1-12.395 1.468c-1.883.149-3.77.282-5.625.684-.308.07-.804.094-.754.488.059.48.547.239.828.203 2.305-.3 4.602-.671 6.91-.933 3.958-.453 7.91-.934 11.844-1.555.887-.14 1.762-.387 2.641-.586a2.107 2.107 0 0 1-.031-.152Zm-30.946-33.444c-1.367 2.37-2.464 4.882-3.878 7.23-.868 1.445-1.586 2.98-2.372 4.477-.164.316-.308.648-.335 1.011-.012.203-.028.434.218.516.211.066.344-.098.43-.246.312-.531.633-1.055.894-1.61 1.41-2.953 2.766-5.933 4.461-8.742.579-.957 1.153-1.941 1.457-3.039.047-.168.22-.398-.16-.465-.34.196-.523.536-.715.868Zm-35.375-1.938c1.09 3.703 2.176 7.406 3.27 11.106.117.39.238.789.488 1.12.149.204.352.317.598.204.215-.102.25-.32.21-.528a7.858 7.858 0 0 0-.218-.894c-1.168-3.707-2.555-7.336-3.883-10.984-.097-.27-.136-.606-.48-.747-.18.258-.051.493.015.723Zm-9.695 4.723c1.879 2.84 3.367 5.914 5.223 8.77.418.644.886 1.253 1.347 1.866.141.184.352.356.594.2.235-.157.176-.414.074-.625a5.962 5.962 0 0 0-.43-.73c-2.062-3.024-3.972-6.145-5.874-9.27-.403-.664-.91-1.22-1.649-1.883a4.85 4.85 0 0 0 .715 1.672ZM23.352 152.27c-.079.3.257.343.445.421.398.168.812.325 1.234.414 2.473.532 4.903 1.227 7.32 1.973 1.02.317 2.079.527 3.126.754.304.066.722.152.832-.297.117-.472-.282-.617-.621-.726a6.844 6.844 0 0 0-1.043-.243 55.033 55.033 0 0 1-7.47-1.683c-1.073-.324-2.16-.617-3.323-.758-.137.09-.434-.105-.5.145Zm85.253.828c-.152 0-.304-.02-.453.004-3.078.468-6.156.937-9.234 1.418-.906.14-1.828.238-2.676.625-.27.117-.66.238-.547.625.114.386.508.27.797.218 2.82-.465 5.63-.996 8.399-1.718 1.25-.325 2.492-.684 3.738-1.024l-.024-.148Zm-5.351-10.532a1200.566 1200.566 0 0 0-8.68 4.364c-.496.254-.945.605-1.406.922-.195.132-.39.308-.266.566.145.312.422.203.664.125.145-.05.282-.125.418-.191 3.258-1.54 6.293-3.473 9.368-5.34.25-.153.543-.293.617-.64-.29-.099-.5.085-.715.194Zm-84.043 8.836c-.008.489.3.743.773.754.414.012.688-.203.688-.636 0-.497-.328-.708-.758-.786-.43.032-.7.25-.703.668Zm3.195-12.468c-.41.011-.68.273-.664.687.016.445.301.707.746.703.434 0 .633-.273.668-.707-.054-.426-.3-.695-.75-.683Zm56.414-24.036c-.406.008-.636.317-.668.704-.035.437.184.753.641.765.422.012.621-.277.668-.707-.055-.37-.156-.765-.64-.762Zm36.973 35.817c-.43.031-.73.254-.715.715.012.437.313.625.719.601.433-.027.7-.258.73-.742-.07-.394-.32-.605-.734-.574Zm-35.727-39.7c-.468.036-.718.356-.714.82.003.392.25.618.628.61.48-.007.63-.347.657-.812-.047-.309-.145-.649-.57-.617Zm27.192 29.712c-.004-.391-.25-.614-.637-.606-.406.008-.695.227-.672.656.02.387.305.555.68.582.367-.054.633-.242.629-.632Zm-57.024-25.72c-.007.38.184.65.57.68.415.032.676-.199.712-.624.03-.422-.203-.657-.641-.739-.375.051-.633.258-.64.684Zm-10.28 7.419c.01.426.273.652.683.648.36 0 .562-.238.554-.59-.011-.421-.273-.632-.675-.664-.352.055-.575.243-.563.606Zm71.401 29.89c-.003.352.211.57.567.579.387.007.625-.211.652-.59.028-.383-.242-.52-.582-.57-.367.019-.637.18-.637.581Zm-95.136-2.351c-.36.027-.567.242-.535.605.027.364.285.528.629.524.359-.004.562-.2.582-.563-.063-.39-.286-.597-.676-.566Zm93.543-11.492c-.387.004-.633.226-.614.625.02.332.254.5.575.488.363-.008.547-.23.582-.582-.04-.328-.215-.535-.543-.531Zm-58.09-20.95c-.36.016-.555.243-.547.598.004.332.203.52.531.524.356.003.551-.204.606-.594-.055-.305-.227-.543-.59-.528Zm38.043 2.258c-.32 0-.535.168-.555.508-.023.332.156.547.48.57.364.02.555-.207.618-.578-.043-.297-.203-.504-.543-.5Zm0 0"/></g></svg>