<svg width="323" height="163" viewBox="0 0 323 163" fill="none" xmlns="http://www.w3.org/2000/svg">
<path d="M160.718 2.9502L161.368 4.30188L162.723 3.65017L162.068 2.29701L160.718 2.9502ZM160.614 3L159.964 1.64831L160.614 4.5V3ZM161 3H162.5V1.5H161V3ZM161 78H159.5V79.5H161V78ZM321 78H322.5V76.5H321V78ZM321 79V80.5H322.5V79H321ZM161 79V77.5H159.5V79H161ZM161 161V162.5H162.5V161H161ZM160 161H158.5V162.5H160V161ZM160 79H161.5V77.5H160V79ZM5 79H3.5V80.5H5V79ZM5 78.0898H6.5V75.7001L4.3479 76.739L5 78.0898ZM3.21777 78.9502L1.86746 79.6034L2.52012 80.9526L3.86988 80.301L3.21777 78.9502ZM2.78223 78.0498L2.13034 76.6989L0.778094 77.3514L1.43191 78.703L2.78223 78.0498ZM160.282 2.0498L161.633 1.39662L160.98 0.0476071L159.63 0.698861L160.282 2.0498ZM5.18652 78L4.53464 76.6491L5.18652 79.5V78ZM160 78V79.5H161.5V78H160ZM160 3.2959H161.5V0.90658L159.348 1.94496L160 3.2959ZM160.718 2.9502L160.067 1.59851L159.964 1.64831L160.614 3L161.265 4.35169L161.368 4.30188L160.718 2.9502ZM160.614 3V4.5H161V3V1.5H160.614V3ZM161 3H159.5V78H161H162.5V3H161ZM161 78V79.5H321V78V76.5H161V78ZM321 78H319.5V79H321H322.5V78H321ZM321 79V77.5H161V79V80.5H321V79ZM161 79H159.5V161H161H162.5V79H161ZM161 161V159.5H160V161V162.5H161V161ZM160 161H161.5V79H160H158.5V161H160ZM160 79V77.5H5V79V80.5H160V79ZM5 79H6.5V78.0898H5H3.5V79H5ZM5 78.0898L4.3479 76.739L2.56567 77.5994L3.21777 78.9502L3.86988 80.301L5.6521 79.4407L5 78.0898ZM3.21777 78.9502L4.56809 78.297L4.13254 77.3966L2.78223 78.0498L1.43191 78.703L1.86746 79.6034L3.21777 78.9502ZM2.78223 78.0498L3.43411 79.4007L160.934 3.40075L160.282 2.0498L159.63 0.698861L2.13034 76.6989L2.78223 78.0498ZM160.282 2.0498L158.932 2.70299L159.367 3.60338L160.718 2.9502L162.068 2.29701L161.633 1.39662L160.282 2.0498ZM5.18652 78V79.5H160V78V76.5H5.18652V78ZM160 78H161.5V3.2959H160H158.5V78H160ZM160 3.2959L159.348 1.94496L4.53464 76.6491L5.18652 78L5.83841 79.3509L160.652 4.64684L160 3.2959Z" fill="black"/>
</svg>
