<svg xmlns="http://www.w3.org/2000/svg" xmlns:xlink="http://www.w3.org/1999/xlink" width="500" zoomAndPan="magnify" viewBox="0 0 375 374.999991" height="500" preserveAspectRatio="xMidYMid meet" version="1.0"><defs><g/><clipPath id="443a52624f"><path d="M 0 91.425781 L 135.472656 91.425781 L 135.472656 164.070312 L 0 164.070312 Z M 0 91.425781 " clip-rule="nonzero"/></clipPath></defs><g fill="#000000" fill-opacity="1"><g transform="translate(177.496262, 102.287223)"><g><path d="M 10.96875 -7.703125 C 11.070312 -8.015625 11.125 -8.257812 11.125 -8.4375 C 11.125 -8.789062 10.96875 -8.984375 10.65625 -9.015625 L 12.6875 -9.015625 C 12.550781 -8.984375 12.378906 -8.878906 12.171875 -8.703125 C 11.972656 -8.535156 11.785156 -8.195312 11.609375 -7.6875 L 8.78125 0.3125 L 6.265625 -6.9375 L 3.65625 0.3125 L 1.078125 -7.71875 C 0.847656 -8.457031 0.515625 -8.890625 0.078125 -9.015625 L 2.25 -9.015625 C 2.007812 -8.960938 1.890625 -8.816406 1.890625 -8.578125 C 1.890625 -8.453125 1.941406 -8.234375 2.046875 -7.921875 L 2.1875 -7.46875 L 3.84375 -2 L 6.5 -9.25 L 9.015625 -2.0625 Z M 10.96875 -7.703125 "/></g></g></g><g fill="#000000" fill-opacity="1"><g transform="translate(197.915336, 102.287223)"><g><path d="M 1.109375 0 C 1.109375 0.03125 1.160156 0.015625 1.265625 -0.046875 C 1.367188 -0.117188 1.460938 -0.253906 1.546875 -0.453125 C 1.628906 -0.648438 1.671875 -0.9375 1.671875 -1.3125 L 1.671875 -7.734375 C 1.671875 -8.097656 1.628906 -8.375 1.546875 -8.5625 C 1.460938 -8.75 1.367188 -8.875 1.265625 -8.9375 C 1.160156 -9.007812 1.109375 -9.035156 1.109375 -9.015625 L 5.859375 -9.015625 L 5.859375 -7.703125 C 5.703125 -8.222656 5.226562 -8.484375 4.4375 -8.484375 L 2.625 -8.484375 L 2.625 -4.765625 L 4.875 -4.765625 C 5.039062 -4.765625 5.1875 -4.789062 5.3125 -4.84375 C 5.4375 -4.90625 5.53125 -4.96875 5.59375 -5.03125 C 5.65625 -5.09375 5.691406 -5.128906 5.703125 -5.140625 L 5.703125 -3.875 C 5.691406 -3.894531 5.65625 -3.929688 5.59375 -3.984375 C 5.53125 -4.046875 5.4375 -4.101562 5.3125 -4.15625 C 5.195312 -4.21875 5.054688 -4.25 4.890625 -4.25 L 2.625 -4.25 L 2.625 -0.53125 L 4.65625 -0.53125 C 5.050781 -0.53125 5.390625 -0.609375 5.671875 -0.765625 C 5.960938 -0.929688 6.164062 -1.140625 6.28125 -1.390625 L 6.046875 0 Z M 1.109375 0 "/></g></g></g><g fill="#000000" fill-opacity="1"><g transform="translate(212.679905, 102.287223)"><g><path d="M 5.265625 -0.21875 C 5.035156 -0.144531 4.773438 -0.0859375 4.484375 -0.046875 C 4.191406 -0.015625 3.785156 0 3.265625 0 L 1.109375 0 C 1.222656 -0.03125 1.34375 -0.128906 1.46875 -0.296875 C 1.601562 -0.460938 1.671875 -0.789062 1.671875 -1.28125 L 1.671875 -7.765625 C 1.671875 -8.222656 1.609375 -8.535156 1.484375 -8.703125 C 1.367188 -8.867188 1.25 -8.972656 1.125 -9.015625 L 3.265625 -9.015625 C 3.828125 -9.015625 4.253906 -8.988281 4.546875 -8.9375 C 4.835938 -8.882812 5.09375 -8.8125 5.3125 -8.71875 C 5.695312 -8.539062 5.992188 -8.285156 6.203125 -7.953125 C 6.410156 -7.617188 6.515625 -7.257812 6.515625 -6.875 C 6.515625 -6.289062 6.335938 -5.785156 5.984375 -5.359375 C 5.628906 -4.941406 5.164062 -4.671875 4.59375 -4.546875 C 4.988281 -4.503906 5.363281 -4.390625 5.71875 -4.203125 C 6.070312 -4.015625 6.359375 -3.765625 6.578125 -3.453125 C 6.796875 -3.140625 6.90625 -2.785156 6.90625 -2.390625 C 6.90625 -1.828125 6.753906 -1.367188 6.453125 -1.015625 C 6.160156 -0.660156 5.765625 -0.394531 5.265625 -0.21875 Z M 4.890625 -8.09375 C 4.722656 -8.21875 4.535156 -8.3125 4.328125 -8.375 C 4.128906 -8.445312 3.859375 -8.484375 3.515625 -8.484375 L 2.625 -8.484375 L 2.625 -4.765625 L 3.671875 -4.765625 C 3.992188 -4.765625 4.257812 -4.8125 4.46875 -4.90625 C 4.675781 -5 4.859375 -5.128906 5.015625 -5.296875 C 5.179688 -5.453125 5.3125 -5.648438 5.40625 -5.890625 C 5.5 -6.128906 5.546875 -6.367188 5.546875 -6.609375 C 5.546875 -6.910156 5.488281 -7.191406 5.375 -7.453125 C 5.269531 -7.710938 5.109375 -7.925781 4.890625 -8.09375 Z M 5.171875 -3.859375 C 5.003906 -3.992188 4.796875 -4.09375 4.546875 -4.15625 C 4.304688 -4.21875 3.976562 -4.25 3.5625 -4.25 L 2.625 -4.25 L 2.625 -0.53125 L 3.859375 -0.53125 C 4.492188 -0.53125 4.984375 -0.675781 5.328125 -0.96875 C 5.679688 -1.269531 5.859375 -1.742188 5.859375 -2.390625 C 5.859375 -2.984375 5.628906 -3.472656 5.171875 -3.859375 Z M 5.171875 -3.859375 "/></g></g></g><g fill="#000000" fill-opacity="1"><g transform="translate(228.282178, 102.287223)"><g/></g></g><g fill="#000000" fill-opacity="1"><g transform="translate(239.486493, 102.287223)"><g><path d="M 9.015625 -0.40625 C 8.785156 -0.03125 8.5 0.15625 8.15625 0.15625 C 7.90625 0.15625 7.59375 0.0390625 7.21875 -0.1875 C 6.851562 -0.414062 6.398438 -0.75 5.859375 -1.1875 C 4.984375 -0.289062 4.117188 0.15625 3.265625 0.15625 C 2.460938 0.15625 1.835938 -0.0546875 1.390625 -0.484375 C 0.953125 -0.910156 0.734375 -1.46875 0.734375 -2.15625 C 0.734375 -2.707031 0.890625 -3.171875 1.203125 -3.546875 C 1.523438 -3.921875 2 -4.3125 2.625 -4.71875 C 1.925781 -5.601562 1.578125 -6.390625 1.578125 -7.078125 C 1.578125 -7.523438 1.675781 -7.90625 1.875 -8.21875 C 2.082031 -8.53125 2.351562 -8.765625 2.6875 -8.921875 C 3.019531 -9.085938 3.375 -9.171875 3.75 -9.171875 C 4.09375 -9.171875 4.421875 -9.097656 4.734375 -8.953125 C 5.046875 -8.816406 5.296875 -8.617188 5.484375 -8.359375 C 5.671875 -8.097656 5.765625 -7.785156 5.765625 -7.421875 C 5.765625 -6.921875 5.582031 -6.472656 5.21875 -6.078125 C 4.863281 -5.691406 4.351562 -5.28125 3.6875 -4.84375 C 4.488281 -3.84375 5.28125 -2.984375 6.0625 -2.265625 C 6.414062 -2.816406 6.691406 -3.300781 6.890625 -3.71875 C 7.085938 -4.132812 7.1875 -4.507812 7.1875 -4.84375 C 7.1875 -5.164062 7.082031 -5.425781 6.875 -5.625 L 8.578125 -5.625 C 8.378906 -5.425781 8.082031 -4.882812 7.6875 -4 C 7.414062 -3.382812 7.003906 -2.695312 6.453125 -1.9375 C 6.503906 -1.90625 6.582031 -1.84375 6.6875 -1.75 C 7.125 -1.40625 7.503906 -1.128906 7.828125 -0.921875 C 8.160156 -0.722656 8.472656 -0.625 8.765625 -0.625 C 8.859375 -0.625 9.007812 -0.691406 9.21875 -0.828125 C 9.164062 -0.679688 9.097656 -0.539062 9.015625 -0.40625 Z M 3.65625 -8.765625 C 3.21875 -8.765625 2.894531 -8.628906 2.6875 -8.359375 C 2.476562 -8.097656 2.375 -7.789062 2.375 -7.4375 C 2.375 -7.113281 2.476562 -6.75 2.6875 -6.34375 C 2.90625 -5.9375 3.15625 -5.550781 3.4375 -5.1875 C 3.976562 -5.519531 4.363281 -5.847656 4.59375 -6.171875 C 4.820312 -6.492188 4.9375 -6.867188 4.9375 -7.296875 C 4.9375 -7.773438 4.804688 -8.140625 4.546875 -8.390625 C 4.296875 -8.640625 4 -8.765625 3.65625 -8.765625 Z M 2.90625 -4.34375 C 2.457031 -4.0625 2.125 -3.769531 1.90625 -3.46875 C 1.6875 -3.175781 1.578125 -2.835938 1.578125 -2.453125 C 1.578125 -2.109375 1.664062 -1.78125 1.84375 -1.46875 C 2.019531 -1.164062 2.257812 -0.921875 2.5625 -0.734375 C 2.875 -0.554688 3.203125 -0.46875 3.546875 -0.46875 C 3.921875 -0.46875 4.242188 -0.550781 4.515625 -0.71875 C 4.785156 -0.894531 5.109375 -1.164062 5.484375 -1.53125 C 5.035156 -1.9375 4.582031 -2.390625 4.125 -2.890625 C 3.664062 -3.398438 3.257812 -3.882812 2.90625 -4.34375 Z M 2.90625 -4.34375 "/></g></g></g><g fill="#000000" fill-opacity="1"><g transform="translate(256.803443, 102.287223)"><g/></g></g><g fill="#000000" fill-opacity="1"><g transform="translate(268.007759, 102.287223)"><g><path d="M 8.328125 -0.796875 C 7.992188 -0.523438 7.5625 -0.296875 7.03125 -0.109375 C 6.5 0.0664062 5.960938 0.15625 5.421875 0.15625 C 4.609375 0.15625 3.851562 -0.03125 3.15625 -0.40625 C 2.457031 -0.78125 1.894531 -1.320312 1.46875 -2.03125 C 1.050781 -2.738281 0.84375 -3.566406 0.84375 -4.515625 C 0.84375 -5.410156 1.035156 -6.207031 1.421875 -6.90625 C 1.804688 -7.613281 2.359375 -8.164062 3.078125 -8.5625 C 3.796875 -8.96875 4.640625 -9.171875 5.609375 -9.171875 C 6.628906 -9.171875 7.535156 -8.945312 8.328125 -8.5 L 8.328125 -7.046875 C 8.054688 -7.523438 7.660156 -7.90625 7.140625 -8.1875 C 6.628906 -8.46875 6.082031 -8.609375 5.5 -8.609375 C 4.757812 -8.609375 4.113281 -8.429688 3.5625 -8.078125 C 3.019531 -7.734375 2.601562 -7.257812 2.3125 -6.65625 C 2.03125 -6.050781 1.890625 -5.375 1.890625 -4.625 C 1.890625 -3.78125 2.050781 -3.039062 2.375 -2.40625 C 2.707031 -1.78125 3.148438 -1.296875 3.703125 -0.953125 C 4.265625 -0.617188 4.890625 -0.453125 5.578125 -0.453125 C 6.679688 -0.453125 7.597656 -0.773438 8.328125 -1.421875 Z M 8.328125 -0.796875 "/></g></g></g><g fill="#000000" fill-opacity="1"><g transform="translate(285.076011, 102.287223)"><g><path d="M 3.75 -4.53125 C 4.144531 -4.53125 4.488281 -4.625 4.78125 -4.8125 C 5.082031 -5 5.3125 -5.242188 5.46875 -5.546875 C 5.625 -5.847656 5.703125 -6.164062 5.703125 -6.5 C 5.703125 -6.832031 5.628906 -7.148438 5.484375 -7.453125 C 5.335938 -7.753906 5.113281 -8 4.8125 -8.1875 C 4.519531 -8.382812 4.160156 -8.484375 3.734375 -8.484375 L 2.625 -8.484375 L 2.625 -1.203125 C 2.625 -0.859375 2.664062 -0.59375 2.75 -0.40625 C 2.832031 -0.226562 2.925781 -0.109375 3.03125 -0.046875 C 3.132812 0.00390625 3.1875 0.0195312 3.1875 0 L 1.109375 0 C 1.109375 0.0195312 1.160156 0 1.265625 -0.0625 C 1.367188 -0.125 1.460938 -0.242188 1.546875 -0.421875 C 1.628906 -0.597656 1.671875 -0.859375 1.671875 -1.203125 L 1.671875 -7.75 C 1.671875 -8.101562 1.628906 -8.375 1.546875 -8.5625 C 1.460938 -8.75 1.367188 -8.875 1.265625 -8.9375 C 1.160156 -9.007812 1.109375 -9.035156 1.109375 -9.015625 L 3.703125 -9.015625 C 4.390625 -9.015625 4.953125 -8.898438 5.390625 -8.671875 C 5.828125 -8.453125 6.144531 -8.164062 6.34375 -7.8125 C 6.539062 -7.457031 6.640625 -7.070312 6.640625 -6.65625 C 6.640625 -6.300781 6.554688 -5.957031 6.390625 -5.625 C 6.222656 -5.289062 5.984375 -5 5.671875 -4.75 C 5.367188 -4.5 5.007812 -4.328125 4.59375 -4.234375 L 4.390625 -4.1875 L 6.6875 -1.25 C 7 -0.914062 7.253906 -0.65625 7.453125 -0.46875 C 7.648438 -0.289062 7.796875 -0.171875 7.890625 -0.109375 C 7.984375 -0.046875 8.035156 -0.0078125 8.046875 0 L 6.515625 0 L 2.953125 -4.53125 Z M 3.75 -4.53125 "/></g></g></g><g fill="#000000" fill-opacity="1"><g transform="translate(301.04478, 102.287223)"><g><path d="M 1.109375 0 C 1.109375 0.03125 1.160156 0.015625 1.265625 -0.046875 C 1.367188 -0.117188 1.460938 -0.253906 1.546875 -0.453125 C 1.628906 -0.648438 1.671875 -0.9375 1.671875 -1.3125 L 1.671875 -7.734375 C 1.671875 -8.097656 1.628906 -8.375 1.546875 -8.5625 C 1.460938 -8.75 1.367188 -8.875 1.265625 -8.9375 C 1.160156 -9.007812 1.109375 -9.035156 1.109375 -9.015625 L 5.859375 -9.015625 L 5.859375 -7.703125 C 5.703125 -8.222656 5.226562 -8.484375 4.4375 -8.484375 L 2.625 -8.484375 L 2.625 -4.765625 L 4.875 -4.765625 C 5.039062 -4.765625 5.1875 -4.789062 5.3125 -4.84375 C 5.4375 -4.90625 5.53125 -4.96875 5.59375 -5.03125 C 5.65625 -5.09375 5.691406 -5.128906 5.703125 -5.140625 L 5.703125 -3.875 C 5.691406 -3.894531 5.65625 -3.929688 5.59375 -3.984375 C 5.53125 -4.046875 5.4375 -4.101562 5.3125 -4.15625 C 5.195312 -4.21875 5.054688 -4.25 4.890625 -4.25 L 2.625 -4.25 L 2.625 -0.53125 L 4.65625 -0.53125 C 5.050781 -0.53125 5.390625 -0.609375 5.671875 -0.765625 C 5.960938 -0.929688 6.164062 -1.140625 6.28125 -1.390625 L 6.046875 0 Z M 1.109375 0 "/></g></g></g><g fill="#000000" fill-opacity="1"><g transform="translate(315.809348, 102.287223)"><g><path d="M 2.765625 -3.5 L 1.921875 -1.421875 C 1.796875 -1.085938 1.734375 -0.816406 1.734375 -0.609375 C 1.734375 -0.328125 1.863281 -0.125 2.125 0 L 0.25 0 C 0.332031 0 0.457031 -0.0859375 0.625 -0.265625 C 0.789062 -0.441406 0.984375 -0.785156 1.203125 -1.296875 L 4.625 -9.421875 L 8.015625 -1.25 C 8.203125 -0.78125 8.382812 -0.457031 8.5625 -0.28125 C 8.75 -0.113281 8.894531 -0.0195312 9 0 L 6.828125 0 C 7.046875 -0.101562 7.15625 -0.265625 7.15625 -0.484375 C 7.15625 -0.671875 7.082031 -0.929688 6.9375 -1.265625 L 6.015625 -3.5 Z M 5.8125 -4.03125 L 4.390625 -7.53125 L 2.984375 -4.03125 Z M 5.8125 -4.03125 "/></g></g></g><g fill="#000000" fill-opacity="1"><g transform="translate(332.66818, 102.287223)"><g><path d="M 1.9375 -8.484375 C 1.550781 -8.484375 1.234375 -8.410156 0.984375 -8.265625 C 0.734375 -8.117188 0.550781 -7.929688 0.4375 -7.703125 L 0.609375 -9.015625 L 6.828125 -9.015625 L 7 -7.703125 C 6.882812 -7.929688 6.703125 -8.117188 6.453125 -8.265625 C 6.203125 -8.410156 5.882812 -8.484375 5.5 -8.484375 L 4.1875 -8.484375 L 4.1875 -1.21875 C 4.1875 -0.863281 4.226562 -0.59375 4.3125 -0.40625 C 4.40625 -0.226562 4.503906 -0.109375 4.609375 -0.046875 C 4.710938 0.015625 4.765625 0.03125 4.765625 0 L 2.6875 0 C 2.6875 0.03125 2.738281 0.015625 2.84375 -0.046875 C 2.945312 -0.109375 3.039062 -0.226562 3.125 -0.40625 C 3.207031 -0.59375 3.25 -0.863281 3.25 -1.21875 L 3.25 -8.484375 Z M 1.9375 -8.484375 "/></g></g></g><g fill="#000000" fill-opacity="1"><g transform="translate(347.746885, 102.287223)"><g><path d="M 1.109375 0 C 1.109375 0.03125 1.160156 0.015625 1.265625 -0.046875 C 1.367188 -0.117188 1.460938 -0.253906 1.546875 -0.453125 C 1.628906 -0.648438 1.671875 -0.9375 1.671875 -1.3125 L 1.671875 -7.734375 C 1.671875 -8.097656 1.628906 -8.375 1.546875 -8.5625 C 1.460938 -8.75 1.367188 -8.875 1.265625 -8.9375 C 1.160156 -9.007812 1.109375 -9.035156 1.109375 -9.015625 L 5.859375 -9.015625 L 5.859375 -7.703125 C 5.703125 -8.222656 5.226562 -8.484375 4.4375 -8.484375 L 2.625 -8.484375 L 2.625 -4.765625 L 4.875 -4.765625 C 5.039062 -4.765625 5.1875 -4.789062 5.3125 -4.84375 C 5.4375 -4.90625 5.53125 -4.96875 5.59375 -5.03125 C 5.65625 -5.09375 5.691406 -5.128906 5.703125 -5.140625 L 5.703125 -3.875 C 5.691406 -3.894531 5.65625 -3.929688 5.59375 -3.984375 C 5.53125 -4.046875 5.4375 -4.101562 5.3125 -4.15625 C 5.195312 -4.21875 5.054688 -4.25 4.890625 -4.25 L 2.625 -4.25 L 2.625 -0.53125 L 4.65625 -0.53125 C 5.050781 -0.53125 5.390625 -0.609375 5.671875 -0.765625 C 5.960938 -0.929688 6.164062 -1.140625 6.28125 -1.390625 L 6.046875 0 Z M 1.109375 0 "/></g></g></g><g fill="#000000" fill-opacity="1"><g transform="translate(212.215286, 160.377668)"><g><path d="M 5.40625 -5.25 C 5.40625 -4.84375 5.304688 -4.484375 5.109375 -4.171875 C 4.921875 -3.859375 4.648438 -3.609375 4.296875 -3.421875 C 3.941406 -3.242188 3.519531 -3.15625 3.03125 -3.15625 C 2.738281 -3.15625 2.425781 -3.1875 2.09375 -3.25 L 2.09375 -0.96875 C 2.09375 -0.695312 2.125 -0.488281 2.1875 -0.34375 C 2.257812 -0.195312 2.335938 -0.0976562 2.421875 -0.046875 C 2.503906 -0.00390625 2.546875 0.0078125 2.546875 0 L 0.890625 0 C 0.890625 0.0078125 0.929688 -0.00390625 1.015625 -0.046875 C 1.097656 -0.0976562 1.171875 -0.191406 1.234375 -0.328125 C 1.304688 -0.472656 1.34375 -0.6875 1.34375 -0.96875 L 1.34375 -6.203125 C 1.34375 -6.484375 1.304688 -6.695312 1.234375 -6.84375 C 1.171875 -6.988281 1.097656 -7.085938 1.015625 -7.140625 C 0.929688 -7.191406 0.890625 -7.210938 0.890625 -7.203125 L 2.9375 -7.203125 C 3.289062 -7.203125 3.582031 -7.175781 3.8125 -7.125 C 4.050781 -7.082031 4.253906 -7.019531 4.421875 -6.9375 C 4.742188 -6.769531 4.988281 -6.535156 5.15625 -6.234375 C 5.320312 -5.929688 5.40625 -5.601562 5.40625 -5.25 Z M 4.59375 -5.125 C 4.59375 -5.613281 4.4375 -6.007812 4.125 -6.3125 C 3.820312 -6.625 3.414062 -6.78125 2.90625 -6.78125 L 2.09375 -6.78125 L 2.09375 -3.65625 C 2.394531 -3.59375 2.707031 -3.5625 3.03125 -3.5625 C 3.519531 -3.5625 3.898438 -3.703125 4.171875 -3.984375 C 4.453125 -4.273438 4.59375 -4.65625 4.59375 -5.125 Z M 4.59375 -5.125 "/></g></g></g><g fill="#000000" fill-opacity="1"><g transform="translate(224.236421, 160.377668)"><g><path d="M 0.671875 -3.515625 C 0.671875 -4.253906 0.828125 -4.910156 1.140625 -5.484375 C 1.460938 -6.066406 1.910156 -6.519531 2.484375 -6.84375 C 3.054688 -7.164062 3.722656 -7.328125 4.484375 -7.328125 C 5.109375 -7.328125 5.691406 -7.1875 6.234375 -6.90625 C 6.785156 -6.632812 7.226562 -6.222656 7.5625 -5.671875 C 7.894531 -5.117188 8.0625 -4.457031 8.0625 -3.6875 C 8.0625 -2.945312 7.898438 -2.285156 7.578125 -1.703125 C 7.265625 -1.128906 6.816406 -0.679688 6.234375 -0.359375 C 5.660156 -0.0351562 5 0.125 4.25 0.125 C 3.625 0.125 3.035156 -0.0078125 2.484375 -0.28125 C 1.941406 -0.5625 1.503906 -0.976562 1.171875 -1.53125 C 0.835938 -2.082031 0.671875 -2.742188 0.671875 -3.515625 Z M 7.21875 -3.53125 C 7.21875 -4.164062 7.085938 -4.738281 6.828125 -5.25 C 6.566406 -5.757812 6.207031 -6.160156 5.75 -6.453125 C 5.289062 -6.742188 4.773438 -6.890625 4.203125 -6.890625 C 3.679688 -6.890625 3.21875 -6.753906 2.8125 -6.484375 C 2.40625 -6.222656 2.082031 -5.847656 1.84375 -5.359375 C 1.613281 -4.878906 1.5 -4.316406 1.5 -3.671875 C 1.5 -3.035156 1.628906 -2.460938 1.890625 -1.953125 C 2.160156 -1.441406 2.519531 -1.039062 2.96875 -0.75 C 3.425781 -0.457031 3.941406 -0.3125 4.515625 -0.3125 C 5.046875 -0.3125 5.515625 -0.441406 5.921875 -0.703125 C 6.328125 -0.972656 6.644531 -1.347656 6.875 -1.828125 C 7.101562 -2.316406 7.21875 -2.882812 7.21875 -3.53125 Z M 7.21875 -3.53125 "/></g></g></g><g fill="#000000" fill-opacity="1"><g transform="translate(239.084818, 160.377668)"><g><path d="M 3 -3.625 C 3.3125 -3.625 3.585938 -3.695312 3.828125 -3.84375 C 4.066406 -4 4.242188 -4.195312 4.359375 -4.4375 C 4.484375 -4.675781 4.546875 -4.925781 4.546875 -5.1875 C 4.546875 -5.457031 4.488281 -5.710938 4.375 -5.953125 C 4.257812 -6.203125 4.082031 -6.398438 3.84375 -6.546875 C 3.613281 -6.703125 3.328125 -6.78125 2.984375 -6.78125 L 2.09375 -6.78125 L 2.09375 -0.96875 C 2.09375 -0.6875 2.125 -0.472656 2.1875 -0.328125 C 2.257812 -0.179688 2.335938 -0.0859375 2.421875 -0.046875 C 2.503906 -0.00390625 2.546875 0.0078125 2.546875 0 L 0.890625 0 C 0.890625 0.0078125 0.929688 -0.00390625 1.015625 -0.046875 C 1.097656 -0.0976562 1.171875 -0.191406 1.234375 -0.328125 C 1.304688 -0.472656 1.34375 -0.6875 1.34375 -0.96875 L 1.34375 -6.203125 C 1.34375 -6.484375 1.304688 -6.695312 1.234375 -6.84375 C 1.171875 -7 1.097656 -7.101562 1.015625 -7.15625 C 0.929688 -7.207031 0.890625 -7.222656 0.890625 -7.203125 L 2.96875 -7.203125 C 3.507812 -7.203125 3.957031 -7.113281 4.3125 -6.9375 C 4.664062 -6.757812 4.921875 -6.53125 5.078125 -6.25 C 5.234375 -5.96875 5.3125 -5.65625 5.3125 -5.3125 C 5.3125 -5.039062 5.242188 -4.769531 5.109375 -4.5 C 4.972656 -4.226562 4.78125 -3.992188 4.53125 -3.796875 C 4.289062 -3.597656 4.003906 -3.457031 3.671875 -3.375 L 3.5 -3.34375 L 5.34375 -1 C 5.59375 -0.726562 5.796875 -0.519531 5.953125 -0.375 C 6.117188 -0.226562 6.238281 -0.128906 6.3125 -0.078125 C 6.382812 -0.0351562 6.425781 -0.0078125 6.4375 0 L 5.21875 0 L 2.359375 -3.625 Z M 3 -3.625 "/></g></g></g><g fill="#000000" fill-opacity="1"><g transform="translate(251.859884, 160.377668)"><g><path d="M 1.546875 -6.78125 C 1.242188 -6.78125 0.988281 -6.71875 0.78125 -6.59375 C 0.582031 -6.476562 0.4375 -6.332031 0.34375 -6.15625 L 0.484375 -7.203125 L 5.453125 -7.203125 L 5.59375 -6.15625 C 5.507812 -6.332031 5.363281 -6.476562 5.15625 -6.59375 C 4.957031 -6.71875 4.703125 -6.78125 4.390625 -6.78125 L 3.34375 -6.78125 L 3.34375 -0.96875 C 3.34375 -0.695312 3.378906 -0.484375 3.453125 -0.328125 C 3.523438 -0.179688 3.601562 -0.0820312 3.6875 -0.03125 C 3.769531 0.0078125 3.8125 0.0195312 3.8125 0 L 2.140625 0 C 2.140625 0.0195312 2.179688 0.0078125 2.265625 -0.03125 C 2.347656 -0.0820312 2.421875 -0.179688 2.484375 -0.328125 C 2.554688 -0.472656 2.59375 -0.6875 2.59375 -0.96875 L 2.59375 -6.78125 Z M 1.546875 -6.78125 "/></g></g></g><g fill="#000000" fill-opacity="1"><g transform="translate(263.922901, 160.377668)"><g><path d="M 2.09375 -6.78125 L 2.09375 -3.8125 L 3.90625 -3.8125 C 4.164062 -3.8125 4.335938 -3.847656 4.421875 -3.921875 C 4.503906 -4.003906 4.546875 -4.066406 4.546875 -4.109375 L 4.546875 -3.09375 C 4.546875 -3.113281 4.53125 -3.144531 4.5 -3.1875 C 4.46875 -3.226562 4.40625 -3.269531 4.3125 -3.3125 C 4.21875 -3.363281 4.082031 -3.390625 3.90625 -3.390625 L 2.09375 -3.390625 L 2.09375 -0.96875 C 2.09375 -0.695312 2.125 -0.488281 2.1875 -0.34375 C 2.257812 -0.207031 2.335938 -0.113281 2.421875 -0.0625 C 2.503906 -0.0078125 2.546875 0.0078125 2.546875 0 L 0.890625 0 C 0.890625 0.0078125 0.929688 -0.00390625 1.015625 -0.046875 C 1.097656 -0.0976562 1.171875 -0.195312 1.234375 -0.34375 C 1.304688 -0.488281 1.34375 -0.695312 1.34375 -0.96875 L 1.34375 -6.171875 C 1.34375 -6.460938 1.304688 -6.679688 1.234375 -6.828125 C 1.171875 -6.984375 1.097656 -7.085938 1.015625 -7.140625 C 0.929688 -7.203125 0.890625 -7.222656 0.890625 -7.203125 L 4.671875 -7.203125 L 4.671875 -6.140625 C 4.640625 -6.304688 4.539062 -6.453125 4.375 -6.578125 C 4.21875 -6.710938 3.992188 -6.78125 3.703125 -6.78125 Z M 2.09375 -6.78125 "/></g></g></g><g fill="#000000" fill-opacity="1"><g transform="translate(275.399526, 160.377668)"><g><path d="M 0.671875 -3.515625 C 0.671875 -4.253906 0.828125 -4.910156 1.140625 -5.484375 C 1.460938 -6.066406 1.910156 -6.519531 2.484375 -6.84375 C 3.054688 -7.164062 3.722656 -7.328125 4.484375 -7.328125 C 5.109375 -7.328125 5.691406 -7.1875 6.234375 -6.90625 C 6.785156 -6.632812 7.226562 -6.222656 7.5625 -5.671875 C 7.894531 -5.117188 8.0625 -4.457031 8.0625 -3.6875 C 8.0625 -2.945312 7.898438 -2.285156 7.578125 -1.703125 C 7.265625 -1.128906 6.816406 -0.679688 6.234375 -0.359375 C 5.660156 -0.0351562 5 0.125 4.25 0.125 C 3.625 0.125 3.035156 -0.0078125 2.484375 -0.28125 C 1.941406 -0.5625 1.503906 -0.976562 1.171875 -1.53125 C 0.835938 -2.082031 0.671875 -2.742188 0.671875 -3.515625 Z M 7.21875 -3.53125 C 7.21875 -4.164062 7.085938 -4.738281 6.828125 -5.25 C 6.566406 -5.757812 6.207031 -6.160156 5.75 -6.453125 C 5.289062 -6.742188 4.773438 -6.890625 4.203125 -6.890625 C 3.679688 -6.890625 3.21875 -6.753906 2.8125 -6.484375 C 2.40625 -6.222656 2.082031 -5.847656 1.84375 -5.359375 C 1.613281 -4.878906 1.5 -4.316406 1.5 -3.671875 C 1.5 -3.035156 1.628906 -2.460938 1.890625 -1.953125 C 2.160156 -1.441406 2.519531 -1.039062 2.96875 -0.75 C 3.425781 -0.457031 3.941406 -0.3125 4.515625 -0.3125 C 5.046875 -0.3125 5.515625 -0.441406 5.921875 -0.703125 C 6.328125 -0.972656 6.644531 -1.347656 6.875 -1.828125 C 7.101562 -2.316406 7.21875 -2.882812 7.21875 -3.53125 Z M 7.21875 -3.53125 "/></g></g></g><g fill="#000000" fill-opacity="1"><g transform="translate(290.247923, 160.377668)"><g><path d="M 1.34375 -6.234375 C 1.34375 -6.503906 1.304688 -6.710938 1.234375 -6.859375 C 1.171875 -7.003906 1.097656 -7.097656 1.015625 -7.140625 C 0.929688 -7.191406 0.890625 -7.210938 0.890625 -7.203125 L 2.546875 -7.203125 C 2.546875 -7.210938 2.503906 -7.191406 2.421875 -7.140625 C 2.335938 -7.097656 2.257812 -7.003906 2.1875 -6.859375 C 2.125 -6.710938 2.09375 -6.503906 2.09375 -6.234375 L 2.09375 -0.421875 L 3.8125 -0.421875 C 4.125 -0.421875 4.394531 -0.484375 4.625 -0.609375 C 4.851562 -0.742188 5.015625 -0.910156 5.109375 -1.109375 L 4.921875 0 L 0.890625 0 C 0.890625 0.0195312 0.929688 0.00390625 1.015625 -0.046875 C 1.097656 -0.0976562 1.171875 -0.203125 1.234375 -0.359375 C 1.304688 -0.515625 1.34375 -0.742188 1.34375 -1.046875 Z M 1.34375 -6.234375 "/></g></g></g><g fill="#000000" fill-opacity="1"><g transform="translate(301.829259, 160.377668)"><g><path d="M 0.875 0 C 0.875 0.0195312 0.914062 0.00390625 1 -0.046875 C 1.082031 -0.0976562 1.160156 -0.195312 1.234375 -0.34375 C 1.304688 -0.488281 1.34375 -0.695312 1.34375 -0.96875 L 1.34375 -6.234375 C 1.34375 -6.503906 1.304688 -6.710938 1.234375 -6.859375 C 1.171875 -7.003906 1.097656 -7.097656 1.015625 -7.140625 C 0.929688 -7.191406 0.890625 -7.210938 0.890625 -7.203125 L 2.546875 -7.203125 C 2.546875 -7.210938 2.503906 -7.191406 2.421875 -7.140625 C 2.335938 -7.097656 2.257812 -7.003906 2.1875 -6.859375 C 2.125 -6.710938 2.09375 -6.503906 2.09375 -6.234375 L 2.09375 -0.96875 C 2.09375 -0.695312 2.125 -0.488281 2.1875 -0.34375 C 2.257812 -0.195312 2.335938 -0.0976562 2.421875 -0.046875 C 2.503906 -0.00390625 2.546875 0.0078125 2.546875 0 Z M 0.875 0 "/></g></g></g><g fill="#000000" fill-opacity="1"><g transform="translate(311.379155, 160.377668)"><g><path d="M 0.671875 -3.515625 C 0.671875 -4.253906 0.828125 -4.910156 1.140625 -5.484375 C 1.460938 -6.066406 1.910156 -6.519531 2.484375 -6.84375 C 3.054688 -7.164062 3.722656 -7.328125 4.484375 -7.328125 C 5.109375 -7.328125 5.691406 -7.1875 6.234375 -6.90625 C 6.785156 -6.632812 7.226562 -6.222656 7.5625 -5.671875 C 7.894531 -5.117188 8.0625 -4.457031 8.0625 -3.6875 C 8.0625 -2.945312 7.898438 -2.285156 7.578125 -1.703125 C 7.265625 -1.128906 6.816406 -0.679688 6.234375 -0.359375 C 5.660156 -0.0351562 5 0.125 4.25 0.125 C 3.625 0.125 3.035156 -0.0078125 2.484375 -0.28125 C 1.941406 -0.5625 1.503906 -0.976562 1.171875 -1.53125 C 0.835938 -2.082031 0.671875 -2.742188 0.671875 -3.515625 Z M 7.21875 -3.53125 C 7.21875 -4.164062 7.085938 -4.738281 6.828125 -5.25 C 6.566406 -5.757812 6.207031 -6.160156 5.75 -6.453125 C 5.289062 -6.742188 4.773438 -6.890625 4.203125 -6.890625 C 3.679688 -6.890625 3.21875 -6.753906 2.8125 -6.484375 C 2.40625 -6.222656 2.082031 -5.847656 1.84375 -5.359375 C 1.613281 -4.878906 1.5 -4.316406 1.5 -3.671875 C 1.5 -3.035156 1.628906 -2.460938 1.890625 -1.953125 C 2.160156 -1.441406 2.519531 -1.039062 2.96875 -0.75 C 3.425781 -0.457031 3.941406 -0.3125 4.515625 -0.3125 C 5.046875 -0.3125 5.515625 -0.441406 5.921875 -0.703125 C 6.328125 -0.972656 6.644531 -1.347656 6.875 -1.828125 C 7.101562 -2.316406 7.21875 -2.882812 7.21875 -3.53125 Z M 7.21875 -3.53125 "/></g></g></g><g fill="#000000" fill-opacity="1"><g transform="translate(162.059245, 135.06286)"><g><path d="M 10.765625 0 L 4.1875 -7.328125 L 4.1875 -1.921875 C 4.1875 -1.222656 4.285156 -0.734375 4.484375 -0.453125 C 4.679688 -0.179688 4.863281 -0.03125 5.03125 0 L 1.796875 0 C 1.960938 -0.03125 2.148438 -0.179688 2.359375 -0.453125 C 2.578125 -0.722656 2.6875 -1.210938 2.6875 -1.921875 L 2.6875 -12.453125 C 2.6875 -13.171875 2.585938 -13.660156 2.390625 -13.921875 C 2.191406 -14.191406 1.992188 -14.351562 1.796875 -14.40625 L 5.03125 -14.40625 C 4.863281 -14.375 4.679688 -14.222656 4.484375 -13.953125 C 4.285156 -13.679688 4.1875 -13.179688 4.1875 -12.453125 L 4.1875 -7.390625 L 9.15625 -12.328125 C 9.945312 -13.128906 10.34375 -13.675781 10.34375 -13.96875 C 10.34375 -14.21875 10.242188 -14.363281 10.046875 -14.40625 L 13.34375 -14.40625 C 13.113281 -14.375 12.757812 -14.222656 12.28125 -13.953125 C 11.800781 -13.679688 11.179688 -13.171875 10.421875 -12.421875 L 5.734375 -7.765625 L 11.03125 -2.015625 C 11.675781 -1.273438 12.179688 -0.765625 12.546875 -0.484375 C 12.921875 -0.210938 13.1875 -0.0507812 13.34375 0 Z M 10.765625 0 "/></g></g></g><g fill="#000000" fill-opacity="1"><g transform="translate(188.530788, 135.06286)"><g><path d="M 4.421875 -5.59375 L 3.078125 -2.265625 C 2.867188 -1.742188 2.765625 -1.316406 2.765625 -0.984375 C 2.765625 -0.523438 2.972656 -0.195312 3.390625 0 L 0.390625 0 C 0.535156 0 0.738281 -0.140625 1 -0.421875 C 1.269531 -0.703125 1.578125 -1.253906 1.921875 -2.078125 L 7.390625 -15.078125 L 12.8125 -2.015625 C 13.125 -1.253906 13.421875 -0.734375 13.703125 -0.453125 C 13.984375 -0.179688 14.210938 -0.03125 14.390625 0 L 10.90625 0 C 11.257812 -0.164062 11.4375 -0.425781 11.4375 -0.78125 C 11.4375 -1.070312 11.320312 -1.488281 11.09375 -2.03125 L 9.625 -5.59375 Z M 9.296875 -6.453125 L 7.015625 -12.03125 L 4.78125 -6.453125 Z M 9.296875 -6.453125 "/></g></g></g><g fill="#000000" fill-opacity="1"><g transform="translate(215.504959, 135.06286)"><g><path d="M 15.265625 -14.40625 C 15.066406 -14.363281 14.875 -14.207031 14.6875 -13.9375 C 14.5 -13.664062 14.40625 -13.1875 14.40625 -12.5 L 14.40625 0.59375 L 3.6875 -11.90625 L 3.6875 -1.890625 C 3.6875 -1.210938 3.800781 -0.738281 4.03125 -0.46875 C 4.269531 -0.195312 4.503906 -0.0390625 4.734375 0 L 1.78125 0 C 1.976562 -0.0390625 2.175781 -0.195312 2.375 -0.46875 C 2.582031 -0.738281 2.6875 -1.21875 2.6875 -1.90625 L 2.6875 -12.375 C 2.6875 -12.84375 2.523438 -13.273438 2.203125 -13.671875 C 1.878906 -14.066406 1.472656 -14.3125 0.984375 -14.40625 L 3.578125 -14.40625 L 13.40625 -2.953125 L 13.40625 -12.5 C 13.40625 -13.570312 13.039062 -14.207031 12.3125 -14.40625 Z M 15.265625 -14.40625 "/></g></g></g><g fill="#000000" fill-opacity="1"><g transform="translate(244.824708, 135.06286)"><g><path d="M 4.421875 -5.59375 L 3.078125 -2.265625 C 2.867188 -1.742188 2.765625 -1.316406 2.765625 -0.984375 C 2.765625 -0.523438 2.972656 -0.195312 3.390625 0 L 0.390625 0 C 0.535156 0 0.738281 -0.140625 1 -0.421875 C 1.269531 -0.703125 1.578125 -1.253906 1.921875 -2.078125 L 7.390625 -15.078125 L 12.8125 -2.015625 C 13.125 -1.253906 13.421875 -0.734375 13.703125 -0.453125 C 13.984375 -0.179688 14.210938 -0.03125 14.390625 0 L 10.90625 0 C 11.257812 -0.164062 11.4375 -0.425781 11.4375 -0.78125 C 11.4375 -1.070312 11.320312 -1.488281 11.09375 -2.03125 L 9.625 -5.59375 Z M 9.296875 -6.453125 L 7.015625 -12.03125 L 4.78125 -6.453125 Z M 9.296875 -6.453125 "/></g></g></g><g fill="#000000" fill-opacity="1"><g transform="translate(271.798876, 135.06286)"><g><path d="M 2.6875 -12.453125 C 2.6875 -13.015625 2.617188 -13.4375 2.484375 -13.71875 C 2.347656 -14.007812 2.195312 -14.203125 2.03125 -14.296875 C 1.863281 -14.398438 1.78125 -14.4375 1.78125 -14.40625 L 5.109375 -14.40625 C 5.109375 -14.4375 5.023438 -14.398438 4.859375 -14.296875 C 4.691406 -14.203125 4.535156 -14.007812 4.390625 -13.71875 C 4.253906 -13.4375 4.1875 -13.015625 4.1875 -12.453125 L 4.1875 -0.84375 L 7.625 -0.84375 C 8.25 -0.84375 8.785156 -0.96875 9.234375 -1.21875 C 9.691406 -1.476562 10.019531 -1.8125 10.21875 -2.21875 L 9.84375 0 L 1.78125 0 C 1.78125 0.0390625 1.863281 0.0078125 2.03125 -0.09375 C 2.195312 -0.195312 2.347656 -0.40625 2.484375 -0.71875 C 2.617188 -1.03125 2.6875 -1.488281 2.6875 -2.09375 Z M 2.6875 -12.453125 "/></g></g></g><g fill="#000000" fill-opacity="1"><g transform="translate(294.961468, 135.06286)"><g><path d="M 1.34375 -7.03125 C 1.34375 -8.507812 1.660156 -9.828125 2.296875 -10.984375 C 2.929688 -12.148438 3.820312 -13.050781 4.96875 -13.6875 C 6.125 -14.332031 7.457031 -14.65625 8.96875 -14.65625 C 10.21875 -14.65625 11.390625 -14.378906 12.484375 -13.828125 C 13.578125 -13.273438 14.457031 -12.445312 15.125 -11.34375 C 15.789062 -10.238281 16.125 -8.914062 16.125 -7.375 C 16.125 -5.894531 15.804688 -4.570312 15.171875 -3.40625 C 14.535156 -2.25 13.640625 -1.347656 12.484375 -0.703125 C 11.335938 -0.0664062 10.007812 0.25 8.5 0.25 C 7.238281 0.25 6.0625 -0.0234375 4.96875 -0.578125 C 3.875 -1.128906 2.992188 -1.953125 2.328125 -3.046875 C 1.671875 -4.148438 1.34375 -5.476562 1.34375 -7.03125 Z M 14.453125 -7.0625 C 14.453125 -8.332031 14.1875 -9.476562 13.65625 -10.5 C 13.132812 -11.519531 12.414062 -12.320312 11.5 -12.90625 C 10.59375 -13.488281 9.566406 -13.78125 8.421875 -13.78125 C 7.367188 -13.78125 6.429688 -13.515625 5.609375 -12.984375 C 4.796875 -12.453125 4.160156 -11.703125 3.703125 -10.734375 C 3.242188 -9.765625 3.015625 -8.632812 3.015625 -7.34375 C 3.015625 -6.070312 3.273438 -4.921875 3.796875 -3.890625 C 4.316406 -2.867188 5.035156 -2.066406 5.953125 -1.484375 C 6.867188 -0.910156 7.898438 -0.625 9.046875 -0.625 C 10.085938 -0.625 11.015625 -0.890625 11.828125 -1.421875 C 12.648438 -1.953125 13.289062 -2.703125 13.75 -3.671875 C 14.21875 -4.640625 14.453125 -5.769531 14.453125 -7.0625 Z M 14.453125 -7.0625 "/></g></g></g><g fill="#000000" fill-opacity="1"><g transform="translate(324.658184, 135.06286)"><g><path d="M 8.765625 0.234375 C 7.441406 0.234375 6.210938 -0.0390625 5.078125 -0.59375 C 3.953125 -1.15625 3.046875 -1.992188 2.359375 -3.109375 C 1.679688 -4.234375 1.34375 -5.597656 1.34375 -7.203125 C 1.34375 -8.628906 1.664062 -9.90625 2.3125 -11.03125 C 2.957031 -12.164062 3.867188 -13.050781 5.046875 -13.6875 C 6.234375 -14.332031 7.59375 -14.65625 9.125 -14.65625 C 10.101562 -14.65625 10.984375 -14.539062 11.765625 -14.3125 C 12.554688 -14.09375 13.1875 -13.851562 13.65625 -13.59375 L 13.65625 -11.265625 C 13.21875 -12.015625 12.566406 -12.617188 11.703125 -13.078125 C 10.847656 -13.546875 9.976562 -13.78125 9.09375 -13.78125 C 7.84375 -13.78125 6.757812 -13.515625 5.84375 -12.984375 C 4.9375 -12.460938 4.238281 -11.71875 3.75 -10.75 C 3.257812 -9.789062 3.015625 -8.664062 3.015625 -7.375 C 3.015625 -5.957031 3.296875 -4.742188 3.859375 -3.734375 C 4.421875 -2.734375 5.171875 -1.984375 6.109375 -1.484375 C 7.046875 -0.984375 8.066406 -0.734375 9.171875 -0.734375 C 9.671875 -0.734375 10.1875 -0.789062 10.71875 -0.90625 C 11.257812 -1.03125 11.765625 -1.203125 12.234375 -1.421875 L 12.234375 -4.875 C 12.234375 -5.3125 12.160156 -5.648438 12.015625 -5.890625 C 11.878906 -6.140625 11.726562 -6.316406 11.5625 -6.421875 C 11.394531 -6.523438 11.3125 -6.5625 11.3125 -6.53125 L 14.65625 -6.53125 C 14.65625 -6.5625 14.570312 -6.535156 14.40625 -6.453125 C 14.238281 -6.367188 14.082031 -6.207031 13.9375 -5.96875 C 13.800781 -5.738281 13.734375 -5.414062 13.734375 -5 L 13.734375 -1.1875 C 12.992188 -0.726562 12.191406 -0.375 11.328125 -0.125 C 10.472656 0.113281 9.617188 0.234375 8.765625 0.234375 Z M 8.765625 0.234375 "/></g></g></g><g fill="#000000" fill-opacity="1"><g transform="translate(352.972684, 135.06286)"><g><path d="M 1.34375 -7.03125 C 1.34375 -8.507812 1.660156 -9.828125 2.296875 -10.984375 C 2.929688 -12.148438 3.820312 -13.050781 4.96875 -13.6875 C 6.125 -14.332031 7.457031 -14.65625 8.96875 -14.65625 C 10.21875 -14.65625 11.390625 -14.378906 12.484375 -13.828125 C 13.578125 -13.273438 14.457031 -12.445312 15.125 -11.34375 C 15.789062 -10.238281 16.125 -8.914062 16.125 -7.375 C 16.125 -5.894531 15.804688 -4.570312 15.171875 -3.40625 C 14.535156 -2.25 13.640625 -1.347656 12.484375 -0.703125 C 11.335938 -0.0664062 10.007812 0.25 8.5 0.25 C 7.238281 0.25 6.0625 -0.0234375 4.96875 -0.578125 C 3.875 -1.128906 2.992188 -1.953125 2.328125 -3.046875 C 1.671875 -4.148438 1.34375 -5.476562 1.34375 -7.03125 Z M 14.453125 -7.0625 C 14.453125 -8.332031 14.1875 -9.476562 13.65625 -10.5 C 13.132812 -11.519531 12.414062 -12.320312 11.5 -12.90625 C 10.59375 -13.488281 9.566406 -13.78125 8.421875 -13.78125 C 7.367188 -13.78125 6.429688 -13.515625 5.609375 -12.984375 C 4.796875 -12.453125 4.160156 -11.703125 3.703125 -10.734375 C 3.242188 -9.765625 3.015625 -8.632812 3.015625 -7.34375 C 3.015625 -6.070312 3.273438 -4.921875 3.796875 -3.890625 C 4.316406 -2.867188 5.035156 -2.066406 5.953125 -1.484375 C 6.867188 -0.910156 7.898438 -0.625 9.046875 -0.625 C 10.085938 -0.625 11.015625 -0.890625 11.828125 -1.421875 C 12.648438 -1.953125 13.289062 -2.703125 13.75 -3.671875 C 14.21875 -4.640625 14.453125 -5.769531 14.453125 -7.0625 Z M 14.453125 -7.0625 "/></g></g></g><g clip-path="url(#443a52624f)"><path fill="#000000" d="M 115.679688 113.089844 C 115.359375 113.847656 114.867188 114.339844 114.394531 114.820312 C 111.667969 117.589844 108.941406 120.359375 106.144531 123.058594 C 103.328125 125.773438 100.675781 128.652344 97.894531 131.402344 C 94.710938 134.554688 92.09375 138.226562 88.800781 141.277344 C 88.503906 141.550781 88.179688 142.128906 87.757812 141.734375 C 87.375 141.371094 87.839844 140.914062 88.113281 140.617188 C 90.074219 138.527344 92.027344 136.433594 94.039062 134.394531 C 97.164062 131.230469 100.277344 128.054688 103.292969 124.78125 C 105.25 122.660156 107.382812 120.699219 109.453125 118.6875 C 111.144531 117.050781 112.859375 115.441406 114.566406 113.828125 C 114.859375 113.550781 115.117188 113.214844 115.679688 113.089844 Z M 18.09375 116.550781 C 19.648438 118.179688 21.210938 119.800781 22.765625 121.433594 C 28.375 127.335938 34.445312 132.765625 40.160156 138.5625 C 41.21875 139.636719 42.363281 140.628906 43.582031 141.527344 C 43.777344 141.671875 44.027344 141.886719 44.265625 141.65625 C 44.546875 141.382812 44.292969 141.117188 44.117188 140.925781 C 43.613281 140.378906 43.117188 139.816406 42.550781 139.34375 C 35.917969 133.804688 30.257812 127.25 23.898438 121.425781 C 21.921875 119.613281 20.042969 117.6875 17.828125 115.984375 C 17.816406 116.324219 17.976562 116.429688 18.09375 116.550781 Z M 134.773438 162.609375 C 131.050781 162.492188 127.324219 162.339844 123.597656 162.273438 C 119.917969 162.203125 116.246094 162.421875 112.578125 162.707031 C 109.210938 162.964844 105.835938 162.859375 102.46875 162.917969 C 100.78125 162.949219 99.097656 163.019531 97.414062 163.09375 C 97.128906 163.105469 96.660156 163.019531 96.640625 163.382812 C 96.617188 163.847656 97.140625 163.734375 97.421875 163.769531 C 98.386719 163.898438 99.359375 163.84375 100.328125 163.757812 C 104.65625 163.363281 108.988281 163.269531 113.335938 163.355469 C 120.386719 163.496094 127.433594 163.167969 134.480469 163.039062 C 134.78125 163.035156 135.097656 163.066406 135.382812 162.820312 C 135.1875 162.609375 134.976562 162.617188 134.773438 162.609375 Z M 65.753906 92.261719 C 65.585938 95.179688 65.519531 98.097656 65.523438 101.019531 C 65.53125 106.863281 65.976562 112.695312 66.03125 118.535156 C 66.070312 122.714844 65.882812 126.886719 65.726562 131.0625 C 65.707031 131.519531 65.652344 131.984375 65.863281 132.421875 C 65.929688 132.566406 66.007812 132.703125 66.191406 132.695312 C 66.371094 132.683594 66.445312 132.535156 66.476562 132.382812 C 66.519531 132.183594 66.550781 131.976562 66.554688 131.773438 C 66.609375 129.367188 66.683594 126.960938 66.695312 124.554688 C 66.710938 120.582031 66.515625 116.613281 66.398438 112.644531 C 66.261719 108.191406 66.300781 103.730469 66.246094 99.277344 C 66.214844 96.691406 66.285156 94.101562 65.996094 91.425781 C 65.761719 91.75 65.769531 92.007812 65.753906 92.261719 Z M 124.285156 139.910156 C 116.636719 142.804688 108.988281 145.683594 101.355469 148.605469 C 99.304688 149.390625 97.304688 150.308594 95.285156 151.179688 C 94.996094 151.304688 94.566406 151.433594 94.734375 151.863281 C 94.894531 152.273438 95.265625 152.019531 95.535156 151.9375 C 96.5625 151.628906 97.582031 151.296875 98.574219 150.875 C 106.609375 147.449219 114.742188 144.257812 122.855469 141.015625 C 123.890625 140.601562 124.90625 140.140625 125.839844 139.523438 C 125.265625 139.492188 124.78125 139.722656 124.285156 139.910156 Z M 0.511719 163.058594 C 4.980469 163.1875 9.445312 163.367188 13.914062 163.488281 C 19.707031 163.640625 25.507812 163.523438 31.292969 163.988281 C 32.464844 164.082031 33.644531 164.039062 34.808594 163.816406 C 35.089844 163.761719 35.503906 163.75 35.488281 163.34375 C 35.472656 162.9375 35.058594 162.929688 34.777344 162.9375 C 32.9375 162.976562 31.097656 162.800781 29.257812 162.914062 C 26.429688 163.09375 23.585938 163.164062 20.761719 162.976562 C 14.839844 162.582031 8.921875 162.480469 2.992188 162.644531 C 2.023438 162.671875 1.03125 162.667969 0.078125 163.015625 C 0.222656 163.03125 0.367188 163.054688 0.511719 163.058594 Z M 41.277344 107.449219 C 43.40625 112.023438 45.324219 116.6875 47.269531 121.34375 C 48.957031 125.382812 50.554688 129.460938 52.203125 133.515625 C 52.414062 134.035156 52.699219 134.523438 52.960938 135.023438 C 53.058594 135.207031 53.199219 135.386719 53.441406 135.304688 C 53.703125 135.214844 53.757812 134.980469 53.707031 134.734375 C 53.664062 134.535156 53.601562 134.339844 53.519531 134.152344 C 53.089844 133.167969 52.679688 132.171875 52.210938 131.203125 C 49.816406 126.242188 47.675781 121.179688 45.808594 115.996094 C 44.695312 112.910156 43.5 109.855469 41.777344 107.046875 C 41.566406 106.707031 41.390625 106.320312 40.945312 106.128906 C 40.847656 106.644531 41.089844 107.046875 41.277344 107.449219 Z M 9.675781 141.511719 C 14.277344 143.210938 18.890625 144.878906 23.480469 146.597656 C 27.3125 148.03125 30.996094 149.820312 34.777344 151.371094 C 35.511719 151.671875 36.257812 151.929688 37.03125 152.113281 C 37.261719 152.171875 37.515625 152.167969 37.621094 151.902344 C 37.746094 151.597656 37.539062 151.425781 37.285156 151.3125 C 37.148438 151.25 37 151.203125 36.855469 151.15625 C 32.320312 149.648438 27.875 147.914062 23.472656 146.042969 C 18.371094 143.875 13.238281 141.785156 7.902344 140.242188 C 7.511719 140.132812 7.132812 139.953125 6.519531 140.082031 C 7.628906 140.753906 8.652344 141.136719 9.675781 141.511719 Z M 89.195312 104.484375 C 88.4375 106.113281 87.820312 107.796875 87.203125 109.480469 C 85.292969 114.691406 83.417969 119.921875 81.492188 125.128906 C 80.375 128.15625 79.179688 131.152344 78.054688 134.171875 C 77.921875 134.523438 77.558594 135.105469 78.167969 135.296875 C 78.730469 135.476562 78.816406 134.84375 78.945312 134.457031 C 79.644531 132.34375 80.261719 130.199219 81.023438 128.109375 C 83.4375 121.46875 85.914062 114.851562 88.347656 108.222656 C 88.890625 106.742188 89.492188 105.273438 89.820312 103.644531 C 89.414062 103.859375 89.332031 104.191406 89.195312 104.484375 Z M 96.152344 122.371094 C 93.589844 125.789062 91.277344 129.394531 88.582031 132.714844 C 87.273438 134.328125 86.117188 136.050781 84.910156 137.734375 C 84.667969 138.074219 84.152344 138.550781 84.636719 138.925781 C 85.152344 139.328125 85.425781 138.671875 85.683594 138.34375 C 86.171875 137.722656 86.625 137.066406 87.050781 136.398438 C 88.484375 134.125 89.902344 131.832031 91.589844 129.742188 C 93.734375 127.089844 95.695312 124.3125 97.636719 121.515625 C 98.078125 120.878906 98.574219 120.246094 98.683594 119.410156 C 97.691406 120.277344 96.929688 121.335938 96.152344 122.371094 Z M 13.726562 157.34375 C 19.867188 157.96875 26.007812 158.617188 32.101562 159.632812 C 33.050781 159.792969 34.007812 160.027344 34.984375 159.933594 C 35.261719 159.90625 35.675781 159.90625 35.65625 159.472656 C 35.636719 159.117188 35.273438 159.101562 35.003906 159.066406 C 33.792969 158.890625 32.582031 158.683594 31.363281 158.574219 C 26.917969 158.171875 22.496094 157.566406 18.058594 157.058594 C 15.851562 156.804688 13.648438 156.894531 11.441406 157.0625 C 12.210938 157.164062 12.96875 157.265625 13.726562 157.34375 Z M 109.832031 128.324219 C 109.664062 128.4375 109.488281 128.539062 109.332031 128.664062 C 106.832031 130.660156 104.332031 132.652344 101.84375 134.660156 C 100.332031 135.882812 98.859375 137.152344 97.335938 138.363281 C 95.554688 139.777344 93.730469 141.140625 91.933594 142.539062 C 91.390625 142.964844 90.878906 143.433594 90.460938 143.992188 C 90.320312 144.183594 90.183594 144.390625 90.394531 144.609375 C 90.59375 144.820312 90.816406 144.726562 91.019531 144.601562 C 91.152344 144.523438 91.269531 144.425781 91.386719 144.324219 C 92.320312 143.488281 93.234375 142.628906 94.191406 141.820312 C 96.515625 139.855469 98.796875 137.828125 101.21875 135.988281 C 103.789062 134.035156 106.269531 131.992188 108.652344 129.816406 C 109.121094 129.390625 109.632812 129.011719 110.125 128.613281 C 110.027344 128.515625 109.929688 128.421875 109.832031 128.324219 Z M 23.046875 131.726562 C 28.675781 136.054688 34.628906 139.945312 40.203125 144.351562 C 40.4375 144.539062 40.722656 144.671875 40.996094 144.800781 C 41.207031 144.898438 41.464844 144.960938 41.605469 144.699219 C 41.753906 144.421875 41.515625 144.285156 41.328125 144.152344 C 40.59375 143.640625 39.867188 143.125 39.125 142.625 C 35.019531 139.847656 31.21875 136.648438 27.101562 133.886719 C 25.625 132.894531 24.222656 131.785156 22.449219 131.054688 C 22.613281 131.453125 22.851562 131.574219 23.046875 131.726562 Z M 32.8125 123.605469 C 35.386719 126.984375 38.351562 130.035156 41 133.351562 C 42.503906 135.226562 44.03125 137.082031 45.578125 138.917969 C 45.824219 139.210938 46.183594 139.796875 46.613281 139.390625 C 47.011719 139.011719 46.445312 138.667969 46.203125 138.390625 C 43.628906 135.410156 40.875 132.578125 38.5625 129.386719 C 36.804688 126.960938 34.785156 124.832031 32.359375 122.867188 C 32.441406 123.269531 32.667969 123.410156 32.8125 123.605469 Z M 72.207031 113.65625 C 72.097656 114.335938 71.941406 115.015625 71.894531 115.703125 C 71.527344 120.96875 70.796875 126.1875 69.9375 131.394531 C 69.886719 131.691406 69.882812 132.003906 69.890625 132.308594 C 69.898438 132.519531 69.980469 132.730469 70.230469 132.753906 C 70.476562 132.78125 70.601562 132.601562 70.648438 132.390625 C 70.769531 131.894531 70.910156 131.398438 70.964844 130.890625 C 71.523438 126.007812 72.078125 121.125 72.460938 116.222656 C 72.53125 115.324219 72.53125 114.417969 72.402344 113.417969 C 72.289062 113.554688 72.21875 113.601562 72.207031 113.65625 Z M 58.480469 115.550781 C 58.773438 117.992188 59.332031 120.386719 59.6875 122.816406 C 60.09375 125.574219 60.429688 128.34375 60.800781 131.105469 C 60.851562 131.484375 60.925781 131.863281 61.027344 132.230469 C 61.105469 132.515625 61.175781 132.902344 61.578125 132.851562 C 62 132.800781 61.9375 132.414062 61.929688 132.117188 C 61.921875 131.863281 61.875 131.609375 61.832031 131.355469 C 61.082031 127.074219 60.34375 122.789062 59.570312 118.511719 C 59.351562 117.296875 59.203125 116.050781 58.605469 114.847656 C 58.363281 115.152344 58.457031 115.355469 58.480469 115.550781 Z M 26.242188 142.15625 C 27.890625 143.027344 29.542969 143.890625 31.222656 144.695312 C 33.4375 145.753906 35.398438 147.269531 37.636719 148.28125 C 38.007812 148.445312 38.371094 148.648438 38.792969 148.644531 C 38.976562 148.640625 39.167969 148.628906 39.230469 148.417969 C 39.289062 148.222656 39.203125 148.058594 39.042969 147.957031 C 38.632812 147.695312 38.230469 147.417969 37.800781 147.199219 C 34.085938 145.324219 30.371094 143.457031 26.644531 141.609375 C 26.160156 141.367188 25.660156 141.078125 25.023438 141.113281 C 25.261719 141.722656 25.789062 141.917969 26.242188 142.15625 Z M 77.574219 119.441406 C 77.125 121.070312 76.605469 122.683594 76.261719 124.335938 C 75.691406 127.070312 74.707031 129.703125 74.359375 132.484375 C 74.304688 132.925781 73.996094 133.621094 74.59375 133.761719 C 75.300781 133.925781 75.316406 133.128906 75.367188 132.683594 C 75.757812 129.28125 76.773438 126.023438 77.511719 122.699219 C 77.796875 121.417969 77.910156 120.113281 77.839844 118.765625 C 77.75 118.992188 77.636719 119.210938 77.574219 119.441406 Z M 118.84375 156.921875 C 117.703125 157.046875 116.558594 157.125 115.425781 157.304688 C 111.3125 157.949219 107.183594 158.453125 103.03125 158.773438 C 101.148438 158.921875 99.261719 159.054688 97.40625 159.457031 C 97.097656 159.527344 96.601562 159.550781 96.652344 159.945312 C 96.710938 160.425781 97.199219 160.183594 97.480469 160.148438 C 99.785156 159.847656 102.082031 159.476562 104.390625 159.214844 C 108.347656 158.761719 112.300781 158.28125 116.234375 157.660156 C 117.121094 157.519531 117.996094 157.273438 118.875 157.074219 C 118.863281 157.023438 118.851562 156.972656 118.84375 156.921875 Z M 87.898438 123.476562 C 86.53125 125.847656 85.433594 128.359375 84.019531 130.707031 C 83.152344 132.152344 82.433594 133.6875 81.648438 135.183594 C 81.484375 135.5 81.339844 135.832031 81.3125 136.195312 C 81.300781 136.398438 81.285156 136.628906 81.53125 136.710938 C 81.742188 136.777344 81.875 136.613281 81.960938 136.464844 C 82.273438 135.933594 82.59375 135.410156 82.855469 134.855469 C 84.265625 131.902344 85.621094 128.921875 87.316406 126.113281 C 87.894531 125.15625 88.46875 124.171875 88.773438 123.074219 C 88.820312 122.90625 88.992188 122.675781 88.613281 122.609375 C 88.273438 122.804688 88.089844 123.144531 87.898438 123.476562 Z M 52.523438 121.539062 C 53.613281 125.242188 54.699219 128.945312 55.792969 132.644531 C 55.910156 133.035156 56.03125 133.433594 56.28125 133.765625 C 56.429688 133.96875 56.632812 134.082031 56.878906 133.96875 C 57.09375 133.867188 57.128906 133.648438 57.089844 133.441406 C 57.03125 133.140625 56.964844 132.839844 56.871094 132.546875 C 55.703125 128.839844 54.316406 125.210938 52.988281 121.5625 C 52.890625 121.292969 52.851562 120.957031 52.507812 120.816406 C 52.328125 121.074219 52.457031 121.308594 52.523438 121.539062 Z M 42.828125 126.261719 C 44.707031 129.101562 46.195312 132.175781 48.050781 135.03125 C 48.46875 135.675781 48.9375 136.285156 49.398438 136.898438 C 49.539062 137.082031 49.75 137.253906 49.992188 137.097656 C 50.226562 136.941406 50.167969 136.683594 50.066406 136.472656 C 49.941406 136.21875 49.796875 135.976562 49.636719 135.742188 C 47.574219 132.71875 45.664062 129.597656 43.761719 126.472656 C 43.359375 125.808594 42.851562 125.253906 42.113281 124.589844 C 42.289062 125.34375 42.539062 125.820312 42.828125 126.261719 Z M 23.351562 152.269531 C 23.273438 152.570312 23.609375 152.613281 23.796875 152.691406 C 24.195312 152.859375 24.609375 153.015625 25.03125 153.105469 C 27.503906 153.636719 29.933594 154.332031 32.351562 155.078125 C 33.371094 155.394531 34.429688 155.605469 35.476562 155.832031 C 35.78125 155.898438 36.199219 155.984375 36.308594 155.535156 C 36.425781 155.0625 36.027344 154.917969 35.6875 154.808594 C 35.347656 154.699219 34.996094 154.621094 34.644531 154.566406 C 32.117188 154.175781 29.628906 153.621094 27.175781 152.882812 C 26.101562 152.558594 25.015625 152.265625 23.851562 152.125 C 23.714844 152.214844 23.417969 152.019531 23.351562 152.269531 Z M 108.605469 153.097656 C 108.453125 153.097656 108.300781 153.078125 108.152344 153.101562 C 105.074219 153.570312 101.996094 154.039062 98.917969 154.519531 C 98.011719 154.660156 97.089844 154.757812 96.242188 155.144531 C 95.972656 155.261719 95.582031 155.382812 95.695312 155.769531 C 95.808594 156.15625 96.203125 156.039062 96.492188 155.988281 C 99.3125 155.523438 102.121094 154.992188 104.890625 154.269531 C 106.140625 153.945312 107.382812 153.585938 108.628906 153.246094 C 108.621094 153.195312 108.613281 153.148438 108.605469 153.097656 Z M 103.253906 142.566406 C 100.355469 144.011719 97.460938 145.460938 94.574219 146.929688 C 94.078125 147.183594 93.628906 147.535156 93.167969 147.851562 C 92.972656 147.984375 92.777344 148.160156 92.902344 148.417969 C 93.046875 148.730469 93.324219 148.621094 93.566406 148.542969 C 93.710938 148.492188 93.847656 148.417969 93.984375 148.351562 C 97.242188 146.8125 100.277344 144.878906 103.351562 143.011719 C 103.601562 142.859375 103.894531 142.71875 103.96875 142.371094 C 103.679688 142.273438 103.46875 142.457031 103.253906 142.566406 Z M 19.210938 151.402344 C 19.203125 151.890625 19.511719 152.144531 19.984375 152.15625 C 20.398438 152.167969 20.671875 151.953125 20.671875 151.519531 C 20.671875 151.023438 20.34375 150.8125 19.914062 150.734375 C 19.484375 150.765625 19.214844 150.984375 19.210938 151.402344 Z M 22.40625 138.933594 C 21.996094 138.945312 21.726562 139.207031 21.742188 139.621094 C 21.757812 140.066406 22.042969 140.328125 22.488281 140.324219 C 22.921875 140.324219 23.121094 140.050781 23.15625 139.617188 C 23.101562 139.191406 22.855469 138.921875 22.40625 138.933594 Z M 78.820312 114.898438 C 78.414062 114.90625 78.183594 115.214844 78.152344 115.601562 C 78.117188 116.039062 78.335938 116.355469 78.792969 116.367188 C 79.214844 116.378906 79.414062 116.089844 79.460938 115.660156 C 79.40625 115.289062 79.304688 114.894531 78.820312 114.898438 Z M 115.792969 150.714844 C 115.363281 150.746094 115.0625 150.96875 115.078125 151.429688 C 115.089844 151.867188 115.390625 152.054688 115.796875 152.03125 C 116.230469 152.003906 116.496094 151.773438 116.527344 151.289062 C 116.457031 150.894531 116.207031 150.683594 115.792969 150.714844 Z M 80.066406 111.015625 C 79.597656 111.050781 79.347656 111.371094 79.351562 111.835938 C 79.355469 112.226562 79.601562 112.453125 79.980469 112.445312 C 80.460938 112.4375 80.609375 112.097656 80.636719 111.632812 C 80.589844 111.324219 80.492188 110.984375 80.066406 111.015625 Z M 107.257812 140.726562 C 107.253906 140.335938 107.007812 140.113281 106.621094 140.121094 C 106.214844 140.128906 105.925781 140.347656 105.949219 140.777344 C 105.96875 141.164062 106.253906 141.332031 106.628906 141.359375 C 106.996094 141.304688 107.261719 141.117188 107.257812 140.726562 Z M 50.234375 115.007812 C 50.226562 115.386719 50.417969 115.65625 50.804688 115.6875 C 51.21875 115.71875 51.480469 115.488281 51.515625 115.0625 C 51.546875 114.640625 51.3125 114.40625 50.875 114.324219 C 50.5 114.375 50.242188 114.582031 50.234375 115.007812 Z M 39.953125 122.425781 C 39.964844 122.851562 40.226562 123.078125 40.636719 123.074219 C 40.996094 123.074219 41.199219 122.835938 41.191406 122.484375 C 41.179688 122.0625 40.917969 121.851562 40.515625 121.820312 C 40.164062 121.875 39.941406 122.0625 39.953125 122.425781 Z M 111.355469 152.316406 C 111.351562 152.667969 111.566406 152.886719 111.921875 152.894531 C 112.308594 152.902344 112.546875 152.683594 112.574219 152.304688 C 112.601562 151.921875 112.332031 151.785156 111.992188 151.734375 C 111.625 151.753906 111.355469 151.914062 111.355469 152.316406 Z M 16.21875 149.964844 C 15.859375 149.992188 15.652344 150.207031 15.683594 150.570312 C 15.710938 150.933594 15.96875 151.097656 16.3125 151.09375 C 16.671875 151.089844 16.875 150.894531 16.894531 150.53125 C 16.832031 150.140625 16.609375 149.933594 16.21875 149.964844 Z M 109.761719 138.472656 C 109.375 138.476562 109.128906 138.699219 109.148438 139.097656 C 109.167969 139.429688 109.402344 139.597656 109.722656 139.585938 C 110.085938 139.578125 110.269531 139.355469 110.304688 139.003906 C 110.265625 138.675781 110.089844 138.46875 109.761719 138.472656 Z M 51.671875 117.523438 C 51.3125 117.539062 51.117188 117.765625 51.125 118.121094 C 51.128906 118.453125 51.328125 118.640625 51.65625 118.644531 C 52.011719 118.648438 52.207031 118.441406 52.261719 118.050781 C 52.207031 117.746094 52.035156 117.507812 51.671875 117.523438 Z M 89.714844 119.78125 C 89.394531 119.78125 89.179688 119.949219 89.160156 120.289062 C 89.136719 120.621094 89.316406 120.835938 89.640625 120.859375 C 90.003906 120.878906 90.195312 120.652344 90.257812 120.28125 C 90.214844 119.984375 90.054688 119.777344 89.714844 119.78125 Z M 89.714844 119.78125 " fill-opacity="1" fill-rule="nonzero"/><path fill="#000000" d="M 115.679688 113.089844 C 115.359375 113.847656 114.867188 114.339844 114.394531 114.820312 C 111.667969 117.589844 108.941406 120.359375 106.144531 123.058594 C 103.328125 125.773438 100.675781 128.652344 97.894531 131.402344 C 94.710938 134.554688 92.09375 138.226562 88.800781 141.277344 C 88.503906 141.550781 88.179688 142.128906 87.757812 141.734375 C 87.375 141.371094 87.839844 140.914062 88.113281 140.617188 C 90.074219 138.527344 92.027344 136.433594 94.039062 134.394531 C 97.164062 131.230469 100.277344 128.054688 103.292969 124.78125 C 105.25 122.660156 107.382812 120.699219 109.453125 118.6875 C 111.144531 117.050781 112.859375 115.441406 114.566406 113.828125 C 114.859375 113.550781 115.117188 113.214844 115.679688 113.089844 Z M 18.09375 116.550781 C 19.648438 118.179688 21.210938 119.800781 22.765625 121.433594 C 28.375 127.335938 34.445312 132.765625 40.160156 138.5625 C 41.21875 139.636719 42.363281 140.628906 43.582031 141.527344 C 43.777344 141.671875 44.027344 141.886719 44.265625 141.65625 C 44.546875 141.382812 44.292969 141.117188 44.117188 140.925781 C 43.613281 140.378906 43.117188 139.816406 42.550781 139.34375 C 35.917969 133.804688 30.257812 127.25 23.898438 121.425781 C 21.921875 119.613281 20.042969 117.6875 17.828125 115.984375 C 17.816406 116.324219 17.976562 116.429688 18.09375 116.550781 Z M 134.773438 162.609375 C 131.050781 162.492188 127.324219 162.339844 123.597656 162.273438 C 119.917969 162.203125 116.246094 162.421875 112.578125 162.707031 C 109.210938 162.964844 105.835938 162.859375 102.46875 162.917969 C 100.78125 162.949219 99.097656 163.019531 97.414062 163.09375 C 97.128906 163.105469 96.660156 163.019531 96.640625 163.382812 C 96.617188 163.847656 97.140625 163.734375 97.421875 163.769531 C 98.386719 163.898438 99.359375 163.84375 100.328125 163.757812 C 104.65625 163.363281 108.988281 163.269531 113.335938 163.355469 C 120.386719 163.496094 127.433594 163.167969 134.480469 163.039062 C 134.78125 163.035156 135.097656 163.066406 135.382812 162.820312 C 135.1875 162.609375 134.976562 162.617188 134.773438 162.609375 Z M 65.753906 92.261719 C 65.585938 95.179688 65.519531 98.097656 65.523438 101.019531 C 65.53125 106.863281 65.976562 112.695312 66.03125 118.535156 C 66.070312 122.714844 65.882812 126.886719 65.726562 131.0625 C 65.707031 131.519531 65.652344 131.984375 65.863281 132.421875 C 65.929688 132.566406 66.007812 132.703125 66.191406 132.695312 C 66.371094 132.683594 66.445312 132.535156 66.476562 132.382812 C 66.519531 132.183594 66.550781 131.976562 66.554688 131.773438 C 66.609375 129.367188 66.683594 126.960938 66.695312 124.554688 C 66.710938 120.582031 66.515625 116.613281 66.398438 112.644531 C 66.261719 108.191406 66.300781 103.730469 66.246094 99.277344 C 66.214844 96.691406 66.285156 94.101562 65.996094 91.425781 C 65.761719 91.75 65.769531 92.007812 65.753906 92.261719 Z M 124.285156 139.910156 C 116.636719 142.804688 108.988281 145.683594 101.355469 148.605469 C 99.304688 149.390625 97.304688 150.308594 95.285156 151.179688 C 94.996094 151.304688 94.566406 151.433594 94.734375 151.863281 C 94.894531 152.273438 95.265625 152.019531 95.535156 151.9375 C 96.5625 151.628906 97.582031 151.296875 98.574219 150.875 C 106.609375 147.449219 114.742188 144.257812 122.855469 141.015625 C 123.890625 140.601562 124.90625 140.140625 125.839844 139.523438 C 125.265625 139.492188 124.78125 139.722656 124.285156 139.910156 Z M 0.511719 163.058594 C 4.980469 163.1875 9.445312 163.367188 13.914062 163.488281 C 19.707031 163.640625 25.507812 163.523438 31.292969 163.988281 C 32.464844 164.082031 33.644531 164.039062 34.808594 163.816406 C 35.089844 163.761719 35.503906 163.75 35.488281 163.34375 C 35.472656 162.9375 35.058594 162.929688 34.777344 162.9375 C 32.9375 162.976562 31.097656 162.800781 29.257812 162.914062 C 26.429688 163.09375 23.585938 163.164062 20.761719 162.976562 C 14.839844 162.582031 8.921875 162.480469 2.992188 162.644531 C 2.023438 162.671875 1.03125 162.667969 0.078125 163.015625 C 0.222656 163.03125 0.367188 163.054688 0.511719 163.058594 Z M 41.277344 107.449219 C 43.40625 112.023438 45.324219 116.6875 47.269531 121.34375 C 48.957031 125.382812 50.554688 129.460938 52.203125 133.515625 C 52.414062 134.035156 52.699219 134.523438 52.960938 135.023438 C 53.058594 135.207031 53.199219 135.386719 53.441406 135.304688 C 53.703125 135.214844 53.757812 134.980469 53.707031 134.734375 C 53.664062 134.535156 53.601562 134.339844 53.519531 134.152344 C 53.089844 133.167969 52.679688 132.171875 52.210938 131.203125 C 49.816406 126.242188 47.675781 121.179688 45.808594 115.996094 C 44.695312 112.910156 43.5 109.855469 41.777344 107.046875 C 41.566406 106.707031 41.390625 106.320312 40.945312 106.128906 C 40.847656 106.644531 41.089844 107.046875 41.277344 107.449219 Z M 9.675781 141.511719 C 14.277344 143.210938 18.890625 144.878906 23.480469 146.597656 C 27.3125 148.03125 30.996094 149.820312 34.777344 151.371094 C 35.511719 151.671875 36.257812 151.929688 37.03125 152.113281 C 37.261719 152.171875 37.515625 152.167969 37.621094 151.902344 C 37.746094 151.597656 37.539062 151.425781 37.285156 151.3125 C 37.148438 151.25 37 151.203125 36.855469 151.15625 C 32.320312 149.648438 27.875 147.914062 23.472656 146.042969 C 18.371094 143.875 13.238281 141.785156 7.902344 140.242188 C 7.511719 140.132812 7.132812 139.953125 6.519531 140.082031 C 7.628906 140.753906 8.652344 141.136719 9.675781 141.511719 Z M 89.195312 104.484375 C 88.4375 106.113281 87.820312 107.796875 87.203125 109.480469 C 85.292969 114.691406 83.417969 119.921875 81.492188 125.128906 C 80.375 128.15625 79.179688 131.152344 78.054688 134.171875 C 77.921875 134.523438 77.558594 135.105469 78.167969 135.296875 C 78.730469 135.476562 78.816406 134.84375 78.945312 134.457031 C 79.644531 132.34375 80.261719 130.199219 81.023438 128.109375 C 83.4375 121.46875 85.914062 114.851562 88.347656 108.222656 C 88.890625 106.742188 89.492188 105.273438 89.820312 103.644531 C 89.414062 103.859375 89.332031 104.191406 89.195312 104.484375 Z M 96.152344 122.371094 C 93.589844 125.789062 91.277344 129.394531 88.582031 132.714844 C 87.273438 134.328125 86.117188 136.050781 84.910156 137.734375 C 84.667969 138.074219 84.152344 138.550781 84.636719 138.925781 C 85.152344 139.328125 85.425781 138.671875 85.683594 138.34375 C 86.171875 137.722656 86.625 137.066406 87.050781 136.398438 C 88.484375 134.125 89.902344 131.832031 91.589844 129.742188 C 93.734375 127.089844 95.695312 124.3125 97.636719 121.515625 C 98.078125 120.878906 98.574219 120.246094 98.683594 119.410156 C 97.691406 120.277344 96.929688 121.335938 96.152344 122.371094 Z M 13.726562 157.34375 C 19.867188 157.96875 26.007812 158.617188 32.101562 159.632812 C 33.050781 159.792969 34.007812 160.027344 34.984375 159.933594 C 35.261719 159.90625 35.675781 159.90625 35.65625 159.472656 C 35.636719 159.117188 35.273438 159.101562 35.003906 159.066406 C 33.792969 158.890625 32.582031 158.683594 31.363281 158.574219 C 26.917969 158.171875 22.496094 157.566406 18.058594 157.058594 C 15.851562 156.804688 13.648438 156.894531 11.441406 157.0625 C 12.210938 157.164062 12.96875 157.265625 13.726562 157.34375 Z M 109.832031 128.324219 C 109.664062 128.4375 109.488281 128.539062 109.332031 128.664062 C 106.832031 130.660156 104.332031 132.652344 101.84375 134.660156 C 100.332031 135.882812 98.859375 137.152344 97.335938 138.363281 C 95.554688 139.777344 93.730469 141.140625 91.933594 142.539062 C 91.390625 142.964844 90.878906 143.433594 90.460938 143.992188 C 90.320312 144.183594 90.183594 144.390625 90.394531 144.609375 C 90.59375 144.820312 90.816406 144.726562 91.019531 144.601562 C 91.152344 144.523438 91.269531 144.425781 91.386719 144.324219 C 92.320312 143.488281 93.234375 142.628906 94.191406 141.820312 C 96.515625 139.855469 98.796875 137.828125 101.21875 135.988281 C 103.789062 134.035156 106.269531 131.992188 108.652344 129.816406 C 109.121094 129.390625 109.632812 129.011719 110.125 128.613281 C 110.027344 128.515625 109.929688 128.421875 109.832031 128.324219 Z M 23.046875 131.726562 C 28.675781 136.054688 34.628906 139.945312 40.203125 144.351562 C 40.4375 144.539062 40.722656 144.671875 40.996094 144.800781 C 41.207031 144.898438 41.464844 144.960938 41.605469 144.699219 C 41.753906 144.421875 41.515625 144.285156 41.328125 144.152344 C 40.59375 143.640625 39.867188 143.125 39.125 142.625 C 35.019531 139.847656 31.21875 136.648438 27.101562 133.886719 C 25.625 132.894531 24.222656 131.785156 22.449219 131.054688 C 22.613281 131.453125 22.851562 131.574219 23.046875 131.726562 Z M 32.8125 123.605469 C 35.386719 126.984375 38.351562 130.035156 41 133.351562 C 42.503906 135.226562 44.03125 137.082031 45.578125 138.917969 C 45.824219 139.210938 46.183594 139.796875 46.613281 139.390625 C 47.011719 139.011719 46.445312 138.667969 46.203125 138.390625 C 43.628906 135.410156 40.875 132.578125 38.5625 129.386719 C 36.804688 126.960938 34.785156 124.832031 32.359375 122.867188 C 32.441406 123.269531 32.667969 123.410156 32.8125 123.605469 Z M 72.207031 113.65625 C 72.097656 114.335938 71.941406 115.015625 71.894531 115.703125 C 71.527344 120.96875 70.796875 126.1875 69.9375 131.394531 C 69.886719 131.691406 69.882812 132.003906 69.890625 132.308594 C 69.898438 132.519531 69.980469 132.730469 70.230469 132.753906 C 70.476562 132.78125 70.601562 132.601562 70.648438 132.390625 C 70.769531 131.894531 70.910156 131.398438 70.964844 130.890625 C 71.523438 126.007812 72.078125 121.125 72.460938 116.222656 C 72.53125 115.324219 72.53125 114.417969 72.402344 113.417969 C 72.289062 113.554688 72.21875 113.601562 72.207031 113.65625 Z M 58.480469 115.550781 C 58.773438 117.992188 59.332031 120.386719 59.6875 122.816406 C 60.09375 125.574219 60.429688 128.34375 60.800781 131.105469 C 60.851562 131.484375 60.925781 131.863281 61.027344 132.230469 C 61.105469 132.515625 61.175781 132.902344 61.578125 132.851562 C 62 132.800781 61.9375 132.414062 61.929688 132.117188 C 61.921875 131.863281 61.875 131.609375 61.832031 131.355469 C 61.082031 127.074219 60.34375 122.789062 59.570312 118.511719 C 59.351562 117.296875 59.203125 116.050781 58.605469 114.847656 C 58.363281 115.152344 58.457031 115.355469 58.480469 115.550781 Z M 26.242188 142.15625 C 27.890625 143.027344 29.542969 143.890625 31.222656 144.695312 C 33.4375 145.753906 35.398438 147.269531 37.636719 148.28125 C 38.007812 148.445312 38.371094 148.648438 38.792969 148.644531 C 38.976562 148.640625 39.167969 148.628906 39.230469 148.417969 C 39.289062 148.222656 39.203125 148.058594 39.042969 147.957031 C 38.632812 147.695312 38.230469 147.417969 37.800781 147.199219 C 34.085938 145.324219 30.371094 143.457031 26.644531 141.609375 C 26.160156 141.367188 25.660156 141.078125 25.023438 141.113281 C 25.261719 141.722656 25.789062 141.917969 26.242188 142.15625 Z M 77.574219 119.441406 C 77.125 121.070312 76.605469 122.683594 76.261719 124.335938 C 75.691406 127.070312 74.707031 129.703125 74.359375 132.484375 C 74.304688 132.925781 73.996094 133.621094 74.59375 133.761719 C 75.300781 133.925781 75.316406 133.128906 75.367188 132.683594 C 75.757812 129.28125 76.773438 126.023438 77.511719 122.699219 C 77.796875 121.417969 77.910156 120.113281 77.839844 118.765625 C 77.75 118.992188 77.636719 119.210938 77.574219 119.441406 Z M 118.84375 156.921875 C 117.703125 157.046875 116.558594 157.125 115.425781 157.304688 C 111.3125 157.949219 107.183594 158.453125 103.03125 158.773438 C 101.148438 158.921875 99.261719 159.054688 97.40625 159.457031 C 97.097656 159.527344 96.601562 159.550781 96.652344 159.945312 C 96.710938 160.425781 97.199219 160.183594 97.480469 160.148438 C 99.785156 159.847656 102.082031 159.476562 104.390625 159.214844 C 108.347656 158.761719 112.300781 158.28125 116.234375 157.660156 C 117.121094 157.519531 117.996094 157.273438 118.875 157.074219 C 118.863281 157.023438 118.851562 156.972656 118.84375 156.921875 Z M 87.898438 123.476562 C 86.53125 125.847656 85.433594 128.359375 84.019531 130.707031 C 83.152344 132.152344 82.433594 133.6875 81.648438 135.183594 C 81.484375 135.5 81.339844 135.832031 81.3125 136.195312 C 81.300781 136.398438 81.285156 136.628906 81.53125 136.710938 C 81.742188 136.777344 81.875 136.613281 81.960938 136.464844 C 82.273438 135.933594 82.59375 135.410156 82.855469 134.855469 C 84.265625 131.902344 85.621094 128.921875 87.316406 126.113281 C 87.894531 125.15625 88.46875 124.171875 88.773438 123.074219 C 88.820312 122.90625 88.992188 122.675781 88.613281 122.609375 C 88.273438 122.804688 88.089844 123.144531 87.898438 123.476562 Z M 52.523438 121.539062 C 53.613281 125.242188 54.699219 128.945312 55.792969 132.644531 C 55.910156 133.035156 56.03125 133.433594 56.28125 133.765625 C 56.429688 133.96875 56.632812 134.082031 56.878906 133.96875 C 57.09375 133.867188 57.128906 133.648438 57.089844 133.441406 C 57.03125 133.140625 56.964844 132.839844 56.871094 132.546875 C 55.703125 128.839844 54.316406 125.210938 52.988281 121.5625 C 52.890625 121.292969 52.851562 120.957031 52.507812 120.816406 C 52.328125 121.074219 52.457031 121.308594 52.523438 121.539062 Z M 42.828125 126.261719 C 44.707031 129.101562 46.195312 132.175781 48.050781 135.03125 C 48.46875 135.675781 48.9375 136.285156 49.398438 136.898438 C 49.539062 137.082031 49.75 137.253906 49.992188 137.097656 C 50.226562 136.941406 50.167969 136.683594 50.066406 136.472656 C 49.941406 136.21875 49.796875 135.976562 49.636719 135.742188 C 47.574219 132.71875 45.664062 129.597656 43.761719 126.472656 C 43.359375 125.808594 42.851562 125.253906 42.113281 124.589844 C 42.289062 125.34375 42.539062 125.820312 42.828125 126.261719 Z M 23.351562 152.269531 C 23.273438 152.570312 23.609375 152.613281 23.796875 152.691406 C 24.195312 152.859375 24.609375 153.015625 25.03125 153.105469 C 27.503906 153.636719 29.933594 154.332031 32.351562 155.078125 C 33.371094 155.394531 34.429688 155.605469 35.476562 155.832031 C 35.78125 155.898438 36.199219 155.984375 36.308594 155.535156 C 36.425781 155.0625 36.027344 154.917969 35.6875 154.808594 C 35.347656 154.699219 34.996094 154.621094 34.644531 154.566406 C 32.117188 154.175781 29.628906 153.621094 27.175781 152.882812 C 26.101562 152.558594 25.015625 152.265625 23.851562 152.125 C 23.714844 152.214844 23.417969 152.019531 23.351562 152.269531 Z M 108.605469 153.097656 C 108.453125 153.097656 108.300781 153.078125 108.152344 153.101562 C 105.074219 153.570312 101.996094 154.039062 98.917969 154.519531 C 98.011719 154.660156 97.089844 154.757812 96.242188 155.144531 C 95.972656 155.261719 95.582031 155.382812 95.695312 155.769531 C 95.808594 156.15625 96.203125 156.039062 96.492188 155.988281 C 99.3125 155.523438 102.121094 154.992188 104.890625 154.269531 C 106.140625 153.945312 107.382812 153.585938 108.628906 153.246094 C 108.621094 153.195312 108.613281 153.148438 108.605469 153.097656 Z M 103.253906 142.566406 C 100.355469 144.011719 97.460938 145.460938 94.574219 146.929688 C 94.078125 147.183594 93.628906 147.535156 93.167969 147.851562 C 92.972656 147.984375 92.777344 148.160156 92.902344 148.417969 C 93.046875 148.730469 93.324219 148.621094 93.566406 148.542969 C 93.710938 148.492188 93.847656 148.417969 93.984375 148.351562 C 97.242188 146.8125 100.277344 144.878906 103.351562 143.011719 C 103.601562 142.859375 103.894531 142.71875 103.96875 142.371094 C 103.679688 142.273438 103.46875 142.457031 103.253906 142.566406 Z M 19.210938 151.402344 C 19.203125 151.890625 19.511719 152.144531 19.984375 152.15625 C 20.398438 152.167969 20.671875 151.953125 20.671875 151.519531 C 20.671875 151.023438 20.34375 150.8125 19.914062 150.734375 C 19.484375 150.765625 19.214844 150.984375 19.210938 151.402344 Z M 22.40625 138.933594 C 21.996094 138.945312 21.726562 139.207031 21.742188 139.621094 C 21.757812 140.066406 22.042969 140.328125 22.488281 140.324219 C 22.921875 140.324219 23.121094 140.050781 23.15625 139.617188 C 23.101562 139.191406 22.855469 138.921875 22.40625 138.933594 Z M 78.820312 114.898438 C 78.414062 114.90625 78.183594 115.214844 78.152344 115.601562 C 78.117188 116.039062 78.335938 116.355469 78.792969 116.367188 C 79.214844 116.378906 79.414062 116.089844 79.460938 115.660156 C 79.40625 115.289062 79.304688 114.894531 78.820312 114.898438 Z M 115.792969 150.714844 C 115.363281 150.746094 115.0625 150.96875 115.078125 151.429688 C 115.089844 151.867188 115.390625 152.054688 115.796875 152.03125 C 116.230469 152.003906 116.496094 151.773438 116.527344 151.289062 C 116.457031 150.894531 116.207031 150.683594 115.792969 150.714844 Z M 80.066406 111.015625 C 79.597656 111.050781 79.347656 111.371094 79.351562 111.835938 C 79.355469 112.226562 79.601562 112.453125 79.980469 112.445312 C 80.460938 112.4375 80.609375 112.097656 80.636719 111.632812 C 80.589844 111.324219 80.492188 110.984375 80.066406 111.015625 Z M 107.257812 140.726562 C 107.253906 140.335938 107.007812 140.113281 106.621094 140.121094 C 106.214844 140.128906 105.925781 140.347656 105.949219 140.777344 C 105.96875 141.164062 106.253906 141.332031 106.628906 141.359375 C 106.996094 141.304688 107.261719 141.117188 107.257812 140.726562 Z M 50.234375 115.007812 C 50.226562 115.386719 50.417969 115.65625 50.804688 115.6875 C 51.21875 115.71875 51.480469 115.488281 51.515625 115.0625 C 51.546875 114.640625 51.3125 114.40625 50.875 114.324219 C 50.5 114.375 50.242188 114.582031 50.234375 115.007812 Z M 39.953125 122.425781 C 39.964844 122.851562 40.226562 123.078125 40.636719 123.074219 C 40.996094 123.074219 41.199219 122.835938 41.191406 122.484375 C 41.179688 122.0625 40.917969 121.851562 40.515625 121.820312 C 40.164062 121.875 39.941406 122.0625 39.953125 122.425781 Z M 111.355469 152.316406 C 111.351562 152.667969 111.566406 152.886719 111.921875 152.894531 C 112.308594 152.902344 112.546875 152.683594 112.574219 152.304688 C 112.601562 151.921875 112.332031 151.785156 111.992188 151.734375 C 111.625 151.753906 111.355469 151.914062 111.355469 152.316406 Z M 16.21875 149.964844 C 15.859375 149.992188 15.652344 150.207031 15.683594 150.570312 C 15.710938 150.933594 15.96875 151.097656 16.3125 151.09375 C 16.671875 151.089844 16.875 150.894531 16.894531 150.53125 C 16.832031 150.140625 16.609375 149.933594 16.21875 149.964844 Z M 109.761719 138.472656 C 109.375 138.476562 109.128906 138.699219 109.148438 139.097656 C 109.167969 139.429688 109.402344 139.597656 109.722656 139.585938 C 110.085938 139.578125 110.269531 139.355469 110.304688 139.003906 C 110.265625 138.675781 110.089844 138.46875 109.761719 138.472656 Z M 51.671875 117.523438 C 51.3125 117.539062 51.117188 117.765625 51.125 118.121094 C 51.128906 118.453125 51.328125 118.640625 51.65625 118.644531 C 52.011719 118.648438 52.207031 118.441406 52.261719 118.050781 C 52.207031 117.746094 52.035156 117.507812 51.671875 117.523438 Z M 89.714844 119.78125 C 89.394531 119.78125 89.179688 119.949219 89.160156 120.289062 C 89.136719 120.621094 89.316406 120.835938 89.640625 120.859375 C 90.003906 120.878906 90.195312 120.652344 90.257812 120.28125 C 90.214844 119.984375 90.054688 119.777344 89.714844 119.78125 Z M 89.714844 119.78125 " fill-opacity="1" fill-rule="nonzero"/></g></svg>