<svg xmlns="http://www.w3.org/2000/svg" xmlns:xlink="http://www.w3.org/1999/xlink" width="500" zoomAndPan="magnify" viewBox="0 0 375 374.999991" height="500" preserveAspectRatio="xMidYMid meet" version="1.0"><defs><g/><clipPath id="b49bf232e7"><path d="M 50.835938 114.585938 L 144 114.585938 L 144 164.570312 L 50.835938 164.570312 Z M 50.835938 114.585938 " clip-rule="nonzero"/></clipPath></defs><g fill="#000000" fill-opacity="1"><g transform="translate(172.97034, 122.057147)"><g><path d="M 7.546875 -5.296875 C 7.617188 -5.503906 7.65625 -5.671875 7.65625 -5.796875 C 7.65625 -6.046875 7.546875 -6.175781 7.328125 -6.1875 L 8.71875 -6.1875 C 8.632812 -6.175781 8.519531 -6.109375 8.375 -5.984375 C 8.226562 -5.867188 8.097656 -5.632812 7.984375 -5.28125 L 6.03125 0.21875 L 4.296875 -4.765625 L 2.515625 0.21875 L 0.734375 -5.3125 C 0.578125 -5.8125 0.347656 -6.101562 0.046875 -6.1875 L 1.546875 -6.1875 C 1.378906 -6.15625 1.296875 -6.054688 1.296875 -5.890625 C 1.296875 -5.804688 1.332031 -5.65625 1.40625 -5.4375 L 1.5 -5.125 L 2.640625 -1.375 L 4.46875 -6.359375 L 6.203125 -1.40625 Z M 7.546875 -5.296875 "/></g></g></g><g fill="#000000" fill-opacity="1"><g transform="translate(187.020409, 122.057147)"><g><path d="M 0.765625 0 C 0.765625 0.0195312 0.800781 0.0078125 0.875 -0.03125 C 0.945312 -0.0820312 1.007812 -0.175781 1.0625 -0.3125 C 1.125 -0.445312 1.15625 -0.644531 1.15625 -0.90625 L 1.15625 -5.3125 C 1.15625 -5.5625 1.125 -5.75 1.0625 -5.875 C 1.007812 -6.007812 0.945312 -6.097656 0.875 -6.140625 C 0.800781 -6.191406 0.765625 -6.207031 0.765625 -6.1875 L 4.015625 -6.1875 L 4.015625 -5.296875 C 3.910156 -5.648438 3.585938 -5.828125 3.046875 -5.828125 L 1.796875 -5.828125 L 1.796875 -3.28125 L 3.34375 -3.28125 C 3.46875 -3.28125 3.570312 -3.296875 3.65625 -3.328125 C 3.738281 -3.367188 3.800781 -3.410156 3.84375 -3.453125 C 3.882812 -3.492188 3.910156 -3.519531 3.921875 -3.53125 L 3.921875 -2.65625 C 3.910156 -2.675781 3.882812 -2.707031 3.84375 -2.75 C 3.800781 -2.789062 3.738281 -2.828125 3.65625 -2.859375 C 3.570312 -2.898438 3.472656 -2.921875 3.359375 -2.921875 L 1.796875 -2.921875 L 1.796875 -0.359375 L 3.203125 -0.359375 C 3.472656 -0.359375 3.703125 -0.410156 3.890625 -0.515625 C 4.085938 -0.628906 4.226562 -0.773438 4.3125 -0.953125 L 4.15625 0 Z M 0.765625 0 "/></g></g></g><g fill="#000000" fill-opacity="1"><g transform="translate(197.179695, 122.057147)"><g><path d="M 3.625 -0.15625 C 3.46875 -0.101562 3.285156 -0.0625 3.078125 -0.03125 C 2.878906 -0.0078125 2.601562 0 2.25 0 L 0.765625 0 C 0.835938 -0.0195312 0.921875 -0.0859375 1.015625 -0.203125 C 1.109375 -0.316406 1.15625 -0.539062 1.15625 -0.875 L 1.15625 -5.34375 C 1.15625 -5.65625 1.113281 -5.867188 1.03125 -5.984375 C 0.945312 -6.097656 0.863281 -6.164062 0.78125 -6.1875 L 2.25 -6.1875 C 2.632812 -6.1875 2.925781 -6.171875 3.125 -6.140625 C 3.320312 -6.109375 3.5 -6.0625 3.65625 -6 C 3.914062 -5.875 4.117188 -5.695312 4.265625 -5.46875 C 4.410156 -5.238281 4.484375 -4.988281 4.484375 -4.71875 C 4.484375 -4.320312 4.359375 -3.976562 4.109375 -3.6875 C 3.867188 -3.394531 3.550781 -3.207031 3.15625 -3.125 C 3.425781 -3.09375 3.679688 -3.015625 3.921875 -2.890625 C 4.171875 -2.765625 4.367188 -2.59375 4.515625 -2.375 C 4.671875 -2.15625 4.75 -1.910156 4.75 -1.640625 C 4.75 -1.253906 4.644531 -0.9375 4.4375 -0.6875 C 4.238281 -0.445312 3.96875 -0.269531 3.625 -0.15625 Z M 3.359375 -5.5625 C 3.242188 -5.65625 3.113281 -5.722656 2.96875 -5.765625 C 2.832031 -5.804688 2.648438 -5.828125 2.421875 -5.828125 L 1.796875 -5.828125 L 1.796875 -3.28125 L 2.53125 -3.28125 C 2.75 -3.28125 2.925781 -3.3125 3.0625 -3.375 C 3.207031 -3.4375 3.335938 -3.523438 3.453125 -3.640625 C 3.566406 -3.753906 3.65625 -3.890625 3.71875 -4.046875 C 3.78125 -4.210938 3.8125 -4.378906 3.8125 -4.546875 C 3.8125 -4.742188 3.773438 -4.929688 3.703125 -5.109375 C 3.628906 -5.296875 3.515625 -5.445312 3.359375 -5.5625 Z M 3.5625 -2.65625 C 3.445312 -2.75 3.300781 -2.816406 3.125 -2.859375 C 2.957031 -2.898438 2.734375 -2.921875 2.453125 -2.921875 L 1.796875 -2.921875 L 1.796875 -0.359375 L 2.65625 -0.359375 C 3.082031 -0.359375 3.414062 -0.457031 3.65625 -0.65625 C 3.90625 -0.863281 4.03125 -1.191406 4.03125 -1.640625 C 4.03125 -2.054688 3.875 -2.394531 3.5625 -2.65625 Z M 3.5625 -2.65625 "/></g></g></g><g fill="#000000" fill-opacity="1"><g transform="translate(207.915393, 122.057147)"><g/></g></g><g fill="#000000" fill-opacity="1"><g transform="translate(215.62492, 122.057147)"><g><path d="M 6.1875 -0.28125 C 6.03125 -0.0195312 5.835938 0.109375 5.609375 0.109375 C 5.429688 0.109375 5.210938 0.03125 4.953125 -0.125 C 4.703125 -0.28125 4.394531 -0.507812 4.03125 -0.8125 C 3.425781 -0.195312 2.832031 0.109375 2.25 0.109375 C 1.695312 0.109375 1.265625 -0.0351562 0.953125 -0.328125 C 0.648438 -0.628906 0.5 -1.015625 0.5 -1.484375 C 0.5 -1.859375 0.609375 -2.175781 0.828125 -2.4375 C 1.046875 -2.695312 1.375 -2.960938 1.8125 -3.234375 C 1.320312 -3.847656 1.078125 -4.390625 1.078125 -4.859375 C 1.078125 -5.171875 1.144531 -5.429688 1.28125 -5.640625 C 1.425781 -5.859375 1.613281 -6.019531 1.84375 -6.125 C 2.070312 -6.238281 2.316406 -6.296875 2.578125 -6.296875 C 2.816406 -6.296875 3.039062 -6.25 3.25 -6.15625 C 3.46875 -6.0625 3.640625 -5.921875 3.765625 -5.734375 C 3.890625 -5.554688 3.953125 -5.347656 3.953125 -5.109375 C 3.953125 -4.753906 3.828125 -4.441406 3.578125 -4.171875 C 3.335938 -3.910156 2.988281 -3.628906 2.53125 -3.328125 C 3.082031 -2.640625 3.628906 -2.050781 4.171875 -1.5625 C 4.410156 -1.9375 4.597656 -2.265625 4.734375 -2.546875 C 4.867188 -2.835938 4.9375 -3.097656 4.9375 -3.328125 C 4.9375 -3.546875 4.863281 -3.726562 4.71875 -3.875 L 5.890625 -3.875 C 5.753906 -3.726562 5.550781 -3.351562 5.28125 -2.75 C 5.09375 -2.320312 4.8125 -1.847656 4.4375 -1.328125 C 4.46875 -1.304688 4.519531 -1.265625 4.59375 -1.203125 C 4.894531 -0.960938 5.15625 -0.773438 5.375 -0.640625 C 5.601562 -0.503906 5.820312 -0.4375 6.03125 -0.4375 C 6.09375 -0.4375 6.195312 -0.476562 6.34375 -0.5625 C 6.300781 -0.457031 6.25 -0.363281 6.1875 -0.28125 Z M 2.515625 -6.015625 C 2.210938 -6.015625 1.988281 -5.925781 1.84375 -5.75 C 1.695312 -5.570312 1.625 -5.359375 1.625 -5.109375 C 1.625 -4.890625 1.695312 -4.640625 1.84375 -4.359375 C 1.988281 -4.078125 2.160156 -3.8125 2.359375 -3.5625 C 2.734375 -3.789062 3 -4.015625 3.15625 -4.234375 C 3.3125 -4.460938 3.390625 -4.722656 3.390625 -5.015625 C 3.390625 -5.347656 3.300781 -5.597656 3.125 -5.765625 C 2.957031 -5.929688 2.753906 -6.015625 2.515625 -6.015625 Z M 2 -2.984375 C 1.6875 -2.796875 1.453125 -2.597656 1.296875 -2.390625 C 1.148438 -2.191406 1.078125 -1.957031 1.078125 -1.6875 C 1.078125 -1.445312 1.140625 -1.222656 1.265625 -1.015625 C 1.390625 -0.804688 1.554688 -0.640625 1.765625 -0.515625 C 1.972656 -0.390625 2.195312 -0.328125 2.4375 -0.328125 C 2.695312 -0.328125 2.921875 -0.382812 3.109375 -0.5 C 3.296875 -0.613281 3.515625 -0.796875 3.765625 -1.046875 C 3.460938 -1.328125 3.148438 -1.640625 2.828125 -1.984375 C 2.515625 -2.335938 2.238281 -2.671875 2 -2.984375 Z M 2 -2.984375 "/></g></g></g><g fill="#000000" fill-opacity="1"><g transform="translate(227.540462, 122.057147)"><g/></g></g><g fill="#000000" fill-opacity="1"><g transform="translate(235.24999, 122.057147)"><g><path d="M 5.71875 -0.546875 C 5.488281 -0.359375 5.191406 -0.203125 4.828125 -0.078125 C 4.460938 0.046875 4.09375 0.109375 3.71875 0.109375 C 3.164062 0.109375 2.648438 -0.0195312 2.171875 -0.28125 C 1.691406 -0.539062 1.304688 -0.910156 1.015625 -1.390625 C 0.722656 -1.878906 0.578125 -2.453125 0.578125 -3.109375 C 0.578125 -3.710938 0.707031 -4.257812 0.96875 -4.75 C 1.238281 -5.238281 1.617188 -5.617188 2.109375 -5.890625 C 2.609375 -6.160156 3.191406 -6.296875 3.859375 -6.296875 C 4.554688 -6.296875 5.175781 -6.144531 5.71875 -5.84375 L 5.71875 -4.84375 C 5.53125 -5.175781 5.257812 -5.4375 4.90625 -5.625 C 4.5625 -5.820312 4.1875 -5.921875 3.78125 -5.921875 C 3.269531 -5.921875 2.828125 -5.800781 2.453125 -5.5625 C 2.078125 -5.320312 1.789062 -4.992188 1.59375 -4.578125 C 1.394531 -4.160156 1.296875 -3.691406 1.296875 -3.171875 C 1.296875 -2.585938 1.40625 -2.082031 1.625 -1.65625 C 1.851562 -1.226562 2.160156 -0.894531 2.546875 -0.65625 C 2.929688 -0.425781 3.359375 -0.3125 3.828125 -0.3125 C 4.597656 -0.3125 5.226562 -0.535156 5.71875 -0.984375 Z M 5.71875 -0.546875 "/></g></g></g><g fill="#000000" fill-opacity="1"><g transform="translate(246.994407, 122.057147)"><g><path d="M 2.578125 -3.109375 C 2.847656 -3.109375 3.082031 -3.171875 3.28125 -3.296875 C 3.488281 -3.429688 3.644531 -3.601562 3.75 -3.8125 C 3.863281 -4.019531 3.921875 -4.238281 3.921875 -4.46875 C 3.921875 -4.695312 3.867188 -4.914062 3.765625 -5.125 C 3.671875 -5.332031 3.519531 -5.5 3.3125 -5.625 C 3.101562 -5.757812 2.851562 -5.828125 2.5625 -5.828125 L 1.796875 -5.828125 L 1.796875 -0.828125 C 1.796875 -0.585938 1.828125 -0.40625 1.890625 -0.28125 C 1.953125 -0.15625 2.019531 -0.0703125 2.09375 -0.03125 C 2.164062 0 2.203125 0.0078125 2.203125 0 L 0.765625 0 C 0.765625 0.0078125 0.800781 -0.00390625 0.875 -0.046875 C 0.945312 -0.0859375 1.007812 -0.164062 1.0625 -0.28125 C 1.125 -0.40625 1.15625 -0.585938 1.15625 -0.828125 L 1.15625 -5.328125 C 1.15625 -5.578125 1.125 -5.765625 1.0625 -5.890625 C 1.007812 -6.015625 0.945312 -6.097656 0.875 -6.140625 C 0.800781 -6.191406 0.765625 -6.207031 0.765625 -6.1875 L 2.546875 -6.1875 C 3.015625 -6.1875 3.398438 -6.109375 3.703125 -5.953125 C 4.003906 -5.804688 4.222656 -5.609375 4.359375 -5.359375 C 4.492188 -5.117188 4.5625 -4.859375 4.5625 -4.578125 C 4.5625 -4.335938 4.503906 -4.097656 4.390625 -3.859375 C 4.273438 -3.628906 4.109375 -3.425781 3.890625 -3.25 C 3.679688 -3.082031 3.4375 -2.96875 3.15625 -2.90625 L 3.015625 -2.875 L 4.59375 -0.859375 C 4.800781 -0.628906 4.972656 -0.453125 5.109375 -0.328125 C 5.253906 -0.203125 5.359375 -0.117188 5.421875 -0.078125 C 5.484375 -0.0351562 5.519531 -0.0078125 5.53125 0 L 4.484375 0 L 2.03125 -3.109375 Z M 2.578125 -3.109375 "/></g></g></g><g fill="#000000" fill-opacity="1"><g transform="translate(257.982285, 122.057147)"><g><path d="M 0.765625 0 C 0.765625 0.0195312 0.800781 0.0078125 0.875 -0.03125 C 0.945312 -0.0820312 1.007812 -0.175781 1.0625 -0.3125 C 1.125 -0.445312 1.15625 -0.644531 1.15625 -0.90625 L 1.15625 -5.3125 C 1.15625 -5.5625 1.125 -5.75 1.0625 -5.875 C 1.007812 -6.007812 0.945312 -6.097656 0.875 -6.140625 C 0.800781 -6.191406 0.765625 -6.207031 0.765625 -6.1875 L 4.015625 -6.1875 L 4.015625 -5.296875 C 3.910156 -5.648438 3.585938 -5.828125 3.046875 -5.828125 L 1.796875 -5.828125 L 1.796875 -3.28125 L 3.34375 -3.28125 C 3.46875 -3.28125 3.570312 -3.296875 3.65625 -3.328125 C 3.738281 -3.367188 3.800781 -3.410156 3.84375 -3.453125 C 3.882812 -3.492188 3.910156 -3.519531 3.921875 -3.53125 L 3.921875 -2.65625 C 3.910156 -2.675781 3.882812 -2.707031 3.84375 -2.75 C 3.800781 -2.789062 3.738281 -2.828125 3.65625 -2.859375 C 3.570312 -2.898438 3.472656 -2.921875 3.359375 -2.921875 L 1.796875 -2.921875 L 1.796875 -0.359375 L 3.203125 -0.359375 C 3.472656 -0.359375 3.703125 -0.410156 3.890625 -0.515625 C 4.085938 -0.628906 4.226562 -0.773438 4.3125 -0.953125 L 4.15625 0 Z M 0.765625 0 "/></g></g></g><g fill="#000000" fill-opacity="1"><g transform="translate(268.141571, 122.057147)"><g><path d="M 1.90625 -2.40625 L 1.328125 -0.96875 C 1.234375 -0.75 1.1875 -0.566406 1.1875 -0.421875 C 1.1875 -0.222656 1.273438 -0.0820312 1.453125 0 L 0.171875 0 C 0.234375 0 0.320312 -0.0546875 0.4375 -0.171875 C 0.550781 -0.296875 0.679688 -0.535156 0.828125 -0.890625 L 3.171875 -6.484375 L 5.515625 -0.859375 C 5.640625 -0.535156 5.765625 -0.3125 5.890625 -0.1875 C 6.015625 -0.0703125 6.113281 -0.0078125 6.1875 0 L 4.6875 0 C 4.832031 -0.0703125 4.90625 -0.179688 4.90625 -0.328125 C 4.90625 -0.453125 4.859375 -0.632812 4.765625 -0.875 L 4.140625 -2.40625 Z M 4 -2.765625 L 3.015625 -5.171875 L 2.046875 -2.765625 Z M 4 -2.765625 "/></g></g></g><g fill="#000000" fill-opacity="1"><g transform="translate(279.741889, 122.057147)"><g><path d="M 1.328125 -5.828125 C 1.066406 -5.828125 0.847656 -5.773438 0.671875 -5.671875 C 0.492188 -5.578125 0.367188 -5.453125 0.296875 -5.296875 L 0.421875 -6.1875 L 4.6875 -6.1875 L 4.8125 -5.296875 C 4.738281 -5.453125 4.613281 -5.578125 4.4375 -5.671875 C 4.257812 -5.773438 4.039062 -5.828125 3.78125 -5.828125 L 2.875 -5.828125 L 2.875 -0.84375 C 2.875 -0.601562 2.90625 -0.414062 2.96875 -0.28125 C 3.03125 -0.15625 3.097656 -0.0703125 3.171875 -0.03125 C 3.242188 0.0078125 3.28125 0.0195312 3.28125 0 L 1.84375 0 C 1.84375 0.0195312 1.878906 0.0078125 1.953125 -0.03125 C 2.023438 -0.0703125 2.085938 -0.15625 2.140625 -0.28125 C 2.203125 -0.40625 2.234375 -0.59375 2.234375 -0.84375 L 2.234375 -5.828125 Z M 1.328125 -5.828125 "/></g></g></g><g fill="#000000" fill-opacity="1"><g transform="translate(290.117327, 122.057147)"><g><path d="M 0.765625 0 C 0.765625 0.0195312 0.800781 0.0078125 0.875 -0.03125 C 0.945312 -0.0820312 1.007812 -0.175781 1.0625 -0.3125 C 1.125 -0.445312 1.15625 -0.644531 1.15625 -0.90625 L 1.15625 -5.3125 C 1.15625 -5.5625 1.125 -5.75 1.0625 -5.875 C 1.007812 -6.007812 0.945312 -6.097656 0.875 -6.140625 C 0.800781 -6.191406 0.765625 -6.207031 0.765625 -6.1875 L 4.015625 -6.1875 L 4.015625 -5.296875 C 3.910156 -5.648438 3.585938 -5.828125 3.046875 -5.828125 L 1.796875 -5.828125 L 1.796875 -3.28125 L 3.34375 -3.28125 C 3.46875 -3.28125 3.570312 -3.296875 3.65625 -3.328125 C 3.738281 -3.367188 3.800781 -3.410156 3.84375 -3.453125 C 3.882812 -3.492188 3.910156 -3.519531 3.921875 -3.53125 L 3.921875 -2.65625 C 3.910156 -2.675781 3.882812 -2.707031 3.84375 -2.75 C 3.800781 -2.789062 3.738281 -2.828125 3.65625 -2.859375 C 3.570312 -2.898438 3.472656 -2.921875 3.359375 -2.921875 L 1.796875 -2.921875 L 1.796875 -0.359375 L 3.203125 -0.359375 C 3.472656 -0.359375 3.703125 -0.410156 3.890625 -0.515625 C 4.085938 -0.628906 4.226562 -0.773438 4.3125 -0.953125 L 4.15625 0 Z M 0.765625 0 "/></g></g></g><g fill="#000000" fill-opacity="1"><g transform="translate(196.859983, 162.028332)"><g><path d="M 3.71875 -3.609375 C 3.71875 -3.335938 3.648438 -3.09375 3.515625 -2.875 C 3.390625 -2.65625 3.203125 -2.484375 2.953125 -2.359375 C 2.703125 -2.234375 2.414062 -2.171875 2.09375 -2.171875 C 1.882812 -2.171875 1.664062 -2.191406 1.4375 -2.234375 L 1.4375 -0.65625 C 1.4375 -0.46875 1.457031 -0.328125 1.5 -0.234375 C 1.550781 -0.140625 1.601562 -0.0703125 1.65625 -0.03125 C 1.71875 0 1.75 0.0078125 1.75 0 L 0.609375 0 C 0.609375 0.0078125 0.632812 0 0.6875 -0.03125 C 0.75 -0.0703125 0.800781 -0.140625 0.84375 -0.234375 C 0.894531 -0.328125 0.921875 -0.46875 0.921875 -0.65625 L 0.921875 -4.265625 C 0.921875 -4.460938 0.894531 -4.609375 0.84375 -4.703125 C 0.800781 -4.804688 0.75 -4.875 0.6875 -4.90625 C 0.632812 -4.945312 0.609375 -4.960938 0.609375 -4.953125 L 2.03125 -4.953125 C 2.269531 -4.953125 2.46875 -4.9375 2.625 -4.90625 C 2.78125 -4.875 2.921875 -4.828125 3.046875 -4.765625 C 3.265625 -4.660156 3.429688 -4.5 3.546875 -4.28125 C 3.660156 -4.070312 3.71875 -3.847656 3.71875 -3.609375 Z M 3.15625 -3.515625 C 3.15625 -3.859375 3.050781 -4.132812 2.84375 -4.34375 C 2.632812 -4.5625 2.351562 -4.671875 2 -4.671875 L 1.4375 -4.671875 L 1.4375 -2.515625 C 1.644531 -2.472656 1.863281 -2.453125 2.09375 -2.453125 C 2.425781 -2.453125 2.6875 -2.550781 2.875 -2.75 C 3.0625 -2.945312 3.15625 -3.203125 3.15625 -3.515625 Z M 3.15625 -3.515625 "/></g></g></g><g fill="#000000" fill-opacity="1"><g transform="translate(205.131551, 162.028332)"><g><path d="M 0.46875 -2.421875 C 0.46875 -2.929688 0.570312 -3.382812 0.78125 -3.78125 C 1 -4.175781 1.304688 -4.484375 1.703125 -4.703125 C 2.109375 -4.929688 2.566406 -5.046875 3.078125 -5.046875 C 3.515625 -5.046875 3.921875 -4.945312 4.296875 -4.75 C 4.671875 -4.5625 4.972656 -4.273438 5.203125 -3.890625 C 5.429688 -3.515625 5.546875 -3.0625 5.546875 -2.53125 C 5.546875 -2.019531 5.4375 -1.566406 5.21875 -1.171875 C 5 -0.773438 4.691406 -0.460938 4.296875 -0.234375 C 3.898438 -0.015625 3.441406 0.09375 2.921875 0.09375 C 2.492188 0.09375 2.085938 0 1.703125 -0.1875 C 1.328125 -0.382812 1.023438 -0.671875 0.796875 -1.046875 C 0.578125 -1.429688 0.46875 -1.890625 0.46875 -2.421875 Z M 4.96875 -2.421875 C 4.96875 -2.859375 4.878906 -3.253906 4.703125 -3.609375 C 4.523438 -3.960938 4.273438 -4.238281 3.953125 -4.4375 C 3.640625 -4.632812 3.285156 -4.734375 2.890625 -4.734375 C 2.535156 -4.734375 2.21875 -4.640625 1.9375 -4.453125 C 1.65625 -4.273438 1.429688 -4.019531 1.265625 -3.6875 C 1.109375 -3.351562 1.03125 -2.96875 1.03125 -2.53125 C 1.03125 -2.09375 1.117188 -1.695312 1.296875 -1.34375 C 1.484375 -0.988281 1.734375 -0.710938 2.046875 -0.515625 C 2.359375 -0.316406 2.710938 -0.21875 3.109375 -0.21875 C 3.472656 -0.21875 3.796875 -0.304688 4.078125 -0.484375 C 4.359375 -0.671875 4.578125 -0.929688 4.734375 -1.265625 C 4.890625 -1.597656 4.96875 -1.984375 4.96875 -2.421875 Z M 4.96875 -2.421875 "/></g></g></g><g fill="#000000" fill-opacity="1"><g transform="translate(215.348519, 162.028332)"><g><path d="M 2.0625 -2.5 C 2.28125 -2.5 2.46875 -2.546875 2.625 -2.640625 C 2.789062 -2.742188 2.914062 -2.878906 3 -3.046875 C 3.09375 -3.210938 3.140625 -3.390625 3.140625 -3.578125 C 3.140625 -3.765625 3.097656 -3.9375 3.015625 -4.09375 C 2.929688 -4.257812 2.804688 -4.394531 2.640625 -4.5 C 2.484375 -4.613281 2.285156 -4.671875 2.046875 -4.671875 L 1.4375 -4.671875 L 1.4375 -0.65625 C 1.4375 -0.46875 1.457031 -0.320312 1.5 -0.21875 C 1.550781 -0.125 1.601562 -0.0625 1.65625 -0.03125 C 1.71875 0 1.75 0.0078125 1.75 0 L 0.609375 0 C 0.609375 0.0078125 0.632812 0 0.6875 -0.03125 C 0.75 -0.0703125 0.800781 -0.140625 0.84375 -0.234375 C 0.894531 -0.328125 0.921875 -0.46875 0.921875 -0.65625 L 0.921875 -4.265625 C 0.921875 -4.460938 0.894531 -4.613281 0.84375 -4.71875 C 0.800781 -4.820312 0.75 -4.890625 0.6875 -4.921875 C 0.632812 -4.960938 0.609375 -4.972656 0.609375 -4.953125 L 2.03125 -4.953125 C 2.40625 -4.953125 2.710938 -4.890625 2.953125 -4.765625 C 3.203125 -4.648438 3.378906 -4.492188 3.484375 -4.296875 C 3.597656 -4.097656 3.65625 -3.882812 3.65625 -3.65625 C 3.65625 -3.46875 3.609375 -3.28125 3.515625 -3.09375 C 3.421875 -2.90625 3.285156 -2.742188 3.109375 -2.609375 C 2.941406 -2.472656 2.75 -2.378906 2.53125 -2.328125 L 2.40625 -2.3125 L 3.6875 -0.6875 C 3.851562 -0.5 3.988281 -0.351562 4.09375 -0.25 C 4.207031 -0.15625 4.289062 -0.0859375 4.34375 -0.046875 C 4.394531 -0.015625 4.425781 0 4.4375 0 L 3.59375 0 L 1.625 -2.5 Z M 2.0625 -2.5 "/></g></g></g><g fill="#000000" fill-opacity="1"><g transform="translate(224.138856, 162.028332)"><g><path d="M 1.0625 -4.671875 C 0.851562 -4.671875 0.675781 -4.628906 0.53125 -4.546875 C 0.394531 -4.460938 0.296875 -4.359375 0.234375 -4.234375 L 0.34375 -4.953125 L 3.75 -4.953125 L 3.859375 -4.234375 C 3.796875 -4.359375 3.691406 -4.460938 3.546875 -4.546875 C 3.410156 -4.628906 3.238281 -4.671875 3.03125 -4.671875 L 2.3125 -4.671875 L 2.3125 -0.671875 C 2.3125 -0.472656 2.332031 -0.320312 2.375 -0.21875 C 2.425781 -0.125 2.476562 -0.0625 2.53125 -0.03125 C 2.59375 0 2.625 0.0078125 2.625 0 L 1.484375 0 C 1.484375 0.0078125 1.507812 0 1.5625 -0.03125 C 1.625 -0.0625 1.675781 -0.125 1.71875 -0.21875 C 1.757812 -0.320312 1.78125 -0.472656 1.78125 -0.671875 L 1.78125 -4.671875 Z M 1.0625 -4.671875 "/></g></g></g><g fill="#000000" fill-opacity="1"><g transform="translate(232.439244, 162.028332)"><g><path d="M 1.4375 -4.671875 L 1.4375 -2.625 L 2.6875 -2.625 C 2.863281 -2.625 2.984375 -2.648438 3.046875 -2.703125 C 3.109375 -2.753906 3.140625 -2.796875 3.140625 -2.828125 L 3.140625 -2.125 C 3.140625 -2.132812 3.125 -2.15625 3.09375 -2.1875 C 3.070312 -2.21875 3.03125 -2.25 2.96875 -2.28125 C 2.90625 -2.3125 2.8125 -2.328125 2.6875 -2.328125 L 1.4375 -2.328125 L 1.4375 -0.671875 C 1.4375 -0.484375 1.457031 -0.335938 1.5 -0.234375 C 1.550781 -0.140625 1.601562 -0.0703125 1.65625 -0.03125 C 1.71875 0 1.75 0.0078125 1.75 0 L 0.609375 0 C 0.609375 0.0078125 0.632812 0 0.6875 -0.03125 C 0.75 -0.0703125 0.800781 -0.140625 0.84375 -0.234375 C 0.894531 -0.328125 0.921875 -0.472656 0.921875 -0.671875 L 0.921875 -4.25 C 0.921875 -4.445312 0.894531 -4.597656 0.84375 -4.703125 C 0.800781 -4.804688 0.75 -4.878906 0.6875 -4.921875 C 0.632812 -4.960938 0.609375 -4.972656 0.609375 -4.953125 L 3.21875 -4.953125 L 3.21875 -4.21875 C 3.195312 -4.332031 3.128906 -4.4375 3.015625 -4.53125 C 2.910156 -4.625 2.753906 -4.671875 2.546875 -4.671875 Z M 1.4375 -4.671875 "/></g></g></g><g fill="#000000" fill-opacity="1"><g transform="translate(240.336143, 162.028332)"><g><path d="M 0.46875 -2.421875 C 0.46875 -2.929688 0.570312 -3.382812 0.78125 -3.78125 C 1 -4.175781 1.304688 -4.484375 1.703125 -4.703125 C 2.109375 -4.929688 2.566406 -5.046875 3.078125 -5.046875 C 3.515625 -5.046875 3.921875 -4.945312 4.296875 -4.75 C 4.671875 -4.5625 4.972656 -4.273438 5.203125 -3.890625 C 5.429688 -3.515625 5.546875 -3.0625 5.546875 -2.53125 C 5.546875 -2.019531 5.4375 -1.566406 5.21875 -1.171875 C 5 -0.773438 4.691406 -0.460938 4.296875 -0.234375 C 3.898438 -0.015625 3.441406 0.09375 2.921875 0.09375 C 2.492188 0.09375 2.085938 0 1.703125 -0.1875 C 1.328125 -0.382812 1.023438 -0.671875 0.796875 -1.046875 C 0.578125 -1.429688 0.46875 -1.890625 0.46875 -2.421875 Z M 4.96875 -2.421875 C 4.96875 -2.859375 4.878906 -3.253906 4.703125 -3.609375 C 4.523438 -3.960938 4.273438 -4.238281 3.953125 -4.4375 C 3.640625 -4.632812 3.285156 -4.734375 2.890625 -4.734375 C 2.535156 -4.734375 2.21875 -4.640625 1.9375 -4.453125 C 1.65625 -4.273438 1.429688 -4.019531 1.265625 -3.6875 C 1.109375 -3.351562 1.03125 -2.96875 1.03125 -2.53125 C 1.03125 -2.09375 1.117188 -1.695312 1.296875 -1.34375 C 1.484375 -0.988281 1.734375 -0.710938 2.046875 -0.515625 C 2.359375 -0.316406 2.710938 -0.21875 3.109375 -0.21875 C 3.472656 -0.21875 3.796875 -0.304688 4.078125 -0.484375 C 4.359375 -0.671875 4.578125 -0.929688 4.734375 -1.265625 C 4.890625 -1.597656 4.96875 -1.984375 4.96875 -2.421875 Z M 4.96875 -2.421875 "/></g></g></g><g fill="#000000" fill-opacity="1"><g transform="translate(250.55311, 162.028332)"><g><path d="M 0.921875 -4.28125 C 0.921875 -4.476562 0.894531 -4.625 0.84375 -4.71875 C 0.800781 -4.820312 0.75 -4.890625 0.6875 -4.921875 C 0.632812 -4.953125 0.609375 -4.960938 0.609375 -4.953125 L 1.75 -4.953125 C 1.75 -4.960938 1.71875 -4.953125 1.65625 -4.921875 C 1.601562 -4.890625 1.550781 -4.820312 1.5 -4.71875 C 1.457031 -4.625 1.4375 -4.476562 1.4375 -4.28125 L 1.4375 -0.28125 L 2.625 -0.28125 C 2.84375 -0.28125 3.03125 -0.320312 3.1875 -0.40625 C 3.34375 -0.5 3.453125 -0.617188 3.515625 -0.765625 L 3.390625 0 L 0.609375 0 C 0.609375 0.0078125 0.632812 0 0.6875 -0.03125 C 0.75 -0.0703125 0.800781 -0.144531 0.84375 -0.25 C 0.894531 -0.351562 0.921875 -0.507812 0.921875 -0.71875 Z M 0.921875 -4.28125 "/></g></g></g><g fill="#000000" fill-opacity="1"><g transform="translate(258.522059, 162.028332)"><g><path d="M 0.609375 0 C 0.609375 0.0078125 0.632812 0 0.6875 -0.03125 C 0.75 -0.0703125 0.800781 -0.140625 0.84375 -0.234375 C 0.894531 -0.328125 0.921875 -0.472656 0.921875 -0.671875 L 0.921875 -4.28125 C 0.921875 -4.476562 0.894531 -4.625 0.84375 -4.71875 C 0.800781 -4.820312 0.75 -4.890625 0.6875 -4.921875 C 0.632812 -4.953125 0.609375 -4.960938 0.609375 -4.953125 L 1.75 -4.953125 C 1.75 -4.960938 1.71875 -4.953125 1.65625 -4.921875 C 1.601562 -4.890625 1.550781 -4.820312 1.5 -4.71875 C 1.457031 -4.625 1.4375 -4.476562 1.4375 -4.28125 L 1.4375 -0.671875 C 1.4375 -0.472656 1.457031 -0.328125 1.5 -0.234375 C 1.550781 -0.140625 1.601562 -0.0703125 1.65625 -0.03125 C 1.71875 0 1.75 0.0078125 1.75 0 Z M 0.609375 0 "/></g></g></g><g fill="#000000" fill-opacity="1"><g transform="translate(265.093205, 162.028332)"><g><path d="M 0.46875 -2.421875 C 0.46875 -2.929688 0.570312 -3.382812 0.78125 -3.78125 C 1 -4.175781 1.304688 -4.484375 1.703125 -4.703125 C 2.109375 -4.929688 2.566406 -5.046875 3.078125 -5.046875 C 3.515625 -5.046875 3.921875 -4.945312 4.296875 -4.75 C 4.671875 -4.5625 4.972656 -4.273438 5.203125 -3.890625 C 5.429688 -3.515625 5.546875 -3.0625 5.546875 -2.53125 C 5.546875 -2.019531 5.4375 -1.566406 5.21875 -1.171875 C 5 -0.773438 4.691406 -0.460938 4.296875 -0.234375 C 3.898438 -0.015625 3.441406 0.09375 2.921875 0.09375 C 2.492188 0.09375 2.085938 0 1.703125 -0.1875 C 1.328125 -0.382812 1.023438 -0.671875 0.796875 -1.046875 C 0.578125 -1.429688 0.46875 -1.890625 0.46875 -2.421875 Z M 4.96875 -2.421875 C 4.96875 -2.859375 4.878906 -3.253906 4.703125 -3.609375 C 4.523438 -3.960938 4.273438 -4.238281 3.953125 -4.4375 C 3.640625 -4.632812 3.285156 -4.734375 2.890625 -4.734375 C 2.535156 -4.734375 2.21875 -4.640625 1.9375 -4.453125 C 1.65625 -4.273438 1.429688 -4.019531 1.265625 -3.6875 C 1.109375 -3.351562 1.03125 -2.96875 1.03125 -2.53125 C 1.03125 -2.09375 1.117188 -1.695312 1.296875 -1.34375 C 1.484375 -0.988281 1.734375 -0.710938 2.046875 -0.515625 C 2.359375 -0.316406 2.710938 -0.21875 3.109375 -0.21875 C 3.472656 -0.21875 3.796875 -0.304688 4.078125 -0.484375 C 4.359375 -0.671875 4.578125 -0.929688 4.734375 -1.265625 C 4.890625 -1.597656 4.96875 -1.984375 4.96875 -2.421875 Z M 4.96875 -2.421875 "/></g></g></g><g fill="#000000" fill-opacity="1"><g transform="translate(162.348343, 144.60958)"><g><path d="M 7.40625 0 L 2.875 -5.046875 L 2.875 -1.328125 C 2.875 -0.847656 2.941406 -0.507812 3.078125 -0.3125 C 3.210938 -0.125 3.335938 -0.0195312 3.453125 0 L 1.234375 0 C 1.347656 -0.0195312 1.476562 -0.125 1.625 -0.3125 C 1.769531 -0.5 1.84375 -0.835938 1.84375 -1.328125 L 1.84375 -8.578125 C 1.84375 -9.066406 1.773438 -9.398438 1.640625 -9.578125 C 1.503906 -9.765625 1.367188 -9.875 1.234375 -9.90625 L 3.453125 -9.90625 C 3.335938 -9.882812 3.210938 -9.78125 3.078125 -9.59375 C 2.941406 -9.414062 2.875 -9.078125 2.875 -8.578125 L 2.875 -5.078125 L 6.296875 -8.484375 C 6.835938 -9.035156 7.109375 -9.410156 7.109375 -9.609375 C 7.109375 -9.785156 7.046875 -9.882812 6.921875 -9.90625 L 9.171875 -9.90625 C 9.023438 -9.882812 8.785156 -9.78125 8.453125 -9.59375 C 8.117188 -9.414062 7.691406 -9.066406 7.171875 -8.546875 L 3.953125 -5.34375 L 7.59375 -1.390625 C 8.03125 -0.878906 8.375 -0.53125 8.625 -0.34375 C 8.882812 -0.15625 9.066406 -0.0390625 9.171875 0 Z M 7.40625 0 "/></g></g></g><g fill="#000000" fill-opacity="1"><g transform="translate(180.563029, 144.60958)"><g><path d="M 3.046875 -3.84375 L 2.125 -1.5625 C 1.976562 -1.195312 1.90625 -0.898438 1.90625 -0.671875 C 1.90625 -0.359375 2.046875 -0.132812 2.328125 0 L 0.28125 0 C 0.375 0 0.507812 -0.09375 0.6875 -0.28125 C 0.875 -0.476562 1.085938 -0.859375 1.328125 -1.421875 L 5.078125 -10.375 L 8.8125 -1.390625 C 9.03125 -0.867188 9.234375 -0.507812 9.421875 -0.3125 C 9.617188 -0.125 9.773438 -0.0195312 9.890625 0 L 7.5 0 C 7.738281 -0.113281 7.859375 -0.289062 7.859375 -0.53125 C 7.859375 -0.726562 7.785156 -1.015625 7.640625 -1.390625 L 6.625 -3.84375 Z M 6.390625 -4.4375 L 4.828125 -8.28125 L 3.28125 -4.4375 Z M 6.390625 -4.4375 "/></g></g></g><g fill="#000000" fill-opacity="1"><g transform="translate(199.123565, 144.60958)"><g><path d="M 10.5 -9.90625 C 10.363281 -9.882812 10.226562 -9.78125 10.09375 -9.59375 C 9.96875 -9.40625 9.90625 -9.070312 9.90625 -8.59375 L 9.90625 0.40625 L 2.53125 -8.203125 L 2.53125 -1.296875 C 2.53125 -0.835938 2.613281 -0.515625 2.78125 -0.328125 C 2.945312 -0.140625 3.101562 -0.03125 3.25 0 L 1.21875 0 C 1.351562 -0.03125 1.488281 -0.140625 1.625 -0.328125 C 1.769531 -0.515625 1.84375 -0.84375 1.84375 -1.3125 L 1.84375 -8.515625 C 1.84375 -8.835938 1.734375 -9.132812 1.515625 -9.40625 C 1.296875 -9.675781 1.015625 -9.84375 0.671875 -9.90625 L 2.46875 -9.90625 L 9.21875 -2.03125 L 9.21875 -8.59375 C 9.21875 -9.332031 8.96875 -9.769531 8.46875 -9.90625 Z M 10.5 -9.90625 "/></g></g></g><g fill="#000000" fill-opacity="1"><g transform="translate(219.29806, 144.60958)"><g><path d="M 3.046875 -3.84375 L 2.125 -1.5625 C 1.976562 -1.195312 1.90625 -0.898438 1.90625 -0.671875 C 1.90625 -0.359375 2.046875 -0.132812 2.328125 0 L 0.28125 0 C 0.375 0 0.507812 -0.09375 0.6875 -0.28125 C 0.875 -0.476562 1.085938 -0.859375 1.328125 -1.421875 L 5.078125 -10.375 L 8.8125 -1.390625 C 9.03125 -0.867188 9.234375 -0.507812 9.421875 -0.3125 C 9.617188 -0.125 9.773438 -0.0195312 9.890625 0 L 7.5 0 C 7.738281 -0.113281 7.859375 -0.289062 7.859375 -0.53125 C 7.859375 -0.726562 7.785156 -1.015625 7.640625 -1.390625 L 6.625 -3.84375 Z M 6.390625 -4.4375 L 4.828125 -8.28125 L 3.28125 -4.4375 Z M 6.390625 -4.4375 "/></g></g></g><g fill="#000000" fill-opacity="1"><g transform="translate(237.858594, 144.60958)"><g><path d="M 1.84375 -8.578125 C 1.84375 -8.953125 1.796875 -9.238281 1.703125 -9.4375 C 1.609375 -9.632812 1.503906 -9.765625 1.390625 -9.828125 C 1.273438 -9.898438 1.21875 -9.925781 1.21875 -9.90625 L 3.515625 -9.90625 C 3.515625 -9.925781 3.457031 -9.898438 3.34375 -9.828125 C 3.226562 -9.765625 3.117188 -9.632812 3.015625 -9.4375 C 2.921875 -9.238281 2.875 -8.953125 2.875 -8.578125 L 2.875 -0.578125 L 5.25 -0.578125 C 5.675781 -0.578125 6.046875 -0.664062 6.359375 -0.84375 C 6.671875 -1.019531 6.894531 -1.25 7.03125 -1.53125 L 6.765625 0 L 1.21875 0 C 1.21875 0.03125 1.273438 0.0078125 1.390625 -0.0625 C 1.503906 -0.132812 1.609375 -0.28125 1.703125 -0.5 C 1.796875 -0.71875 1.84375 -1.03125 1.84375 -1.4375 Z M 1.84375 -8.578125 "/></g></g></g><g fill="#000000" fill-opacity="1"><g transform="translate(253.796438, 144.60958)"><g><path d="M 0.921875 -4.84375 C 0.921875 -5.863281 1.140625 -6.769531 1.578125 -7.5625 C 2.015625 -8.363281 2.628906 -8.984375 3.421875 -9.421875 C 4.210938 -9.859375 5.128906 -10.078125 6.171875 -10.078125 C 7.035156 -10.078125 7.84375 -9.890625 8.59375 -9.515625 C 9.34375 -9.140625 9.945312 -8.570312 10.40625 -7.8125 C 10.863281 -7.050781 11.09375 -6.140625 11.09375 -5.078125 C 11.09375 -4.054688 10.875 -3.144531 10.4375 -2.34375 C 10 -1.550781 9.382812 -0.929688 8.59375 -0.484375 C 7.800781 -0.046875 6.882812 0.171875 5.84375 0.171875 C 4.976562 0.171875 4.171875 -0.015625 3.421875 -0.390625 C 2.671875 -0.773438 2.066406 -1.34375 1.609375 -2.09375 C 1.148438 -2.851562 0.921875 -3.769531 0.921875 -4.84375 Z M 9.9375 -4.859375 C 9.9375 -5.734375 9.753906 -6.519531 9.390625 -7.21875 C 9.035156 -7.925781 8.539062 -8.476562 7.90625 -8.875 C 7.28125 -9.28125 6.578125 -9.484375 5.796875 -9.484375 C 5.066406 -9.484375 4.421875 -9.300781 3.859375 -8.9375 C 3.304688 -8.570312 2.867188 -8.050781 2.546875 -7.375 C 2.234375 -6.707031 2.078125 -5.9375 2.078125 -5.0625 C 2.078125 -4.1875 2.253906 -3.394531 2.609375 -2.6875 C 2.972656 -1.976562 3.46875 -1.425781 4.09375 -1.03125 C 4.726562 -0.632812 5.4375 -0.4375 6.21875 -0.4375 C 6.9375 -0.4375 7.578125 -0.617188 8.140625 -0.984375 C 8.703125 -1.347656 9.140625 -1.863281 9.453125 -2.53125 C 9.773438 -3.195312 9.9375 -3.972656 9.9375 -4.859375 Z M 9.9375 -4.859375 "/></g></g></g><g fill="#000000" fill-opacity="1"><g transform="translate(274.230318, 144.60958)"><g><path d="M 6.03125 0.15625 C 5.125 0.15625 4.28125 -0.0351562 3.5 -0.421875 C 2.71875 -0.804688 2.09375 -1.378906 1.625 -2.140625 C 1.15625 -2.910156 0.921875 -3.847656 0.921875 -4.953125 C 0.921875 -5.929688 1.144531 -6.8125 1.59375 -7.59375 C 2.039062 -8.375 2.671875 -8.984375 3.484375 -9.421875 C 4.296875 -9.859375 5.226562 -10.078125 6.28125 -10.078125 C 6.957031 -10.078125 7.566406 -10 8.109375 -9.84375 C 8.648438 -9.695312 9.078125 -9.53125 9.390625 -9.34375 L 9.390625 -7.75 C 9.097656 -8.269531 8.65625 -8.6875 8.0625 -9 C 7.46875 -9.320312 6.863281 -9.484375 6.25 -9.484375 C 5.394531 -9.484375 4.648438 -9.300781 4.015625 -8.9375 C 3.390625 -8.582031 2.910156 -8.070312 2.578125 -7.40625 C 2.242188 -6.738281 2.078125 -5.960938 2.078125 -5.078125 C 2.078125 -4.097656 2.269531 -3.265625 2.65625 -2.578125 C 3.039062 -1.890625 3.554688 -1.367188 4.203125 -1.015625 C 4.847656 -0.671875 5.550781 -0.5 6.3125 -0.5 C 6.65625 -0.5 7.007812 -0.539062 7.375 -0.625 C 7.75 -0.707031 8.09375 -0.828125 8.40625 -0.984375 L 8.40625 -3.359375 C 8.40625 -3.648438 8.359375 -3.878906 8.265625 -4.046875 C 8.171875 -4.222656 8.066406 -4.347656 7.953125 -4.421875 C 7.835938 -4.492188 7.78125 -4.519531 7.78125 -4.5 L 10.078125 -4.5 C 10.078125 -4.519531 10.019531 -4.5 9.90625 -4.4375 C 9.789062 -4.375 9.6875 -4.265625 9.59375 -4.109375 C 9.5 -3.953125 9.453125 -3.726562 9.453125 -3.4375 L 9.453125 -0.828125 C 8.941406 -0.503906 8.390625 -0.257812 7.796875 -0.09375 C 7.210938 0.0703125 6.625 0.15625 6.03125 0.15625 Z M 6.03125 0.15625 "/></g></g></g><g fill="#000000" fill-opacity="1"><g transform="translate(293.713115, 144.60958)"><g><path d="M 0.921875 -4.84375 C 0.921875 -5.863281 1.140625 -6.769531 1.578125 -7.5625 C 2.015625 -8.363281 2.628906 -8.984375 3.421875 -9.421875 C 4.210938 -9.859375 5.128906 -10.078125 6.171875 -10.078125 C 7.035156 -10.078125 7.84375 -9.890625 8.59375 -9.515625 C 9.34375 -9.140625 9.945312 -8.570312 10.40625 -7.8125 C 10.863281 -7.050781 11.09375 -6.140625 11.09375 -5.078125 C 11.09375 -4.054688 10.875 -3.144531 10.4375 -2.34375 C 10 -1.550781 9.382812 -0.929688 8.59375 -0.484375 C 7.800781 -0.046875 6.882812 0.171875 5.84375 0.171875 C 4.976562 0.171875 4.171875 -0.015625 3.421875 -0.390625 C 2.671875 -0.773438 2.066406 -1.34375 1.609375 -2.09375 C 1.148438 -2.851562 0.921875 -3.769531 0.921875 -4.84375 Z M 9.9375 -4.859375 C 9.9375 -5.734375 9.753906 -6.519531 9.390625 -7.21875 C 9.035156 -7.925781 8.539062 -8.476562 7.90625 -8.875 C 7.28125 -9.28125 6.578125 -9.484375 5.796875 -9.484375 C 5.066406 -9.484375 4.421875 -9.300781 3.859375 -8.9375 C 3.304688 -8.570312 2.867188 -8.050781 2.546875 -7.375 C 2.234375 -6.707031 2.078125 -5.9375 2.078125 -5.0625 C 2.078125 -4.1875 2.253906 -3.394531 2.609375 -2.6875 C 2.972656 -1.976562 3.46875 -1.425781 4.09375 -1.03125 C 4.726562 -0.632812 5.4375 -0.4375 6.21875 -0.4375 C 6.9375 -0.4375 7.578125 -0.617188 8.140625 -0.984375 C 8.703125 -1.347656 9.140625 -1.863281 9.453125 -2.53125 C 9.773438 -3.195312 9.9375 -3.972656 9.9375 -4.859375 Z M 9.9375 -4.859375 "/></g></g></g><g clip-path="url(#b49bf232e7)"><path fill="#000000" d="M 130.4375 129.488281 C 130.214844 130.011719 129.875 130.351562 129.550781 130.679688 C 127.675781 132.585938 125.796875 134.492188 123.871094 136.347656 C 121.9375 138.21875 120.109375 140.199219 118.199219 142.089844 C 116.007812 144.261719 114.207031 146.785156 111.941406 148.882812 C 111.738281 149.074219 111.511719 149.46875 111.222656 149.199219 C 110.957031 148.949219 111.277344 148.636719 111.46875 148.433594 C 112.816406 146.996094 114.160156 145.554688 115.546875 144.152344 C 117.695312 141.972656 119.835938 139.785156 121.914062 137.535156 C 123.257812 136.074219 124.726562 134.726562 126.152344 133.34375 C 127.3125 132.214844 128.496094 131.109375 129.671875 129.996094 C 129.871094 129.808594 130.050781 129.578125 130.4375 129.488281 Z M 63.289062 131.871094 C 64.359375 132.992188 65.433594 134.109375 66.5 135.230469 C 70.363281 139.292969 74.539062 143.03125 78.472656 147.019531 C 79.199219 147.757812 79.984375 148.441406 80.824219 149.058594 C 80.960938 149.15625 81.132812 149.304688 81.296875 149.144531 C 81.488281 148.957031 81.316406 148.773438 81.191406 148.640625 C 80.847656 148.269531 80.503906 147.882812 80.117188 147.554688 C 75.554688 143.742188 71.660156 139.234375 67.28125 135.226562 C 65.921875 133.976562 64.628906 132.65625 63.105469 131.484375 C 63.097656 131.714844 63.207031 131.789062 63.289062 131.871094 Z M 143.574219 163.5625 C 141.011719 163.484375 138.449219 163.378906 135.882812 163.332031 C 133.351562 163.285156 130.824219 163.433594 128.300781 163.628906 C 125.984375 163.808594 123.664062 163.738281 121.34375 163.777344 C 120.183594 163.796875 119.023438 163.847656 117.867188 163.898438 C 117.671875 163.90625 117.347656 163.84375 117.335938 164.097656 C 117.316406 164.414062 117.679688 164.335938 117.871094 164.363281 C 118.535156 164.449219 119.207031 164.414062 119.871094 164.351562 C 122.851562 164.082031 125.832031 164.019531 128.824219 164.078125 C 133.671875 164.171875 138.523438 163.945312 143.371094 163.859375 C 143.578125 163.855469 143.796875 163.878906 143.992188 163.710938 C 143.859375 163.5625 143.714844 163.570312 143.574219 163.5625 Z M 96.082031 115.15625 C 95.964844 117.164062 95.921875 119.175781 95.921875 121.1875 C 95.929688 125.207031 96.234375 129.21875 96.273438 133.238281 C 96.300781 136.113281 96.171875 138.984375 96.0625 141.855469 C 96.050781 142.171875 96.011719 142.492188 96.15625 142.792969 C 96.203125 142.890625 96.257812 142.988281 96.382812 142.980469 C 96.507812 142.972656 96.558594 142.871094 96.578125 142.765625 C 96.609375 142.628906 96.632812 142.484375 96.632812 142.347656 C 96.671875 140.691406 96.722656 139.035156 96.730469 137.378906 C 96.742188 134.644531 96.605469 131.914062 96.523438 129.183594 C 96.433594 126.117188 96.460938 123.050781 96.421875 119.984375 C 96.398438 118.207031 96.445312 116.425781 96.25 114.585938 C 96.085938 114.804688 96.09375 114.984375 96.082031 115.15625 Z M 136.355469 147.945312 C 131.09375 149.9375 125.832031 151.917969 120.578125 153.925781 C 119.167969 154.46875 117.789062 155.101562 116.402344 155.699219 C 116.203125 155.785156 115.90625 155.875 116.023438 156.171875 C 116.132812 156.453125 116.386719 156.277344 116.574219 156.222656 C 117.28125 156.007812 117.984375 155.78125 118.664062 155.492188 C 124.195312 153.132812 129.789062 150.933594 135.375 148.707031 C 136.085938 148.421875 136.785156 148.105469 137.425781 147.679688 C 137.03125 147.65625 136.695312 147.816406 136.355469 147.945312 Z M 51.191406 163.875 C 54.265625 163.960938 57.339844 164.085938 60.410156 164.167969 C 64.398438 164.273438 68.390625 164.195312 72.371094 164.511719 C 73.175781 164.578125 73.988281 164.546875 74.789062 164.394531 C 74.984375 164.359375 75.269531 164.351562 75.257812 164.070312 C 75.246094 163.789062 74.960938 163.785156 74.765625 163.789062 C 73.5 163.816406 72.238281 163.695312 70.972656 163.773438 C 69.023438 163.898438 67.066406 163.945312 65.121094 163.816406 C 61.050781 163.546875 56.976562 163.476562 52.898438 163.585938 C 52.230469 163.605469 51.546875 163.601562 50.890625 163.84375 C 50.992188 163.855469 51.089844 163.871094 51.191406 163.875 Z M 79.238281 125.609375 C 80.707031 128.757812 82.023438 131.96875 83.363281 135.167969 C 84.523438 137.949219 85.621094 140.753906 86.757812 143.542969 C 86.902344 143.902344 87.101562 144.238281 87.28125 144.582031 C 87.347656 144.710938 87.445312 144.832031 87.609375 144.777344 C 87.792969 144.714844 87.828125 144.550781 87.792969 144.386719 C 87.765625 144.246094 87.71875 144.113281 87.664062 143.984375 C 87.367188 143.304688 87.085938 142.621094 86.765625 141.953125 C 85.117188 138.542969 83.644531 135.054688 82.359375 131.488281 C 81.59375 129.367188 80.769531 127.265625 79.582031 125.332031 C 79.4375 125.097656 79.320312 124.832031 79.011719 124.699219 C 78.945312 125.054688 79.109375 125.332031 79.238281 125.609375 Z M 57.496094 149.046875 C 60.660156 150.214844 63.835938 151.363281 66.996094 152.546875 C 69.628906 153.535156 72.164062 154.761719 74.765625 155.832031 C 75.273438 156.039062 75.785156 156.214844 76.316406 156.34375 C 76.476562 156.382812 76.652344 156.378906 76.722656 156.199219 C 76.808594 155.984375 76.667969 155.871094 76.496094 155.792969 C 76.398438 155.746094 76.296875 155.714844 76.199219 155.683594 C 73.078125 154.644531 70.019531 153.453125 66.988281 152.164062 C 63.480469 150.675781 59.945312 149.234375 56.273438 148.175781 C 56.007812 148.097656 55.746094 147.976562 55.324219 148.0625 C 56.085938 148.523438 56.792969 148.789062 57.496094 149.046875 Z M 112.210938 123.570312 C 111.691406 124.6875 111.265625 125.847656 110.839844 127.003906 C 109.527344 130.59375 108.234375 134.191406 106.910156 137.777344 C 106.140625 139.855469 105.320312 141.917969 104.542969 143.996094 C 104.453125 144.238281 104.203125 144.640625 104.625 144.773438 C 105.011719 144.894531 105.070312 144.457031 105.160156 144.191406 C 105.640625 142.738281 106.0625 141.261719 106.585938 139.824219 C 108.25 135.257812 109.953125 130.703125 111.628906 126.140625 C 112 125.121094 112.414062 124.113281 112.640625 122.992188 C 112.363281 123.140625 112.304688 123.367188 112.210938 123.570312 Z M 117 135.875 C 115.234375 138.226562 113.644531 140.707031 111.789062 142.996094 C 110.890625 144.101562 110.09375 145.289062 109.261719 146.449219 C 109.09375 146.679688 108.742188 147.007812 109.074219 147.269531 C 109.429688 147.542969 109.617188 147.09375 109.796875 146.867188 C 110.132812 146.441406 110.445312 145.988281 110.734375 145.527344 C 111.722656 143.964844 112.695312 142.386719 113.859375 140.949219 C 115.335938 139.125 116.683594 137.210938 118.019531 135.289062 C 118.324219 134.847656 118.664062 134.414062 118.742188 133.839844 C 118.058594 134.4375 117.535156 135.164062 117 135.875 Z M 60.28125 159.941406 C 64.507812 160.371094 68.730469 160.816406 72.925781 161.515625 C 73.578125 161.625 74.238281 161.789062 74.910156 161.722656 C 75.101562 161.703125 75.386719 161.703125 75.371094 161.40625 C 75.359375 161.160156 75.109375 161.152344 74.921875 161.125 C 74.089844 161.003906 73.257812 160.863281 72.417969 160.789062 C 69.359375 160.511719 66.316406 160.09375 63.265625 159.746094 C 61.746094 159.570312 60.226562 159.632812 58.710938 159.746094 C 59.238281 159.816406 59.761719 159.886719 60.28125 159.941406 Z M 126.414062 139.972656 C 126.296875 140.050781 126.175781 140.121094 126.066406 140.207031 C 124.347656 141.578125 122.625 142.949219 120.914062 144.332031 C 119.875 145.171875 118.863281 146.046875 117.8125 146.878906 C 116.585938 147.851562 115.332031 148.792969 114.097656 149.753906 C 113.722656 150.046875 113.371094 150.371094 113.082031 150.753906 C 112.984375 150.886719 112.894531 151.027344 113.035156 151.179688 C 113.175781 151.324219 113.328125 151.257812 113.46875 151.175781 C 113.558594 151.121094 113.640625 151.050781 113.71875 150.980469 C 114.363281 150.40625 114.992188 149.816406 115.648438 149.261719 C 117.25 147.90625 118.816406 146.511719 120.484375 145.246094 C 122.253906 143.902344 123.960938 142.496094 125.601562 141 C 125.921875 140.707031 126.273438 140.445312 126.613281 140.171875 C 126.546875 140.105469 126.480469 140.039062 126.414062 139.972656 Z M 66.695312 142.3125 C 70.570312 145.292969 74.664062 147.96875 78.5 151 C 78.664062 151.128906 78.859375 151.222656 79.046875 151.308594 C 79.191406 151.378906 79.371094 151.421875 79.464844 151.242188 C 79.566406 151.050781 79.40625 150.957031 79.273438 150.867188 C 78.769531 150.511719 78.269531 150.15625 77.757812 149.8125 C 74.933594 147.902344 72.316406 145.699219 69.484375 143.800781 C 68.46875 143.117188 67.507812 142.351562 66.285156 141.851562 C 66.398438 142.125 66.5625 142.207031 66.695312 142.3125 Z M 73.417969 136.726562 C 75.1875 139.050781 77.226562 141.152344 79.050781 143.429688 C 80.082031 144.722656 81.136719 146 82.199219 147.261719 C 82.367188 147.464844 82.617188 147.867188 82.914062 147.585938 C 83.1875 147.328125 82.792969 147.089844 82.628906 146.898438 C 80.859375 144.847656 78.960938 142.898438 77.371094 140.703125 C 76.160156 139.035156 74.773438 137.570312 73.105469 136.214844 C 73.160156 136.496094 73.316406 136.59375 73.417969 136.726562 Z M 100.523438 129.878906 C 100.445312 130.347656 100.339844 130.816406 100.308594 131.289062 C 100.054688 134.914062 99.550781 138.503906 98.960938 142.085938 C 98.925781 142.292969 98.921875 142.503906 98.929688 142.714844 C 98.933594 142.859375 98.988281 143.003906 99.160156 143.023438 C 99.332031 143.039062 99.417969 142.914062 99.449219 142.769531 C 99.53125 142.429688 99.628906 142.085938 99.667969 141.738281 C 100.050781 138.378906 100.433594 135.019531 100.699219 131.648438 C 100.746094 131.027344 100.746094 130.402344 100.65625 129.714844 C 100.578125 129.808594 100.53125 129.839844 100.523438 129.878906 Z M 91.078125 131.183594 C 91.277344 132.863281 91.664062 134.511719 91.910156 136.183594 C 92.1875 138.082031 92.417969 139.984375 92.675781 141.886719 C 92.710938 142.148438 92.757812 142.410156 92.828125 142.660156 C 92.882812 142.859375 92.929688 143.121094 93.210938 143.085938 C 93.5 143.050781 93.457031 142.789062 93.449219 142.582031 C 93.445312 142.40625 93.414062 142.234375 93.382812 142.058594 C 92.867188 139.113281 92.359375 136.164062 91.828125 133.222656 C 91.675781 132.386719 91.574219 131.527344 91.164062 130.699219 C 90.996094 130.910156 91.058594 131.050781 91.078125 131.183594 Z M 68.894531 149.492188 C 70.027344 150.089844 71.164062 150.683594 72.320312 151.234375 C 73.847656 151.964844 75.195312 153.007812 76.734375 153.703125 C 76.992188 153.820312 77.238281 153.957031 77.53125 153.953125 C 77.65625 153.953125 77.789062 153.945312 77.832031 153.796875 C 77.871094 153.664062 77.8125 153.550781 77.703125 153.480469 C 77.417969 153.300781 77.144531 153.109375 76.847656 152.960938 C 74.292969 151.671875 71.734375 150.386719 69.171875 149.113281 C 68.835938 148.949219 68.496094 148.75 68.054688 148.773438 C 68.21875 149.191406 68.582031 149.328125 68.894531 149.492188 Z M 104.214844 133.863281 C 103.90625 134.980469 103.546875 136.09375 103.3125 137.226562 C 102.921875 139.109375 102.242188 140.921875 102.003906 142.835938 C 101.964844 143.140625 101.753906 143.617188 102.164062 143.714844 C 102.652344 143.828125 102.660156 143.277344 102.695312 142.972656 C 102.964844 140.632812 103.664062 138.386719 104.171875 136.101562 C 104.367188 135.21875 104.449219 134.324219 104.398438 133.394531 C 104.335938 133.550781 104.257812 133.703125 104.214844 133.863281 Z M 132.613281 159.652344 C 131.828125 159.738281 131.039062 159.789062 130.261719 159.914062 C 127.429688 160.359375 124.589844 160.703125 121.734375 160.925781 C 120.4375 161.027344 119.136719 161.117188 117.863281 161.394531 C 117.648438 161.441406 117.308594 161.460938 117.34375 161.730469 C 117.382812 162.058594 117.71875 161.894531 117.914062 161.871094 C 119.5 161.664062 121.078125 161.410156 122.667969 161.226562 C 125.390625 160.914062 128.109375 160.585938 130.816406 160.15625 C 131.429688 160.0625 132.027344 159.890625 132.632812 159.753906 C 132.625 159.71875 132.617188 159.6875 132.613281 159.652344 Z M 111.320312 136.636719 C 110.378906 138.265625 109.621094 139.996094 108.652344 141.613281 C 108.054688 142.605469 107.558594 143.664062 107.019531 144.691406 C 106.90625 144.910156 106.804688 145.136719 106.789062 145.390625 C 106.78125 145.527344 106.769531 145.6875 106.9375 145.742188 C 107.082031 145.789062 107.171875 145.675781 107.234375 145.574219 C 107.449219 145.210938 107.667969 144.847656 107.851562 144.46875 C 108.820312 142.433594 109.753906 140.386719 110.917969 138.449219 C 111.316406 137.792969 111.710938 137.117188 111.921875 136.363281 C 111.953125 136.246094 112.070312 136.085938 111.8125 136.039062 C 111.578125 136.175781 111.453125 136.410156 111.320312 136.636719 Z M 86.980469 135.304688 C 87.726562 137.851562 88.476562 140.398438 89.230469 142.945312 C 89.308594 143.214844 89.390625 143.488281 89.5625 143.71875 C 89.667969 143.855469 89.804688 143.9375 89.972656 143.855469 C 90.121094 143.785156 90.144531 143.636719 90.121094 143.492188 C 90.082031 143.285156 90.035156 143.078125 89.96875 142.878906 C 89.167969 140.328125 88.210938 137.832031 87.300781 135.320312 C 87.230469 135.132812 87.203125 134.902344 86.96875 134.804688 C 86.84375 134.984375 86.933594 135.144531 86.980469 135.304688 Z M 80.308594 138.550781 C 81.597656 140.507812 82.625 142.625 83.902344 144.589844 C 84.1875 145.03125 84.511719 145.449219 84.828125 145.871094 C 84.925781 146 85.070312 146.117188 85.234375 146.007812 C 85.398438 145.902344 85.359375 145.726562 85.285156 145.578125 C 85.203125 145.40625 85.101562 145.238281 84.992188 145.078125 C 83.574219 142.996094 82.257812 140.847656 80.949219 138.699219 C 80.671875 138.242188 80.324219 137.859375 79.816406 137.402344 C 79.9375 137.921875 80.105469 138.25 80.308594 138.550781 Z M 66.90625 156.449219 C 66.851562 156.65625 67.082031 156.6875 67.210938 156.738281 C 67.488281 156.855469 67.769531 156.960938 68.058594 157.023438 C 69.761719 157.390625 71.433594 157.867188 73.097656 158.382812 C 73.800781 158.601562 74.527344 158.746094 75.25 158.902344 C 75.460938 158.945312 75.746094 159.003906 75.820312 158.695312 C 75.902344 158.371094 75.628906 158.273438 75.394531 158.195312 C 75.160156 158.121094 74.917969 158.066406 74.675781 158.03125 C 72.9375 157.757812 71.222656 157.378906 69.539062 156.871094 C 68.796875 156.648438 68.050781 156.445312 67.25 156.351562 C 67.15625 156.410156 66.949219 156.277344 66.90625 156.449219 Z M 125.566406 157.019531 C 125.464844 157.019531 125.355469 157.007812 125.253906 157.023438 C 123.136719 157.34375 121.019531 157.667969 118.902344 157.996094 C 118.277344 158.09375 117.644531 158.164062 117.058594 158.425781 C 116.875 158.507812 116.605469 158.589844 116.683594 158.855469 C 116.761719 159.125 117.035156 159.042969 117.230469 159.007812 C 119.171875 158.6875 121.105469 158.324219 123.011719 157.824219 C 123.871094 157.601562 124.726562 157.355469 125.582031 157.121094 C 125.578125 157.085938 125.574219 157.054688 125.566406 157.019531 Z M 121.882812 149.773438 C 119.890625 150.769531 117.898438 151.761719 115.914062 152.773438 C 115.570312 152.949219 115.261719 153.191406 114.945312 153.410156 C 114.8125 153.5 114.675781 153.621094 114.761719 153.800781 C 114.863281 154.011719 115.054688 153.941406 115.21875 153.882812 C 115.320312 153.851562 115.414062 153.800781 115.507812 153.753906 C 117.75 152.695312 119.835938 151.363281 121.953125 150.078125 C 122.125 149.976562 122.324219 149.878906 122.375 149.636719 C 122.179688 149.570312 122.035156 149.695312 121.882812 149.773438 Z M 64.054688 155.851562 C 64.050781 156.1875 64.261719 156.363281 64.589844 156.371094 C 64.875 156.378906 65.0625 156.234375 65.0625 155.933594 C 65.0625 155.59375 64.835938 155.445312 64.539062 155.390625 C 64.242188 155.414062 64.058594 155.5625 64.054688 155.851562 Z M 66.257812 147.273438 C 65.972656 147.28125 65.789062 147.460938 65.796875 147.746094 C 65.808594 148.050781 66.003906 148.230469 66.3125 148.230469 C 66.609375 148.230469 66.746094 148.042969 66.769531 147.742188 C 66.734375 147.449219 66.5625 147.265625 66.257812 147.273438 Z M 105.070312 130.734375 C 104.792969 130.738281 104.636719 130.953125 104.613281 131.21875 C 104.589844 131.519531 104.742188 131.738281 105.054688 131.746094 C 105.34375 131.753906 105.480469 131.554688 105.511719 131.257812 C 105.476562 131.003906 105.40625 130.730469 105.070312 130.734375 Z M 130.515625 155.378906 C 130.21875 155.398438 130.011719 155.554688 130.019531 155.871094 C 130.03125 156.171875 130.238281 156.300781 130.515625 156.285156 C 130.8125 156.269531 131 156.109375 131.015625 155.773438 C 130.96875 155.503906 130.796875 155.359375 130.515625 155.378906 Z M 105.929688 128.0625 C 105.605469 128.085938 105.4375 128.308594 105.4375 128.628906 C 105.441406 128.894531 105.609375 129.050781 105.871094 129.046875 C 106.199219 129.039062 106.304688 128.808594 106.320312 128.488281 C 106.292969 128.277344 106.222656 128.042969 105.929688 128.0625 Z M 124.640625 148.507812 C 124.640625 148.238281 124.46875 148.085938 124.203125 148.089844 C 123.921875 148.09375 123.722656 148.246094 123.738281 148.542969 C 123.753906 148.808594 123.949219 148.925781 124.207031 148.941406 C 124.460938 148.90625 124.640625 148.777344 124.640625 148.507812 Z M 85.402344 130.808594 C 85.398438 131.070312 85.527344 131.257812 85.796875 131.277344 C 86.082031 131.296875 86.261719 131.140625 86.285156 130.847656 C 86.304688 130.554688 86.144531 130.394531 85.84375 130.339844 C 85.585938 130.375 85.410156 130.515625 85.402344 130.808594 Z M 78.328125 135.914062 C 78.339844 136.207031 78.515625 136.363281 78.800781 136.359375 C 79.046875 136.359375 79.1875 136.199219 79.179688 135.953125 C 79.171875 135.664062 78.992188 135.519531 78.714844 135.496094 C 78.472656 135.535156 78.320312 135.664062 78.328125 135.914062 Z M 127.457031 156.480469 C 127.457031 156.722656 127.605469 156.875 127.851562 156.878906 C 128.113281 156.882812 128.28125 156.734375 128.296875 156.472656 C 128.316406 156.210938 128.132812 156.117188 127.898438 156.082031 C 127.644531 156.09375 127.460938 156.203125 127.457031 156.480469 Z M 61.996094 154.863281 C 61.75 154.882812 61.609375 155.03125 61.628906 155.28125 C 61.648438 155.53125 61.824219 155.640625 62.0625 155.640625 C 62.308594 155.636719 62.449219 155.503906 62.464844 155.253906 C 62.421875 154.984375 62.265625 154.839844 61.996094 154.863281 Z M 126.363281 146.957031 C 126.097656 146.960938 125.929688 147.109375 125.941406 147.386719 C 125.953125 147.613281 126.117188 147.730469 126.335938 147.722656 C 126.585938 147.714844 126.710938 147.5625 126.738281 147.324219 C 126.710938 147.09375 126.589844 146.953125 126.363281 146.957031 Z M 86.390625 132.542969 C 86.144531 132.550781 86.011719 132.707031 86.015625 132.953125 C 86.019531 133.179688 86.15625 133.308594 86.378906 133.3125 C 86.625 133.3125 86.761719 133.171875 86.796875 132.90625 C 86.761719 132.695312 86.644531 132.53125 86.390625 132.542969 Z M 112.570312 134.09375 C 112.347656 134.09375 112.203125 134.210938 112.1875 134.441406 C 112.171875 134.671875 112.296875 134.820312 112.519531 134.835938 C 112.765625 134.851562 112.898438 134.695312 112.941406 134.4375 C 112.914062 134.234375 112.800781 134.089844 112.570312 134.09375 Z M 112.570312 134.09375 " fill-opacity="1" fill-rule="nonzero"/><path fill="#000000" d="M 130.4375 129.488281 C 130.214844 130.011719 129.875 130.351562 129.550781 130.679688 C 127.675781 132.585938 125.796875 134.492188 123.871094 136.347656 C 121.9375 138.21875 120.109375 140.199219 118.199219 142.089844 C 116.007812 144.261719 114.207031 146.785156 111.941406 148.882812 C 111.738281 149.074219 111.511719 149.46875 111.222656 149.199219 C 110.957031 148.949219 111.277344 148.636719 111.46875 148.433594 C 112.816406 146.996094 114.160156 145.554688 115.546875 144.152344 C 117.695312 141.972656 119.835938 139.785156 121.914062 137.535156 C 123.257812 136.074219 124.726562 134.726562 126.152344 133.34375 C 127.3125 132.214844 128.496094 131.109375 129.671875 129.996094 C 129.871094 129.808594 130.050781 129.578125 130.4375 129.488281 Z M 63.289062 131.871094 C 64.359375 132.992188 65.433594 134.109375 66.5 135.230469 C 70.363281 139.292969 74.539062 143.03125 78.472656 147.019531 C 79.199219 147.757812 79.984375 148.441406 80.824219 149.058594 C 80.960938 149.15625 81.132812 149.304688 81.296875 149.144531 C 81.488281 148.957031 81.316406 148.773438 81.191406 148.640625 C 80.847656 148.269531 80.503906 147.882812 80.117188 147.554688 C 75.554688 143.742188 71.660156 139.234375 67.28125 135.226562 C 65.921875 133.976562 64.628906 132.65625 63.105469 131.484375 C 63.097656 131.714844 63.207031 131.789062 63.289062 131.871094 Z M 143.574219 163.5625 C 141.011719 163.484375 138.449219 163.378906 135.882812 163.332031 C 133.351562 163.285156 130.824219 163.433594 128.300781 163.628906 C 125.984375 163.808594 123.664062 163.738281 121.34375 163.777344 C 120.183594 163.796875 119.023438 163.847656 117.867188 163.898438 C 117.671875 163.90625 117.347656 163.84375 117.335938 164.097656 C 117.316406 164.414062 117.679688 164.335938 117.871094 164.363281 C 118.535156 164.449219 119.207031 164.414062 119.871094 164.351562 C 122.851562 164.082031 125.832031 164.019531 128.824219 164.078125 C 133.671875 164.171875 138.523438 163.945312 143.371094 163.859375 C 143.578125 163.855469 143.796875 163.878906 143.992188 163.710938 C 143.859375 163.5625 143.714844 163.570312 143.574219 163.5625 Z M 96.082031 115.15625 C 95.964844 117.164062 95.921875 119.175781 95.921875 121.1875 C 95.929688 125.207031 96.234375 129.21875 96.273438 133.238281 C 96.300781 136.113281 96.171875 138.984375 96.0625 141.855469 C 96.050781 142.171875 96.011719 142.492188 96.15625 142.792969 C 96.203125 142.890625 96.257812 142.988281 96.382812 142.980469 C 96.507812 142.972656 96.558594 142.871094 96.578125 142.765625 C 96.609375 142.628906 96.632812 142.484375 96.632812 142.347656 C 96.671875 140.691406 96.722656 139.035156 96.730469 137.378906 C 96.742188 134.644531 96.605469 131.914062 96.523438 129.183594 C 96.433594 126.117188 96.460938 123.050781 96.421875 119.984375 C 96.398438 118.207031 96.445312 116.425781 96.25 114.585938 C 96.085938 114.804688 96.09375 114.984375 96.082031 115.15625 Z M 136.355469 147.945312 C 131.09375 149.9375 125.832031 151.917969 120.578125 153.925781 C 119.167969 154.46875 117.789062 155.101562 116.402344 155.699219 C 116.203125 155.785156 115.90625 155.875 116.023438 156.171875 C 116.132812 156.453125 116.386719 156.277344 116.574219 156.222656 C 117.28125 156.007812 117.984375 155.78125 118.664062 155.492188 C 124.195312 153.132812 129.789062 150.933594 135.375 148.707031 C 136.085938 148.421875 136.785156 148.105469 137.425781 147.679688 C 137.03125 147.65625 136.695312 147.816406 136.355469 147.945312 Z M 51.191406 163.875 C 54.265625 163.960938 57.339844 164.085938 60.410156 164.167969 C 64.398438 164.273438 68.390625 164.195312 72.371094 164.511719 C 73.175781 164.578125 73.988281 164.546875 74.789062 164.394531 C 74.984375 164.359375 75.269531 164.351562 75.257812 164.070312 C 75.246094 163.789062 74.960938 163.785156 74.765625 163.789062 C 73.5 163.816406 72.238281 163.695312 70.972656 163.773438 C 69.023438 163.898438 67.066406 163.945312 65.121094 163.816406 C 61.050781 163.546875 56.976562 163.476562 52.898438 163.585938 C 52.230469 163.605469 51.546875 163.601562 50.890625 163.84375 C 50.992188 163.855469 51.089844 163.871094 51.191406 163.875 Z M 79.238281 125.609375 C 80.707031 128.757812 82.023438 131.96875 83.363281 135.167969 C 84.523438 137.949219 85.621094 140.753906 86.757812 143.542969 C 86.902344 143.902344 87.101562 144.238281 87.28125 144.582031 C 87.347656 144.710938 87.445312 144.832031 87.609375 144.777344 C 87.792969 144.714844 87.828125 144.550781 87.792969 144.386719 C 87.765625 144.246094 87.71875 144.113281 87.664062 143.984375 C 87.367188 143.304688 87.085938 142.621094 86.765625 141.953125 C 85.117188 138.542969 83.644531 135.054688 82.359375 131.488281 C 81.59375 129.367188 80.769531 127.265625 79.582031 125.332031 C 79.4375 125.097656 79.320312 124.832031 79.011719 124.699219 C 78.945312 125.054688 79.109375 125.332031 79.238281 125.609375 Z M 57.496094 149.046875 C 60.660156 150.214844 63.835938 151.363281 66.996094 152.546875 C 69.628906 153.535156 72.164062 154.761719 74.765625 155.832031 C 75.273438 156.039062 75.785156 156.214844 76.316406 156.34375 C 76.476562 156.382812 76.652344 156.378906 76.722656 156.199219 C 76.808594 155.984375 76.667969 155.871094 76.496094 155.792969 C 76.398438 155.746094 76.296875 155.714844 76.199219 155.683594 C 73.078125 154.644531 70.019531 153.453125 66.988281 152.164062 C 63.480469 150.675781 59.945312 149.234375 56.273438 148.175781 C 56.007812 148.097656 55.746094 147.976562 55.324219 148.0625 C 56.085938 148.523438 56.792969 148.789062 57.496094 149.046875 Z M 112.210938 123.570312 C 111.691406 124.6875 111.265625 125.847656 110.839844 127.003906 C 109.527344 130.59375 108.234375 134.191406 106.910156 137.777344 C 106.140625 139.855469 105.320312 141.917969 104.542969 143.996094 C 104.453125 144.238281 104.203125 144.640625 104.625 144.773438 C 105.011719 144.894531 105.070312 144.457031 105.160156 144.191406 C 105.640625 142.738281 106.0625 141.261719 106.585938 139.824219 C 108.25 135.257812 109.953125 130.703125 111.628906 126.140625 C 112 125.121094 112.414062 124.113281 112.640625 122.992188 C 112.363281 123.140625 112.304688 123.367188 112.210938 123.570312 Z M 117 135.875 C 115.234375 138.226562 113.644531 140.707031 111.789062 142.996094 C 110.890625 144.101562 110.09375 145.289062 109.261719 146.449219 C 109.09375 146.679688 108.742188 147.007812 109.074219 147.269531 C 109.429688 147.542969 109.617188 147.09375 109.796875 146.867188 C 110.132812 146.441406 110.445312 145.988281 110.734375 145.527344 C 111.722656 143.964844 112.695312 142.386719 113.859375 140.949219 C 115.335938 139.125 116.683594 137.210938 118.019531 135.289062 C 118.324219 134.847656 118.664062 134.414062 118.742188 133.839844 C 118.058594 134.4375 117.535156 135.164062 117 135.875 Z M 60.28125 159.941406 C 64.507812 160.371094 68.730469 160.816406 72.925781 161.515625 C 73.578125 161.625 74.238281 161.789062 74.910156 161.722656 C 75.101562 161.703125 75.386719 161.703125 75.371094 161.40625 C 75.359375 161.160156 75.109375 161.152344 74.921875 161.125 C 74.089844 161.003906 73.257812 160.863281 72.417969 160.789062 C 69.359375 160.511719 66.316406 160.09375 63.265625 159.746094 C 61.746094 159.570312 60.226562 159.632812 58.710938 159.746094 C 59.238281 159.816406 59.761719 159.886719 60.28125 159.941406 Z M 126.414062 139.972656 C 126.296875 140.050781 126.175781 140.121094 126.066406 140.207031 C 124.347656 141.578125 122.625 142.949219 120.914062 144.332031 C 119.875 145.171875 118.863281 146.046875 117.8125 146.878906 C 116.585938 147.851562 115.332031 148.792969 114.097656 149.753906 C 113.722656 150.046875 113.371094 150.371094 113.082031 150.753906 C 112.984375 150.886719 112.894531 151.027344 113.035156 151.179688 C 113.175781 151.324219 113.328125 151.257812 113.46875 151.175781 C 113.558594 151.121094 113.640625 151.050781 113.71875 150.980469 C 114.363281 150.40625 114.992188 149.816406 115.648438 149.261719 C 117.25 147.90625 118.816406 146.511719 120.484375 145.246094 C 122.253906 143.902344 123.960938 142.496094 125.601562 141 C 125.921875 140.707031 126.273438 140.445312 126.613281 140.171875 C 126.546875 140.105469 126.480469 140.039062 126.414062 139.972656 Z M 66.695312 142.3125 C 70.570312 145.292969 74.664062 147.96875 78.5 151 C 78.664062 151.128906 78.859375 151.222656 79.046875 151.308594 C 79.191406 151.378906 79.371094 151.421875 79.464844 151.242188 C 79.566406 151.050781 79.40625 150.957031 79.273438 150.867188 C 78.769531 150.511719 78.269531 150.15625 77.757812 149.8125 C 74.933594 147.902344 72.316406 145.699219 69.484375 143.800781 C 68.46875 143.117188 67.507812 142.351562 66.285156 141.851562 C 66.398438 142.125 66.5625 142.207031 66.695312 142.3125 Z M 73.417969 136.726562 C 75.1875 139.050781 77.226562 141.152344 79.050781 143.429688 C 80.082031 144.722656 81.136719 146 82.199219 147.261719 C 82.367188 147.464844 82.617188 147.867188 82.914062 147.585938 C 83.1875 147.328125 82.792969 147.089844 82.628906 146.898438 C 80.859375 144.847656 78.960938 142.898438 77.371094 140.703125 C 76.160156 139.035156 74.773438 137.570312 73.105469 136.214844 C 73.160156 136.496094 73.316406 136.59375 73.417969 136.726562 Z M 100.523438 129.878906 C 100.445312 130.347656 100.339844 130.816406 100.308594 131.289062 C 100.054688 134.914062 99.550781 138.503906 98.960938 142.085938 C 98.925781 142.292969 98.921875 142.503906 98.929688 142.714844 C 98.933594 142.859375 98.988281 143.003906 99.160156 143.023438 C 99.332031 143.039062 99.417969 142.914062 99.449219 142.769531 C 99.53125 142.429688 99.628906 142.085938 99.667969 141.738281 C 100.050781 138.378906 100.433594 135.019531 100.699219 131.648438 C 100.746094 131.027344 100.746094 130.402344 100.65625 129.714844 C 100.578125 129.808594 100.53125 129.839844 100.523438 129.878906 Z M 91.078125 131.183594 C 91.277344 132.863281 91.664062 134.511719 91.910156 136.183594 C 92.1875 138.082031 92.417969 139.984375 92.675781 141.886719 C 92.710938 142.148438 92.757812 142.410156 92.828125 142.660156 C 92.882812 142.859375 92.929688 143.121094 93.210938 143.085938 C 93.5 143.050781 93.457031 142.789062 93.449219 142.582031 C 93.445312 142.40625 93.414062 142.234375 93.382812 142.058594 C 92.867188 139.113281 92.359375 136.164062 91.828125 133.222656 C 91.675781 132.386719 91.574219 131.527344 91.164062 130.699219 C 90.996094 130.910156 91.058594 131.050781 91.078125 131.183594 Z M 68.894531 149.492188 C 70.027344 150.089844 71.164062 150.683594 72.320312 151.234375 C 73.847656 151.964844 75.195312 153.007812 76.734375 153.703125 C 76.992188 153.820312 77.238281 153.957031 77.53125 153.953125 C 77.65625 153.953125 77.789062 153.945312 77.832031 153.796875 C 77.871094 153.664062 77.8125 153.550781 77.703125 153.480469 C 77.417969 153.300781 77.144531 153.109375 76.847656 152.960938 C 74.292969 151.671875 71.734375 150.386719 69.171875 149.113281 C 68.835938 148.949219 68.496094 148.75 68.054688 148.773438 C 68.21875 149.191406 68.582031 149.328125 68.894531 149.492188 Z M 104.214844 133.863281 C 103.90625 134.980469 103.546875 136.09375 103.3125 137.226562 C 102.921875 139.109375 102.242188 140.921875 102.003906 142.835938 C 101.964844 143.140625 101.753906 143.617188 102.164062 143.714844 C 102.652344 143.828125 102.660156 143.277344 102.695312 142.972656 C 102.964844 140.632812 103.664062 138.386719 104.171875 136.101562 C 104.367188 135.21875 104.449219 134.324219 104.398438 133.394531 C 104.335938 133.550781 104.257812 133.703125 104.214844 133.863281 Z M 132.613281 159.652344 C 131.828125 159.738281 131.039062 159.789062 130.261719 159.914062 C 127.429688 160.359375 124.589844 160.703125 121.734375 160.925781 C 120.4375 161.027344 119.136719 161.117188 117.863281 161.394531 C 117.648438 161.441406 117.308594 161.460938 117.34375 161.730469 C 117.382812 162.058594 117.71875 161.894531 117.914062 161.871094 C 119.5 161.664062 121.078125 161.410156 122.667969 161.226562 C 125.390625 160.914062 128.109375 160.585938 130.816406 160.15625 C 131.429688 160.0625 132.027344 159.890625 132.632812 159.753906 C 132.625 159.71875 132.617188 159.6875 132.613281 159.652344 Z M 111.320312 136.636719 C 110.378906 138.265625 109.621094 139.996094 108.652344 141.613281 C 108.054688 142.605469 107.558594 143.664062 107.019531 144.691406 C 106.90625 144.910156 106.804688 145.136719 106.789062 145.390625 C 106.78125 145.527344 106.769531 145.6875 106.9375 145.742188 C 107.082031 145.789062 107.171875 145.675781 107.234375 145.574219 C 107.449219 145.210938 107.667969 144.847656 107.851562 144.46875 C 108.820312 142.433594 109.753906 140.386719 110.917969 138.449219 C 111.316406 137.792969 111.710938 137.117188 111.921875 136.363281 C 111.953125 136.246094 112.070312 136.085938 111.8125 136.039062 C 111.578125 136.175781 111.453125 136.410156 111.320312 136.636719 Z M 86.980469 135.304688 C 87.726562 137.851562 88.476562 140.398438 89.230469 142.945312 C 89.308594 143.214844 89.390625 143.488281 89.5625 143.71875 C 89.667969 143.855469 89.804688 143.9375 89.972656 143.855469 C 90.121094 143.785156 90.144531 143.636719 90.121094 143.492188 C 90.082031 143.285156 90.035156 143.078125 89.96875 142.878906 C 89.167969 140.328125 88.210938 137.832031 87.300781 135.320312 C 87.230469 135.132812 87.203125 134.902344 86.96875 134.804688 C 86.84375 134.984375 86.933594 135.144531 86.980469 135.304688 Z M 80.308594 138.550781 C 81.597656 140.507812 82.625 142.625 83.902344 144.589844 C 84.1875 145.03125 84.511719 145.449219 84.828125 145.871094 C 84.925781 146 85.070312 146.117188 85.234375 146.007812 C 85.398438 145.902344 85.359375 145.726562 85.285156 145.578125 C 85.203125 145.40625 85.101562 145.238281 84.992188 145.078125 C 83.574219 142.996094 82.257812 140.847656 80.949219 138.699219 C 80.671875 138.242188 80.324219 137.859375 79.816406 137.402344 C 79.9375 137.921875 80.105469 138.25 80.308594 138.550781 Z M 66.90625 156.449219 C 66.851562 156.65625 67.082031 156.6875 67.210938 156.738281 C 67.488281 156.855469 67.769531 156.960938 68.058594 157.023438 C 69.761719 157.390625 71.433594 157.867188 73.097656 158.382812 C 73.800781 158.601562 74.527344 158.746094 75.25 158.902344 C 75.460938 158.945312 75.746094 159.003906 75.820312 158.695312 C 75.902344 158.371094 75.628906 158.273438 75.394531 158.195312 C 75.160156 158.121094 74.917969 158.066406 74.675781 158.03125 C 72.9375 157.757812 71.222656 157.378906 69.539062 156.871094 C 68.796875 156.648438 68.050781 156.445312 67.25 156.351562 C 67.15625 156.410156 66.949219 156.277344 66.90625 156.449219 Z M 125.566406 157.019531 C 125.464844 157.019531 125.355469 157.007812 125.253906 157.023438 C 123.136719 157.34375 121.019531 157.667969 118.902344 157.996094 C 118.277344 158.09375 117.644531 158.164062 117.058594 158.425781 C 116.875 158.507812 116.605469 158.589844 116.683594 158.855469 C 116.761719 159.125 117.035156 159.042969 117.230469 159.007812 C 119.171875 158.6875 121.105469 158.324219 123.011719 157.824219 C 123.871094 157.601562 124.726562 157.355469 125.582031 157.121094 C 125.578125 157.085938 125.574219 157.054688 125.566406 157.019531 Z M 121.882812 149.773438 C 119.890625 150.769531 117.898438 151.761719 115.914062 152.773438 C 115.570312 152.949219 115.261719 153.191406 114.945312 153.410156 C 114.8125 153.5 114.675781 153.621094 114.761719 153.800781 C 114.863281 154.011719 115.054688 153.941406 115.21875 153.882812 C 115.320312 153.851562 115.414062 153.800781 115.507812 153.753906 C 117.75 152.695312 119.835938 151.363281 121.953125 150.078125 C 122.125 149.976562 122.324219 149.878906 122.375 149.636719 C 122.179688 149.570312 122.035156 149.695312 121.882812 149.773438 Z M 64.054688 155.851562 C 64.050781 156.1875 64.261719 156.363281 64.589844 156.371094 C 64.875 156.378906 65.0625 156.234375 65.0625 155.933594 C 65.0625 155.59375 64.835938 155.445312 64.539062 155.390625 C 64.242188 155.414062 64.058594 155.5625 64.054688 155.851562 Z M 66.257812 147.273438 C 65.972656 147.28125 65.789062 147.460938 65.796875 147.746094 C 65.808594 148.050781 66.003906 148.230469 66.3125 148.230469 C 66.609375 148.230469 66.746094 148.042969 66.769531 147.742188 C 66.734375 147.449219 66.5625 147.265625 66.257812 147.273438 Z M 105.070312 130.734375 C 104.792969 130.738281 104.636719 130.953125 104.613281 131.21875 C 104.589844 131.519531 104.742188 131.738281 105.054688 131.746094 C 105.34375 131.753906 105.480469 131.554688 105.511719 131.257812 C 105.476562 131.003906 105.40625 130.730469 105.070312 130.734375 Z M 130.515625 155.378906 C 130.21875 155.398438 130.011719 155.554688 130.019531 155.871094 C 130.03125 156.171875 130.238281 156.300781 130.515625 156.285156 C 130.8125 156.269531 131 156.109375 131.015625 155.773438 C 130.96875 155.503906 130.796875 155.359375 130.515625 155.378906 Z M 105.929688 128.0625 C 105.605469 128.085938 105.4375 128.308594 105.4375 128.628906 C 105.441406 128.894531 105.609375 129.050781 105.871094 129.046875 C 106.199219 129.039062 106.304688 128.808594 106.320312 128.488281 C 106.292969 128.277344 106.222656 128.042969 105.929688 128.0625 Z M 124.640625 148.507812 C 124.640625 148.238281 124.46875 148.085938 124.203125 148.089844 C 123.921875 148.09375 123.722656 148.246094 123.738281 148.542969 C 123.753906 148.808594 123.949219 148.925781 124.207031 148.941406 C 124.460938 148.90625 124.640625 148.777344 124.640625 148.507812 Z M 85.402344 130.808594 C 85.398438 131.070312 85.527344 131.257812 85.796875 131.277344 C 86.082031 131.296875 86.261719 131.140625 86.285156 130.847656 C 86.304688 130.554688 86.144531 130.394531 85.84375 130.339844 C 85.585938 130.375 85.410156 130.515625 85.402344 130.808594 Z M 78.328125 135.914062 C 78.339844 136.207031 78.515625 136.363281 78.800781 136.359375 C 79.046875 136.359375 79.1875 136.199219 79.179688 135.953125 C 79.171875 135.664062 78.992188 135.519531 78.714844 135.496094 C 78.472656 135.535156 78.320312 135.664062 78.328125 135.914062 Z M 127.457031 156.480469 C 127.457031 156.722656 127.605469 156.875 127.851562 156.878906 C 128.113281 156.882812 128.28125 156.734375 128.296875 156.472656 C 128.316406 156.210938 128.132812 156.117188 127.898438 156.082031 C 127.644531 156.09375 127.460938 156.203125 127.457031 156.480469 Z M 61.996094 154.863281 C 61.75 154.882812 61.609375 155.03125 61.628906 155.28125 C 61.648438 155.53125 61.824219 155.640625 62.0625 155.640625 C 62.308594 155.636719 62.449219 155.503906 62.464844 155.253906 C 62.421875 154.984375 62.265625 154.839844 61.996094 154.863281 Z M 126.363281 146.957031 C 126.097656 146.960938 125.929688 147.109375 125.941406 147.386719 C 125.953125 147.613281 126.117188 147.730469 126.335938 147.722656 C 126.585938 147.714844 126.710938 147.5625 126.738281 147.324219 C 126.710938 147.09375 126.589844 146.953125 126.363281 146.957031 Z M 86.390625 132.542969 C 86.144531 132.550781 86.011719 132.707031 86.015625 132.953125 C 86.019531 133.179688 86.15625 133.308594 86.378906 133.3125 C 86.625 133.3125 86.761719 133.171875 86.796875 132.90625 C 86.761719 132.695312 86.644531 132.53125 86.390625 132.542969 Z M 112.570312 134.09375 C 112.347656 134.09375 112.203125 134.210938 112.1875 134.441406 C 112.171875 134.671875 112.296875 134.820312 112.519531 134.835938 C 112.765625 134.851562 112.898438 134.695312 112.941406 134.4375 C 112.914062 134.234375 112.800781 134.089844 112.570312 134.09375 Z M 112.570312 134.09375 " fill-opacity="1" fill-rule="nonzero"/></g></svg>