<svg xmlns="http://www.w3.org/2000/svg" width="159.121" height="16" viewBox="0 0 159.121 16">
  <path id="パス_4" data-name="パス 4" d="M16.762-29.046h3.246L15.7-13.761H12.656L10.81-22.7l-.539-2.955L9.732-22.7,7.886-13.761H4.92L.586-29.046H3.977L6-20.294l.436,2.437.446-2.385,1.721-8.8h3.37l1.815,8.752.467,2.437.467-2.343ZM34.7-20.439H27.275v3.93h8.461v2.748H24.154V-29.046H35.363v2.706H27.275v3.246H34.7Zm12.628,6.678H40.4V-29.046h7.424a4.722,4.722,0,0,1,3.982,1.628,3.873,3.873,0,0,1,.705,2.333,3.412,3.412,0,0,1-.705,2.25,3.639,3.639,0,0,1-1.161.871,3.408,3.408,0,0,1,1.768,1.348,4.04,4.04,0,0,1,.6,2.24,4.451,4.451,0,0,1-.684,2.437,4.224,4.224,0,0,1-1.089,1.2,4.25,4.25,0,0,1-1.737.767A10.707,10.707,0,0,1,47.327-13.761Zm-.073-6.73H43.449v4.075H47.2a3.685,3.685,0,0,0,1.566-.27,1.92,1.92,0,0,0,1.016-1.908,1.639,1.639,0,0,0-.985-1.638A3.947,3.947,0,0,0,47.255-20.491ZM48.841-23.4a1.43,1.43,0,0,0,.622-1.338,1.367,1.367,0,0,0-.83-1.41,5.871,5.871,0,0,0-1.825-.238h-3.36v3.37H47.2A3.124,3.124,0,0,0,48.841-23.4Zm27.776,8.5a6.23,6.23,0,0,1-4.376,1.566,6.593,6.593,0,0,1-5.185-2.115,8.467,8.467,0,0,1-1.887-5.828,8.394,8.394,0,0,1,2.146-6.17,6.4,6.4,0,0,1,4.749-1.887q3.857,0,5.641,2.53a5.477,5.477,0,0,1,1.058,2.852H75.569a4.314,4.314,0,0,0-.8-1.659,3.248,3.248,0,0,0-2.582-1A3.2,3.2,0,0,0,69.441-25.2a6.754,6.754,0,0,0-1.006,3.977A5.928,5.928,0,0,0,69.5-17.375a3.359,3.359,0,0,0,2.7,1.281,3.089,3.089,0,0,0,2.561-1.1,4.774,4.774,0,0,0,.809-1.773h3.163A6.873,6.873,0,0,1,76.617-14.9Zm13.167-4.853h-3.3v5.994H83.365V-29.046h7.5a6.985,6.985,0,0,1,2.473.394A3.864,3.864,0,0,1,94.8-27.584,4.733,4.733,0,0,1,95.59-26.3a4.191,4.191,0,0,1,.29,1.607,4.579,4.579,0,0,1-.55,2.141,3.071,3.071,0,0,1-1.815,1.488,2.854,2.854,0,0,1,1.5,1.208,5.029,5.029,0,0,1,.441,2.39v1.027a7.852,7.852,0,0,0,.083,1.421,1.276,1.276,0,0,0,.581.871v.384H92.6q-.145-.508-.207-.819a7.525,7.525,0,0,1-.135-1.317l-.021-1.421a2.776,2.776,0,0,0-.534-1.949A2.833,2.833,0,0,0,89.784-19.755Zm1.939-2.779a1.7,1.7,0,0,0,.954-1.721,1.9,1.9,0,0,0-.923-1.866,3.488,3.488,0,0,0-1.555-.27H86.486v4.106h3.619A4.033,4.033,0,0,0,91.723-22.534Zm19.669,2.095h-7.424v3.93h8.461v2.748H100.846V-29.046h11.209v2.706h-8.088v3.246h7.424Zm14.6,3.536h-5.631L119.3-13.761h-3.339l5.454-15.285h3.609l5.413,15.285h-3.463Zm-.892-2.634-1.908-6.014-1.97,6.014Zm18.943-9.509v2.706h-4.573v12.578h-3.215V-26.339h-4.594v-2.706Zm14.629,8.607h-7.424v3.93h8.461v2.748H148.124V-29.046h11.209v2.706h-8.088v3.246h7.424Z" transform="translate(-0.586 29.336)" fill="#333"/>
</svg>
